STARTFONT 2.1
COMMENT $Xorg: $
COMMENT ISO10646-1 extension by Markus Kuhn <mkuhn@acm.org>, 2001-03-20
FONT -B&H-LucidaTypewriter-Medium-R-Normal-Sans-34-240-100-100-M-200-ISO10646-1
SIZE 24 100 100
FONTBOUNDINGBOX 31 49 -7 -12
STARTPROPERTIES 22
FONTNAME_REGISTRY ""
FOUNDRY "B&H"
FAMILY_NAME "LucidaTypewriter"
WEIGHT_NAME "Medium"
SLANT "R"
SETWIDTH_NAME "Normal"
ADD_STYLE_NAME "Sans"
PIXEL_SIZE 34
POINT_SIZE 240
RESOLUTION_X 100
RESOLUTION_Y 100
SPACING "M"
AVERAGE_WIDTH 200
CHARSET_REGISTRY "ISO10646"
CHARSET_ENCODING "1"
FONT_ASCENT 31
FONT_DESCENT 7
DEFAULT_CHAR 0
COPYRIGHT "Copyright Bigelow & Holmes 1986, 1985."
FACE_NAME "Lucida Sans Typewriter"
X_HEIGHT 18
CAP_HEIGHT 25
ENDPROPERTIES
CHARS 873
STARTCHAR char0
ENCODING 0
SWIDTH 602 0
DWIDTH 20 0
BBX 15 25 2 0
BITMAP
AAAA
0000
8002
0000
8002
0000
8002
0000
8002
0000
8002
0000
8002
0000
8002
0000
8002
0000
8002
0000
8002
0000
8002
0000
AAAA
ENDCHAR
STARTCHAR space
ENCODING 32
SWIDTH 602 0
DWIDTH 20 0
BBX 1 1 0 0
BITMAP
00
ENDCHAR
STARTCHAR exclam
ENCODING 33
SWIDTH 602 0
DWIDTH 20 0
BBX 4 25 8 0
BITMAP
70
70
70
70
70
70
70
70
70
70
70
60
60
60
60
60
60
60
00
00
00
00
F0
F0
F0
ENDCHAR
STARTCHAR quotedbl
ENCODING 34
SWIDTH 602 0
DWIDTH 20 0
BBX 13 9 4 17
BITMAP
E078
E078
E078
E078
E078
6030
6030
6030
6030
ENDCHAR
STARTCHAR numbersign
ENCODING 35
SWIDTH 602 0
DWIDTH 20 0
BBX 19 25 1 0
BITMAP
00C180
00C300
00C300
00C300
018300
018700
018600
018600
3FFFE0
7FFFE0
030C00
030C00
060C00
061800
061800
FFFFC0
FFFF80
0C3000
0C3000
183000
183000
186000
186000
186000
306000
ENDCHAR
STARTCHAR dollar
ENCODING 36
SWIDTH 602 0
DWIDTH 20 0
BBX 14 30 4 -3
BITMAP
0300
0300
1FF0
3FF8
7B18
F300
E300
E300
E300
E300
7300
7F00
3F00
1F80
0FC0
03F0
03F8
0378
033C
031C
031C
031C
031C
8338
F3F8
FFF0
3FC0
0300
0300
0300
ENDCHAR
STARTCHAR percent
ENCODING 37
SWIDTH 602 0
DWIDTH 20 0
BBX 20 25 0 0
BITMAP
1E0070
738060
6180C0
C0C1C0
C0C380
C0C300
C0C600
C0CE00
618C00
739800
1E3800
007000
006000
00E780
01CCC0
019860
033030
073030
063030
0C3030
1C3030
383030
301860
600CC0
E00780
ENDCHAR
STARTCHAR ampersand
ENCODING 38
SWIDTH 602 0
DWIDTH 20 0
BBX 20 25 0 0
BITMAP
01F000
03FC00
071C00
0E0E00
0E0E00
0E0E00
0E1E00
0F1C00
077800
07F000
07C000
1F8000
3DC070
71E070
70E070
E0F070
E07860
E03CE0
E01EE0
E01FC0
700FC0
780780
3C1FC0
1FFFE0
07F1F0
ENDCHAR
STARTCHAR quotesingle
ENCODING 39
SWIDTH 602 0
DWIDTH 20 0
BBX 4 10 8 16
BITMAP
F0
F0
F0
F0
F0
60
60
60
60
60
ENDCHAR
STARTCHAR parenleft
ENCODING 40
SWIDTH 602 0
DWIDTH 20 0
BBX 12 32 6 -6
BITMAP
0070
01F0
03E0
0F80
0E00
1C00
3C00
3800
7000
7000
7000
E000
E000
E000
E000
E000
E000
E000
E000
E000
6000
7000
7000
3000
3800
1C00
1C00
0E00
0780
03E0
01F0
0030
ENDCHAR
STARTCHAR parenright
ENCODING 41
SWIDTH 602 0
DWIDTH 20 0
BBX 12 32 3 -6
BITMAP
C000
F800
7C00
1E00
0700
0380
03C0
01C0
00E0
00E0
00E0
0060
0070
0070
0070
0070
0070
0070
0070
0070
0070
00E0
00E0
00E0
01C0
03C0
0380
0700
1E00
7C00
F800
C000
ENDCHAR
STARTCHAR asterisk
ENCODING 42
SWIDTH 602 0
DWIDTH 20 0
BBX 15 14 3 11
BITMAP
0380
0380
0380
4384
638C
F83E
FC7E
0840
0440
0EE0
1C70
3C78
3838
0820
ENDCHAR
STARTCHAR plus
ENCODING 43
SWIDTH 602 0
DWIDTH 20 0
BBX 18 18 1 0
BITMAP
00C000
00C000
00C000
00C000
00C000
00C000
00C000
00C000
FFFFC0
FFFFC0
00C000
00C000
00C000
00C000
00C000
00C000
00C000
00C000
ENDCHAR
STARTCHAR comma
ENCODING 44
SWIDTH 602 0
DWIDTH 20 0
BBX 5 11 8 -6
BITMAP
F8
F8
F8
F8
F8
18
18
38
30
70
C0
ENDCHAR
STARTCHAR hyphen
ENCODING 45
SWIDTH 602 0
DWIDTH 20 0
BBX 18 2 1 7
BITMAP
FFFFC0
FFFFC0
ENDCHAR
STARTCHAR period
ENCODING 46
SWIDTH 602 0
DWIDTH 20 0
BBX 5 5 8 0
BITMAP
F8
F8
F8
F8
F8
ENDCHAR
STARTCHAR slash
ENCODING 47
SWIDTH 602 0
DWIDTH 20 0
BBX 18 32 1 -6
BITMAP
0001C0
000180
000380
000300
000700
000600
000E00
000C00
001C00
001800
001800
003000
003000
006000
006000
00C000
00C000
018000
018000
030000
030000
060000
060000
0E0000
0C0000
1C0000
180000
380000
300000
700000
600000
E00000
ENDCHAR
STARTCHAR zero
ENCODING 48
SWIDTH 602 0
DWIDTH 20 0
BBX 17 25 2 0
BITMAP
03E000
0FF800
1C1C00
380E00
300E00
700700
700700
600300
E00380
E00380
E00380
E00380
E00380
E00380
E00380
E00380
E00380
600300
700700
700700
300600
380E00
1C1C00
0FF800
03E000
ENDCHAR
STARTCHAR one
ENCODING 49
SWIDTH 602 0
DWIDTH 20 0
BBX 17 25 3 0
BITMAP
004000
03C000
1FC000
FFC000
C1C000
01C000
01C000
01C000
01C000
01C000
01C000
01C000
01C000
01C000
01C000
01C000
01C000
01C000
01C000
01C000
01C000
01C000
01C000
FFFF80
FFFF80
ENDCHAR
STARTCHAR two
ENCODING 50
SWIDTH 602 0
DWIDTH 20 0
BBX 14 25 3 0
BITMAP
1FC0
7FE0
7078
4038
001C
001C
001C
001C
001C
0038
0038
0070
00E0
01C0
0380
0700
0E00
0C00
1C00
3800
7800
F000
F000
FFFC
FFFC
ENDCHAR
STARTCHAR three
ENCODING 51
SWIDTH 602 0
DWIDTH 20 0
BBX 13 25 4 0
BITMAP
7F00
FFC0
C1E0
00F0
0070
0070
0070
0070
0060
00E0
01C0
3F00
3FC0
01F0
0070
0078
0038
0038
0038
0038
0078
0070
C0E0
FFC0
7F00
ENDCHAR
STARTCHAR four
ENCODING 52
SWIDTH 602 0
DWIDTH 20 0
BBX 16 25 2 0
BITMAP
0038
0078
0078
00F8
01F8
01B8
0338
0738
0638
0C38
1C38
1838
3838
7038
6038
E038
FFFF
FFFF
0038
0038
0038
0038
0038
0038
0038
ENDCHAR
STARTCHAR five
ENCODING 53
SWIDTH 602 0
DWIDTH 20 0
BBX 12 25 5 0
BITMAP
FFE0
FFE0
C000
C000
C000
C000
C000
C000
C000
FC00
FF00
07C0
01E0
00E0
0070
0070
0070
0070
0070
0070
00E0
00E0
C3C0
FF80
7E00
ENDCHAR
STARTCHAR six
ENCODING 54
SWIDTH 602 0
DWIDTH 20 0
BBX 16 25 3 0
BITMAP
01FC
07FE
1E06
1800
3800
7000
7000
6000
E000
E3F0
EFF8
FC3C
F01E
F00E
E007
E007
E007
E007
6007
7007
700E
380E
1C3C
0FF8
07E0
ENDCHAR
STARTCHAR seven
ENCODING 55
SWIDTH 602 0
DWIDTH 20 0
BBX 15 25 3 0
BITMAP
FFFE
FFFE
FFFE
000C
001C
0018
0038
0030
0060
00E0
00C0
01C0
0180
0380
0300
0700
0E00
0E00
1C00
1C00
3C00
3800
3800
7000
7000
ENDCHAR
STARTCHAR eight
ENCODING 56
SWIDTH 602 0
DWIDTH 20 0
BBX 16 25 2 0
BITMAP
07E0
1FF8
3C38
781C
700C
700C
700C
781C
3C18
3E78
1FF0
0FE0
1FF0
38FC
703E
701E
E00F
E007
E007
E007
F007
700E
7C1C
1FF8
07E0
ENDCHAR
STARTCHAR nine
ENCODING 57
SWIDTH 602 0
DWIDTH 20 0
BBX 16 25 2 0
BITMAP
07E0
1FF0
3C38
701C
700E
E006
E006
E007
E007
E007
E007
700F
700F
3C3F
1FF7
0FC7
0007
0006
000E
000E
001C
0018
6078
7FE0
3F80
ENDCHAR
STARTCHAR colon
ENCODING 58
SWIDTH 602 0
DWIDTH 20 0
BBX 5 18 8 0
BITMAP
F8
F8
F8
F8
F8
00
00
00
00
00
00
00
00
F8
F8
F8
F8
F8
ENDCHAR
STARTCHAR semicolon
ENCODING 59
SWIDTH 602 0
DWIDTH 20 0
BBX 5 24 8 -6
BITMAP
F8
F8
F8
F8
F8
00
00
00
00
00
00
00
00
F8
F8
F8
F8
F8
18
18
38
30
70
C0
ENDCHAR
STARTCHAR less
ENCODING 60
SWIDTH 602 0
DWIDTH 20 0
BBX 17 18 0 0
BITMAP
000080
000180
000780
001E00
007800
01E000
078000
1E0000
F80000
780000
1E0000
078000
01E000
007800
001E00
000780
000180
000080
ENDCHAR
STARTCHAR equal
ENCODING 61
SWIDTH 602 0
DWIDTH 20 0
BBX 18 8 1 5
BITMAP
FFFFC0
FFFFC0
000000
000000
000000
000000
FFFFC0
FFFFC0
ENDCHAR
STARTCHAR greater
ENCODING 62
SWIDTH 602 0
DWIDTH 20 0
BBX 17 18 1 0
BITMAP
800000
C00000
F00000
3C0000
0F0000
03C000
00F000
003C00
000F00
000F80
003C00
00F000
03C000
0F0000
3C0000
F00000
C00000
800000
ENDCHAR
STARTCHAR question
ENCODING 63
SWIDTH 602 0
DWIDTH 20 0
BBX 15 25 3 0
BITMAP
3FE0
FFF8
C03C
C01E
C00E
000E
000E
000C
001C
0038
0070
00E0
01C0
0380
0300
0700
0700
0700
0000
0000
0000
0000
0F00
0F00
0F00
ENDCHAR
STARTCHAR at
ENCODING 64
SWIDTH 602 0
DWIDTH 20 0
BBX 19 25 1 0
BITMAP
01FC00
07FE00
0F0700
1C0300
380180
301F80
706180
60C180
618180
C18180
C10180
C30180
C30380
C30380
C30780
C30580
C30D80
619980
61F9E0
70F1E0
300000
380000
1E0600
07FE00
01F800
ENDCHAR
STARTCHAR A
ENCODING 65
SWIDTH 602 0
DWIDTH 20 0
BBX 20 25 0 0
BITMAP
007000
00F000
00F000
00F800
01B800
01B800
019C00
031C00
031C00
030E00
060E00
060E00
060F00
0C0700
0C0700
0C0780
1FFF80
1FFF80
1803C0
3001C0
3001C0
3000E0
6000E0
6000E0
E00070
ENDCHAR
STARTCHAR B
ENCODING 66
SWIDTH 602 0
DWIDTH 20 0
BBX 15 25 3 0
BITMAP
FFE0
FFF8
E078
E03C
E01C
E01C
E01C
E01C
E038
E078
E0F0
FFE0
FFE0
E0F0
E038
E01C
E00E
E00E
E00E
E00E
E00E
E01C
E03C
FFF8
FFE0
ENDCHAR
STARTCHAR C
ENCODING 67
SWIDTH 602 0
DWIDTH 20 0
BBX 17 25 2 0
BITMAP
01FE00
07FF80
0F0380
1C0080
380000
380000
700000
700000
F00000
E00000
E00000
E00000
E00000
E00000
E00000
E00000
E00000
700000
700000
380000
3C0000
1E0000
0F8180
07FF80
00FE00
ENDCHAR
STARTCHAR D
ENCODING 68
SWIDTH 602 0
DWIDTH 20 0
BBX 17 25 2 0
BITMAP
FFE000
FFF800
E07C00
E01E00
E00F00
E00700
E00700
E00380
E00380
E00380
E00380
E00380
E00380
E00380
E00380
E00380
E00380
E00700
E00700
E00700
E00E00
E01E00
E07C00
FFF000
FFC000
ENDCHAR
STARTCHAR E
ENCODING 69
SWIDTH 602 0
DWIDTH 20 0
BBX 15 25 4 0
BITMAP
FFFC
FFFC
E000
E000
E000
E000
E000
E000
E000
E000
E000
FFF8
FFF0
E000
E000
E000
E000
E000
E000
E000
E000
E000
E000
FFFE
FFFE
ENDCHAR
STARTCHAR F
ENCODING 70
SWIDTH 602 0
DWIDTH 20 0
BBX 15 25 4 0
BITMAP
FFFE
FFFE
E000
E000
E000
E000
E000
E000
E000
E000
E000
FFF8
FFF8
E000
E000
E000
E000
E000
E000
E000
E000
E000
E000
E000
E000
ENDCHAR
STARTCHAR G
ENCODING 71
SWIDTH 602 0
DWIDTH 20 0
BBX 17 25 1 0
BITMAP
01FF00
07FF80
0F0180
1C0000
380000
380000
700000
700000
E00000
E00000
E00000
E00000
E00000
E00000
E00380
E00380
F00380
700380
700380
380380
3C0380
1E0380
0F8380
07FF80
00FE00
ENDCHAR
STARTCHAR H
ENCODING 72
SWIDTH 602 0
DWIDTH 20 0
BBX 16 25 2 0
BITMAP
E007
E007
E007
E007
E007
E007
E007
E007
E007
E007
E007
FFFF
FFFF
E007
E007
E007
E007
E007
E007
E007
E007
E007
E007
E007
E007
ENDCHAR
STARTCHAR I
ENCODING 73
SWIDTH 602 0
DWIDTH 20 0
BBX 15 25 3 0
BITMAP
FFFE
FFFE
0380
0380
0380
0380
0380
0380
0380
0380
0380
0380
0380
0380
0380
0380
0380
0380
0380
0380
0380
0380
0380
FFFE
FFFE
ENDCHAR
STARTCHAR J
ENCODING 74
SWIDTH 602 0
DWIDTH 20 0
BBX 12 25 3 0
BITMAP
3FF0
3FF0
0070
0070
0070
0070
0070
0070
0070
0070
0070
0070
0070
0070
0070
0070
0070
0070
0070
0070
0070
00E0
C1C0
FFC0
7F00
ENDCHAR
STARTCHAR K
ENCODING 75
SWIDTH 602 0
DWIDTH 20 0
BBX 17 25 3 0
BITMAP
E00E00
E01C00
E01800
E03000
E07000
E0E000
E0C000
E18000
E38000
E70000
E60000
EE0000
FE0000
EF0000
E78000
E38000
E3C000
E1E000
E0F000
E07800
E03800
E03C00
E01E00
E00F00
E00780
ENDCHAR
STARTCHAR L
ENCODING 76
SWIDTH 602 0
DWIDTH 20 0
BBX 14 25 4 0
BITMAP
E000
E000
E000
E000
E000
E000
E000
E000
E000
E000
E000
E000
E000
E000
E000
E000
E000
E000
E000
E000
E000
E000
E000
FFFC
FFFC
ENDCHAR
STARTCHAR M
ENCODING 77
SWIDTH 602 0
DWIDTH 20 0
BBX 18 25 1 0
BITMAP
F003C0
F003C0
F003C0
F807C0
D806C0
D806C0
D806C0
DC0EC0
CC0CC0
CC0CC0
CC0CC0
CE1CC0
C618C0
C618C0
C618C0
C330C0
C330C0
C330C0
C330C0
C1E0C0
C1E0C0
C1E0C0
C0C0C0
C000C0
C000C0
ENDCHAR
STARTCHAR N
ENCODING 78
SWIDTH 602 0
DWIDTH 20 0
BBX 16 25 2 0
BITMAP
E003
F003
F003
F803
F803
FC03
DC03
CE03
CF03
C703
C783
C383
C3C3
C1C3
C1E3
C0E3
C073
C07B
C03B
C03F
C01F
C01F
C00F
C007
C007
ENDCHAR
STARTCHAR O
ENCODING 79
SWIDTH 602 0
DWIDTH 20 0
BBX 18 25 1 0
BITMAP
03F000
0FFC00
1E1E00
380700
380700
700380
700380
700380
E001C0
E001C0
E001C0
E001C0
E001C0
E001C0
E001C0
E001C0
E001C0
700380
700380
700380
380700
3C0F00
1E1E00
0FFC00
03F000
ENDCHAR
STARTCHAR P
ENCODING 80
SWIDTH 602 0
DWIDTH 20 0
BBX 15 25 4 0
BITMAP
FFE0
FFF8
E03C
E01E
E00E
E00E
E00E
E00E
E00E
E01C
E01C
E078
FFF0
FF80
E000
E000
E000
E000
E000
E000
E000
E000
E000
E000
E000
ENDCHAR
STARTCHAR Q
ENCODING 81
SWIDTH 602 0
DWIDTH 20 0
BBX 19 31 1 -6
BITMAP
03F000
0FFC00
1E1E00
380700
380700
700380
700380
700380
E001C0
E001C0
E001C0
E001C0
E001C0
E001C0
E001C0
E001C0
E001C0
7003C0
700380
700380
380780
3C0F00
1E1F00
0FFE00
03FC00
003800
001E00
000F80
0007E0
0003C0
000080
ENDCHAR
STARTCHAR R
ENCODING 82
SWIDTH 602 0
DWIDTH 20 0
BBX 17 25 3 0
BITMAP
FFC000
FFF000
E07800
E03C00
E01C00
E01C00
E01C00
E01C00
E03C00
E07800
E0F800
FFF000
FFE000
E3C000
E1C000
E0E000
E0E000
E07000
E07800
E03800
E03C00
E01E00
E00E00
E00F00
E00780
ENDCHAR
STARTCHAR S
ENCODING 83
SWIDTH 602 0
DWIDTH 20 0
BBX 16 25 3 0
BITMAP
0FF8
3FFE
780E
7000
E000
E000
E000
F000
F000
7C00
3F00
0FC0
03F0
00FC
003E
001E
000F
0007
0007
0007
0007
800E
F03C
FFF8
1FE0
ENDCHAR
STARTCHAR T
ENCODING 84
SWIDTH 602 0
DWIDTH 20 0
BBX 19 25 1 0
BITMAP
FFFFE0
FFFFE0
00E000
00E000
00E000
00E000
00E000
00E000
00E000
00E000
00E000
00E000
00E000
00E000
00E000
00E000
00E000
00E000
00E000
00E000
00E000
00E000
00E000
00E000
00E000
ENDCHAR
STARTCHAR U
ENCODING 85
SWIDTH 602 0
DWIDTH 20 0
BBX 15 25 3 0
BITMAP
E006
E006
E006
E006
E006
E006
E006
E006
E006
E006
E006
E006
E006
E006
E006
E006
E006
E006
E006
E006
F00C
700C
781C
3FF8
0FE0
ENDCHAR
STARTCHAR V
ENCODING 86
SWIDTH 602 0
DWIDTH 20 0
BBX 20 25 0 0
BITMAP
E00070
700060
700060
7000C0
3800C0
3800C0
380180
1C0180
1C0180
1C0300
0E0300
0E0300
0E0600
070600
070600
070C00
038C00
038C00
039800
01D800
01D800
01F000
01F000
00F000
00E000
ENDCHAR
STARTCHAR W
ENCODING 87
SWIDTH 602 0
DWIDTH 20 0
BBX 20 25 0 0
BITMAP
C00030
C00030
C0E030
C0E060
E1F060
E1F060
61F060
61F060
61B060
61B0C0
6338C0
6338C0
7338C0
7318C0
7218C0
7619C0
761D80
761D80
760D80
340D80
340F80
3C0F80
3C0F00
380700
380700
ENDCHAR
STARTCHAR X
ENCODING 88
SWIDTH 602 0
DWIDTH 20 0
BBX 20 25 0 0
BITMAP
7800E0
3800C0
3C01C0
1E0380
0E0300
0F0700
070600
038C00
03DC00
01D800
01F000
00F000
007000
00F800
01F800
01BC00
031E00
070E00
060F00
0C0700
1C0380
1803C0
3001C0
7001E0
E000F0
ENDCHAR
STARTCHAR Y
ENCODING 89
SWIDTH 602 0
DWIDTH 20 0
BBX 20 25 0 0
BITMAP
F00070
7000E0
3800C0
3C01C0
1C0380
1E0300
0E0700
0F0600
070C00
078C00
03D800
01F800
01F000
00E000
00E000
00E000
00E000
00E000
00E000
00E000
00E000
00E000
00E000
00E000
00E000
ENDCHAR
STARTCHAR Z
ENCODING 90
SWIDTH 602 0
DWIDTH 20 0
BBX 17 25 2 0
BITMAP
7FFF80
7FFF80
000780
000F00
000E00
001E00
001C00
003800
007800
007000
00F000
01E000
01C000
03C000
078000
070000
0F0000
1E0000
1C0000
3C0000
780000
700000
F00000
FFFF80
FFFF80
ENDCHAR
STARTCHAR bracketleft
ENCODING 91
SWIDTH 602 0
DWIDTH 20 0
BBX 9 32 8 -6
BITMAP
FF80
FF80
C000
C000
C000
C000
C000
C000
C000
C000
C000
C000
C000
C000
C000
C000
C000
C000
C000
C000
C000
C000
C000
C000
C000
C000
C000
C000
C000
C000
FF80
FF80
ENDCHAR
STARTCHAR backslash
ENCODING 92
SWIDTH 602 0
DWIDTH 20 0
BBX 18 32 1 -6
BITMAP
E00000
600000
700000
300000
380000
180000
1C0000
0C0000
0E0000
060000
060000
030000
030000
018000
018000
00C000
00C000
006000
006000
003000
003000
001800
001800
001C00
000C00
000E00
000600
000700
000300
000380
000180
0001C0
ENDCHAR
STARTCHAR bracketright
ENCODING 93
SWIDTH 602 0
DWIDTH 20 0
BBX 9 32 3 -6
BITMAP
FF80
FF80
0180
0180
0180
0180
0180
0180
0180
0180
0180
0180
0180
0180
0180
0180
0180
0180
0180
0180
0180
0180
0180
0180
0180
0180
0180
0180
0180
0180
FF80
FF80
ENDCHAR
STARTCHAR asciicircum
ENCODING 94
SWIDTH 602 0
DWIDTH 20 0
BBX 18 19 1 5
BITMAP
004000
00C000
00C000
01E000
01E000
03F000
033000
033000
061800
061800
0C0C00
0C0C00
180600
180600
380700
300300
700380
600180
E001C0
ENDCHAR
STARTCHAR underscore
ENCODING 95
SWIDTH 602 0
DWIDTH 20 0
BBX 20 2 0 -3
BITMAP
FFFFF0
FFFFF0
ENDCHAR
STARTCHAR grave
ENCODING 96
SWIDTH 602 0
DWIDTH 20 0
BBX 7 5 7 21
BITMAP
F0
78
38
1C
0E
ENDCHAR
STARTCHAR a
ENCODING 97
SWIDTH 602 0
DWIDTH 20 0
BBX 17 18 2 0
BITMAP
0FE000
3FF800
303800
201C00
001C00
001C00
001C00
07FC00
1FFC00
7C1C00
701C00
E01C00
E01C00
E01C00
E03C00
707C00
7FEF80
1F8F80
ENDCHAR
STARTCHAR b
ENCODING 98
SWIDTH 602 0
DWIDTH 20 0
BBX 16 26 3 0
BITMAP
E000
E000
E000
E000
E000
E000
E000
E000
E3F0
E7F8
EE1C
F80E
F00E
E007
E007
E007
E007
E007
E007
E007
E00E
E00E
F01C
FC3C
EFF8
E3E0
ENDCHAR
STARTCHAR c
ENCODING 99
SWIDTH 602 0
DWIDTH 20 0
BBX 15 18 3 0
BITMAP
03FC
0FFE
3E06
7800
7000
F000
E000
E000
E000
E000
E000
E000
7000
7000
3800
3E06
0FFE
03FC
ENDCHAR
STARTCHAR d
ENCODING 100
SWIDTH 602 0
DWIDTH 20 0
BBX 16 26 2 0
BITMAP
0007
0007
0007
0007
0007
0007
0007
0007
07E7
1FF7
3C3F
380F
7007
7007
E007
E007
E007
E007
E007
E007
E007
700F
701F
3877
1FE7
0FC7
ENDCHAR
STARTCHAR e
ENCODING 101
SWIDTH 602 0
DWIDTH 20 0
BBX 16 18 2 0
BITMAP
03F0
0FFC
1C1E
380E
700E
7007
E007
E007
FFFF
FFFF
E000
E000
6000
7000
3800
1C03
0FFF
03FC
ENDCHAR
STARTCHAR f
ENCODING 102
SWIDTH 602 0
DWIDTH 20 0
BBX 17 27 3 0
BITMAP
007F00
01FF80
03C080
038000
070000
070000
070000
070000
070000
FFFF00
FFFF00
070000
070000
070000
070000
070000
070000
070000
070000
070000
070000
070000
070000
070000
070000
070000
070000
ENDCHAR
STARTCHAR g
ENCODING 103
SWIDTH 602 0
DWIDTH 20 0
BBX 16 25 2 -7
BITMAP
07E3
1FFB
3C3F
380F
7007
7007
E007
E007
E007
E007
E007
E007
E007
700F
701F
3877
1FE7
0FC7
0007
0007
0006
000E
301C
3FF8
1FE0
ENDCHAR
STARTCHAR h
ENCODING 104
SWIDTH 602 0
DWIDTH 20 0
BBX 15 26 3 0
BITMAP
E000
E000
E000
E000
E000
E000
E000
E000
E1F0
E7F8
EFFC
FC1E
F80E
F00E
E00E
E00E
E00E
E00E
E00E
E00E
E00E
E00E
E00E
E00E
E00E
E00E
ENDCHAR
STARTCHAR i
ENCODING 105
SWIDTH 602 0
DWIDTH 20 0
BBX 10 26 3 0
BITMAP
01C0
01C0
01C0
01C0
0000
0000
0000
0000
FFC0
FFC0
01C0
01C0
01C0
01C0
01C0
01C0
01C0
01C0
01C0
01C0
01C0
01C0
01C0
01C0
01C0
01C0
ENDCHAR
STARTCHAR j
ENCODING 106
SWIDTH 602 0
DWIDTH 20 0
BBX 12 33 3 -7
BITMAP
0070
0070
0070
0070
0000
0000
0000
0000
7FF0
7FF0
0070
0070
0070
0070
0070
0070
0070
0070
0070
0070
0070
0070
0070
0070
0070
0070
0070
0070
0070
00E0
81E0
FFC0
7F00
ENDCHAR
STARTCHAR k
ENCODING 107
SWIDTH 602 0
DWIDTH 20 0
BBX 16 26 4 0
BITMAP
E000
E000
E000
E000
E000
E000
E000
E000
E01C
E030
E070
E0E0
E1C0
E380
E700
EE00
EE00
FF00
E780
E3C0
E1E0
E0F0
E078
E07C
E03C
E01F
ENDCHAR
STARTCHAR l
ENCODING 108
SWIDTH 602 0
DWIDTH 20 0
BBX 10 26 3 0
BITMAP
FFC0
FFC0
01C0
01C0
01C0
01C0
01C0
01C0
01C0
01C0
01C0
01C0
01C0
01C0
01C0
01C0
01C0
01C0
01C0
01C0
01C0
01C0
01C0
01C0
01C0
01C0
ENDCHAR
STARTCHAR m
ENCODING 109
SWIDTH 602 0
DWIDTH 20 0
BBX 18 18 1 0
BITMAP
C70780
CF9F80
D8D8C0
F0F0C0
E0E0C0
C0C0C0
C0C0C0
C0C0C0
C0C0C0
C0C0C0
C0C0C0
C0C0C0
C0C0C0
C0C0C0
C0C0C0
C0C0C0
C0C0C0
C0C0C0
ENDCHAR
STARTCHAR n
ENCODING 110
SWIDTH 602 0
DWIDTH 20 0
BBX 15 18 3 0
BITMAP
E1F0
E7F8
EFFC
FC1E
F80E
F00E
E00E
E00E
E00E
E00E
E00E
E00E
E00E
E00E
E00E
E00E
E00E
E00E
ENDCHAR
STARTCHAR o
ENCODING 111
SWIDTH 602 0
DWIDTH 20 0
BBX 17 18 2 0
BITMAP
07F000
1FFC00
3C1E00
780F00
700700
F00780
E00380
E00380
E00380
E00380
E00380
E00380
F00780
700700
780F00
3C1E00
1FFC00
07F000
ENDCHAR
STARTCHAR p
ENCODING 112
SWIDTH 602 0
DWIDTH 20 0
BBX 16 25 3 -7
BITMAP
E3F0
E7F8
EE1C
F80E
F00E
E007
E007
E007
E007
E007
E007
E007
E00E
E00E
F01C
FC3C
EFF8
E7E0
E000
E000
E000
E000
E000
E000
E000
ENDCHAR
STARTCHAR q
ENCODING 113
SWIDTH 602 0
DWIDTH 20 0
BBX 16 25 2 -7
BITMAP
07C7
1FF7
3C3F
380F
7007
7007
E007
E007
E007
E007
E007
E007
E007
700F
701F
3877
1FE7
0FC7
0007
0007
0007
0007
0007
0007
0007
ENDCHAR
STARTCHAR r
ENCODING 114
SWIDTH 602 0
DWIDTH 20 0
BBX 13 18 5 0
BITMAP
E1F8
E7F8
EE18
F818
F018
E000
E000
E000
E000
E000
E000
E000
E000
E000
E000
E000
E000
E000
ENDCHAR
STARTCHAR s
ENCODING 115
SWIDTH 602 0
DWIDTH 20 0
BBX 14 18 3 0
BITMAP
0FF0
3FF8
7018
E000
E000
E000
F800
7F00
3FE0
0FF8
01FC
003C
001C
001C
801C
E078
FFF0
3FC0
ENDCHAR
STARTCHAR t
ENCODING 116
SWIDTH 602 0
DWIDTH 20 0
BBX 16 22 2 0
BITMAP
0700
0700
0700
0700
FFFF
FFFF
0700
0700
0700
0700
0700
0700
0700
0700
0700
0700
0700
0700
0700
0380
03FF
00FF
ENDCHAR
STARTCHAR u
ENCODING 117
SWIDTH 602 0
DWIDTH 20 0
BBX 15 18 3 0
BITMAP
E00E
E00E
E00E
E00E
E00E
E00E
E00E
E00E
E00E
E00E
E00E
E00E
E01E
E03E
F07E
7FEE
3FCE
1F0E
ENDCHAR
STARTCHAR v
ENCODING 118
SWIDTH 602 0
DWIDTH 20 0
BBX 18 18 1 0
BITMAP
E001C0
700180
700380
780300
380300
3C0600
1C0600
1C0E00
1E0C00
0E0C00
0F1800
071800
073000
03B000
03F000
03E000
01E000
01C000
ENDCHAR
STARTCHAR w
ENCODING 119
SWIDTH 602 0
DWIDTH 20 0
BBX 20 18 0 0
BITMAP
E00030
E00030
E0F060
70F060
70F060
70F060
719860
7198C0
3198C0
3B98C0
3B0CC0
3B0DC0
3B0D80
3E0D80
1E0D80
1E0780
1E0780
1C0700
ENDCHAR
STARTCHAR x
ENCODING 120
SWIDTH 602 0
DWIDTH 20 0
BBX 18 18 1 0
BITMAP
F00380
780700
3C0600
1E0C00
0E1C00
0F1800
07B000
03F000
01E000
01E000
03F000
077800
063C00
0C1C00
1C1E00
380F00
300780
E003C0
ENDCHAR
STARTCHAR y
ENCODING 121
SWIDTH 602 0
DWIDTH 20 0
BBX 18 25 1 -7
BITMAP
F001C0
700180
700380
380300
380300
3C0600
1C0600
1C0C00
0E0C00
0E1C00
0F1800
071800
073000
03B000
03E000
01E000
01E000
01C000
01C000
018000
018000
030000
070000
7E0000
780000
ENDCHAR
STARTCHAR z
ENCODING 122
SWIDTH 602 0
DWIDTH 20 0
BBX 16 18 2 0
BITMAP
FFFF
FFFF
000E
001C
0038
0030
0060
00E0
01C0
0380
0700
0E00
1C00
1800
3000
6000
FFFF
FFFF
ENDCHAR
STARTCHAR braceleft
ENCODING 123
SWIDTH 602 0
DWIDTH 20 0
BBX 13 32 4 -6
BITMAP
00F8
03F8
0700
0E00
0E00
0E00
0E00
0E00
0700
0700
0700
0300
0300
0300
0E00
FC00
F800
0E00
0200
0300
0300
0300
0700
0700
0600
0E00
0E00
0E00
0E00
0700
03F8
00F8
ENDCHAR
STARTCHAR bar
ENCODING 124
SWIDTH 602 0
DWIDTH 20 0
BBX 2 32 9 -6
BITMAP
C0
C0
C0
C0
C0
C0
C0
C0
C0
C0
C0
C0
C0
C0
C0
C0
C0
C0
C0
C0
C0
C0
C0
C0
C0
C0
C0
C0
C0
C0
C0
C0
ENDCHAR
STARTCHAR braceright
ENCODING 125
SWIDTH 602 0
DWIDTH 20 0
BBX 12 32 4 -6
BITMAP
F800
FE00
0700
0380
0380
0380
0380
0300
0700
0700
0600
0600
0600
0600
0300
01F0
01F0
0300
0600
0600
0600
0600
0700
0700
0300
0380
0380
0380
0380
0700
FE00
F800
ENDCHAR
STARTCHAR asciitilde
ENCODING 126
SWIDTH 602 0
DWIDTH 20 0
BBX 18 6 1 6
BITMAP
1E00C0
7F80C0
63C0C0
C0F180
C07F80
C01E00
ENDCHAR
STARTCHAR space
ENCODING 160
SWIDTH 602 0
DWIDTH 20 0
BBX 1 1 0 0
BITMAP
00
ENDCHAR
STARTCHAR exclamdown
ENCODING 161
SWIDTH 602 0
DWIDTH 20 0
BBX 4 25 8 -7
BITMAP
F0
F0
F0
00
00
00
00
60
60
60
60
60
60
60
70
70
70
70
70
70
70
70
70
70
70
ENDCHAR
STARTCHAR cent
ENCODING 162
SWIDTH 602 0
DWIDTH 20 0
BBX 13 25 4 0
BITMAP
0180
0180
0180
07F0
1FF8
3F98
3988
7180
7180
E180
E180
E180
E180
E180
E180
E180
6180
7180
3988
3D98
1FF8
07F0
0180
0180
0180
ENDCHAR
STARTCHAR sterling
ENCODING 163
SWIDTH 602 0
DWIDTH 20 0
BBX 13 25 4 0
BITMAP
01F8
07F8
0E08
0C00
1C00
1C00
1C00
1C00
1C00
1C00
1C00
7F80
7F80
1C00
1C00
1C00
1C00
1C00
1C00
1C00
3800
7000
F000
FFF8
FFF8
ENDCHAR
STARTCHAR currency
ENCODING 164
SWIDTH 602 0
DWIDTH 20 0
BBX 17 17 2 4
BITMAP
400100
E00380
600700
33E600
1FFC00
1C1C00
380E00
300600
300600
300600
300600
180C00
1C1C00
3FFE00
73E700
E00380
400100
ENDCHAR
STARTCHAR yen
ENCODING 165
SWIDTH 602 0
DWIDTH 20 0
BBX 19 25 1 0
BITMAP
F000E0
7800C0
380180
3C0380
1C0300
1E0600
0F0E00
070C00
079C00
039800
03F000
01F000
00E000
1FFF00
1FFF00
00E000
00E000
1FFF00
1FFF00
00E000
00E000
00E000
00E000
00E000
00E000
ENDCHAR
STARTCHAR brokenbar
ENCODING 166
SWIDTH 602 0
DWIDTH 20 0
BBX 2 32 9 -6
BITMAP
C0
C0
C0
C0
C0
C0
C0
C0
C0
C0
C0
C0
C0
00
00
00
00
00
00
C0
C0
C0
C0
C0
C0
C0
C0
C0
C0
C0
C0
C0
ENDCHAR
STARTCHAR section
ENCODING 167
SWIDTH 602 0
DWIDTH 20 0
BBX 13 31 4 -6
BITMAP
0FF0
3FF0
7010
6000
C000
C000
C000
F000
FC00
7F00
7F80
67C0
C1E0
C070
C030
C030
E030
F030
7C60
3FE0
0FE0
03F0
00F0
0078
0038
0038
0038
8038
E0F0
FFE0
3F80
ENDCHAR
STARTCHAR dieresis
ENCODING 168
SWIDTH 602 0
DWIDTH 20 0
BBX 9 2 6 23
BITMAP
E380
E380
ENDCHAR
STARTCHAR copyright
ENCODING 169
SWIDTH 602 0
DWIDTH 20 0
BBX 19 25 1 0
BITMAP
03F800
0FFE00
1C0700
380380
3001C0
60FCC0
63FCC0
470460
C60060
CE0060
CC0060
CC0060
CC0060
CC0060
CC0060
CE0060
C60060
C78440
63FCC0
60F8C0
700180
380380
1C0700
0FFE00
03F800
ENDCHAR
STARTCHAR ordfeminine
ENCODING 170
SWIDTH 602 0
DWIDTH 20 0
BBX 12 13 4 12
BITMAP
3F00
7F80
61C0
40C0
00C0
1FC0
7FC0
60C0
C0C0
C0C0
E3C0
7FF0
3CF0
ENDCHAR
STARTCHAR guillemotleft
ENCODING 171
SWIDTH 602 0
DWIDTH 20 0
BBX 16 16 2 1
BITMAP
0102
0387
070E
0E0C
1C18
1838
3870
F1E0
70E0
3870
1838
1C18
0E0C
070E
0307
0182
ENDCHAR
STARTCHAR logicalnot
ENCODING 172
SWIDTH 602 0
DWIDTH 20 0
BBX 18 8 1 5
BITMAP
FFFFC0
FFFFC0
0000C0
0000C0
0000C0
0000C0
0000C0
0000C0
ENDCHAR
STARTCHAR hyphen
ENCODING 173
SWIDTH 602 0
DWIDTH 20 0
BBX 14 2 3 10
BITMAP
FFFC
FFFC
ENDCHAR
STARTCHAR registered
ENCODING 174
SWIDTH 602 0
DWIDTH 20 0
BBX 15 15 3 10
BITMAP
07C0
1830
2788
4444
4444
8442
84C2
8782
8482
8482
4484
4484
2008
1830
07C0
ENDCHAR
STARTCHAR macron
ENCODING 175
SWIDTH 602 0
DWIDTH 20 0
BBX 9 2 6 22
BITMAP
FF80
FF80
ENDCHAR
STARTCHAR degree
ENCODING 176
SWIDTH 602 0
DWIDTH 20 0
BBX 6 6 7 19
BITMAP
78
CC
84
84
CC
78
ENDCHAR
STARTCHAR plusminus
ENCODING 177
SWIDTH 602 0
DWIDTH 20 0
BBX 18 18 1 0
BITMAP
00C000
00C000
00C000
00C000
00C000
00C000
FFFFC0
FFFFC0
00C000
00C000
00C000
00C000
00C000
000000
000000
000000
FFFFC0
FFFFC0
ENDCHAR
STARTCHAR twosuperior
ENCODING 178
SWIDTH 602 0
DWIDTH 20 0
BBX 6 12 -3 13
BITMAP
78
8C
04
04
04
08
18
30
60
40
C0
FC
ENDCHAR
STARTCHAR threesuperior
ENCODING 179
SWIDTH 602 0
DWIDTH 20 0
BBX 6 12 -3 13
BITMAP
F8
8C
04
04
08
70
0C
04
04
04
88
F0
ENDCHAR
STARTCHAR acute
ENCODING 180
SWIDTH 602 0
DWIDTH 20 0
BBX 7 5 6 21
BITMAP
1E
3C
38
70
E0
ENDCHAR
STARTCHAR mu
ENCODING 181
SWIDTH 602 0
DWIDTH 20 0
BBX 15 24 3 -6
BITMAP
E00E
E00E
E00E
E00E
E00E
E00E
E00E
E00E
E00E
E00E
E00E
E00E
E01E
E03E
F0FE
FFEE
FFCE
FF0E
E000
E000
E000
E000
E000
E000
ENDCHAR
STARTCHAR paragraph
ENCODING 182
SWIDTH 602 0
DWIDTH 20 0
BBX 12 31 3 -6
BITMAP
1FF0
7FF0
FF30
FF30
FF30
FF30
FF30
FF30
FF30
7F30
7F30
1F30
0F30
0330
0330
0330
0330
0330
0330
0330
0330
0330
0330
0330
0330
0330
0330
0330
0330
0330
0330
ENDCHAR
STARTCHAR periodcentered
ENCODING 183
SWIDTH 602 0
DWIDTH 20 0
BBX 4 3 8 8
BITMAP
F0
F0
F0
ENDCHAR
STARTCHAR cedilla
ENCODING 184
SWIDTH 602 0
DWIDTH 20 0
BBX 5 7 8 -7
BITMAP
60
E0
70
38
18
18
F0
ENDCHAR
STARTCHAR onesuperior
ENCODING 185
SWIDTH 602 0
DWIDTH 20 0
BBX 7 12 -3 13
BITMAP
10
F0
10
10
10
10
10
10
10
10
10
FE
ENDCHAR
STARTCHAR ordmasculine
ENCODING 186
SWIDTH 602 0
DWIDTH 20 0
BBX 13 13 4 12
BITMAP
0F80
3FE0
78F0
7070
E038
E038
E038
E038
E038
7070
78F0
3FE0
0F80
ENDCHAR
STARTCHAR guillemotright
ENCODING 187
SWIDTH 602 0
DWIDTH 20 0
BBX 16 16 2 1
BITMAP
4180
E0C0
70E0
3070
1830
1C18
0E1C
070E
078F
0E1C
1C18
1838
3070
70E0
E1C0
4080
ENDCHAR
STARTCHAR onequarter
ENCODING 188
SWIDTH 602 0
DWIDTH 20 0
BBX 20 25 4 0
BITMAP
100070
F000E0
1000C0
100180
100380
100300
100600
100E00
101C00
101800
103800
FE7000
006000
00C040
01C0C0
0181C0
030140
070240
060240
0C0440
1C0840
180FF0
300040
700040
E00040
ENDCHAR
STARTCHAR onehalf
ENCODING 189
SWIDTH 602 0
DWIDTH 20 0
BBX 20 25 4 0
BITMAP
100070
F000E0
1000C0
100180
100380
100300
100600
100E00
101C00
101800
103800
FE7000
006000
00C1E0
01C230
018010
030010
070010
060020
0C0060
1C00C0
180180
300100
700300
E003F0
ENDCHAR
STARTCHAR threequarters
ENCODING 190
SWIDTH 602 0
DWIDTH 20 0
BBX 20 25 4 0
BITMAP
F80070
8C00E0
0400C0
040180
080380
700300
0C0600
040E00
041C00
041800
883800
F07000
006000
00C040
01C0C0
0181C0
030140
070240
060240
0C0440
1C0840
180FF0
300040
700040
E00040
ENDCHAR
STARTCHAR questiondown
ENCODING 191
SWIDTH 602 0
DWIDTH 20 0
BBX 15 25 3 -7
BITMAP
01C0
01C0
01C0
0000
0000
0000
0000
01C0
01C0
01C0
0180
0380
0700
0E00
1C00
3800
7000
E000
E000
E000
E006
F006
7806
3FFE
0FF8
ENDCHAR
STARTCHAR Agrave
ENCODING 192
SWIDTH 602 0
DWIDTH 20 0
BBX 20 31 0 0
BITMAP
01E000
00F000
007000
003800
001C00
000000
007000
00F000
00F000
00F800
01B800
01B800
019C00
031C00
031C00
030E00
060E00
060E00
060F00
0C0700
0C0700
0C0780
1FFF80
1FFF80
1803C0
3001C0
3001C0
3000E0
6000E0
6000E0
E00070
ENDCHAR
STARTCHAR Aacute
ENCODING 193
SWIDTH 602 0
DWIDTH 20 0
BBX 20 31 0 0
BITMAP
007800
00F000
00E000
01C000
038000
000000
007000
00F000
00F000
00F800
01B800
01B800
019C00
031C00
031C00
030E00
060E00
060E00
060F00
0C0700
0C0700
0C0780
1FFF80
1FFF80
1803C0
3001C0
3001C0
3000E0
6000E0
6000E0
E00070
ENDCHAR
STARTCHAR Acircumflex
ENCODING 194
SWIDTH 602 0
DWIDTH 20 0
BBX 20 31 0 0
BITMAP
00F800
00F800
01DC00
038E00
070700
000000
007000
00F000
00F000
00F800
01B800
01B800
019C00
031C00
031C00
030E00
060E00
060E00
060F00
0C0700
0C0700
0C0780
1FFF80
1FFF80
1803C0
3001C0
3001C0
3000E0
6000E0
6000E0
E00070
ENDCHAR
STARTCHAR Atilde
ENCODING 195
SWIDTH 602 0
DWIDTH 20 0
BBX 20 29 0 0
BITMAP
03E300
07FF00
063E00
000000
007000
00F000
00F000
00F800
01B800
01B800
019C00
031C00
031C00
030E00
060E00
060E00
060F00
0C0700
0C0700
0C0780
1FFF80
1FFF80
1803C0
3001C0
3001C0
3000E0
6000E0
6000E0
E00070
ENDCHAR
STARTCHAR Adieresis
ENCODING 196
SWIDTH 602 0
DWIDTH 20 0
BBX 20 28 0 0
BITMAP
038E00
038E00
000000
007000
00F000
00F000
00F800
01B800
01B800
019C00
031C00
031C00
030E00
060E00
060E00
060F00
0C0700
0C0700
0C0780
1FFF80
1FFF80
1803C0
3001C0
3001C0
3000E0
6000E0
6000E0
E00070
ENDCHAR
STARTCHAR Aring
ENCODING 197
SWIDTH 602 0
DWIDTH 20 0
BBX 20 31 0 0
BITMAP
007000
00D800
008800
00D800
007000
000000
007000
00F000
00F000
00F800
01B800
01B800
019C00
031C00
031C00
030E00
060E00
060E00
060F00
0C0700
0C0700
0C0780
1FFF80
1FFF80
1803C0
3001C0
3001C0
3000E0
6000E0
6000E0
E00070
ENDCHAR
STARTCHAR AE
ENCODING 198
SWIDTH 602 0
DWIDTH 20 0
BBX 19 25 0 0
BITMAP
007FC0
007FC0
00F800
00F800
00F800
01B800
01B800
01B800
033800
033800
033800
063F80
063F80
0E3800
0C3800
0C3800
1C3800
1FF800
1FF800
303800
303800
303800
603800
603FE0
E03FE0
ENDCHAR
STARTCHAR Ccedilla
ENCODING 199
SWIDTH 602 0
DWIDTH 20 0
BBX 17 32 2 -7
BITMAP
01FE00
07FF80
0F0380
1C0080
380000
380000
700000
700000
F00000
E00000
E00000
E00000
E00000
E00000
E00000
E00000
E00000
700000
700000
380000
3C0000
1E0000
0F8180
07FF80
00FE00
00C000
01C000
00E000
007000
003000
003000
01E000
ENDCHAR
STARTCHAR Egrave
ENCODING 200
SWIDTH 602 0
DWIDTH 20 0
BBX 15 31 4 0
BITMAP
1E00
0F00
0700
0380
01C0
0000
FFFC
FFFC
E000
E000
E000
E000
E000
E000
E000
E000
E000
FFF8
FFF0
E000
E000
E000
E000
E000
E000
E000
E000
E000
E000
FFFE
FFFE
ENDCHAR
STARTCHAR Eacute
ENCODING 201
SWIDTH 602 0
DWIDTH 20 0
BBX 15 31 4 0
BITMAP
03C0
0780
0700
0E00
1C00
0000
FFFC
FFFC
E000
E000
E000
E000
E000
E000
E000
E000
E000
FFF8
FFF0
E000
E000
E000
E000
E000
E000
E000
E000
E000
E000
FFFE
FFFE
ENDCHAR
STARTCHAR Ecircumflex
ENCODING 202
SWIDTH 602 0
DWIDTH 20 0
BBX 15 31 4 0
BITMAP
07C0
07C0
0EE0
1C70
3838
0000
FFFC
FFFC
E000
E000
E000
E000
E000
E000
E000
E000
E000
FFF8
FFF0
E000
E000
E000
E000
E000
E000
E000
E000
E000
E000
FFFE
FFFE
ENDCHAR
STARTCHAR Edieresis
ENCODING 203
SWIDTH 602 0
DWIDTH 20 0
BBX 15 28 4 0
BITMAP
38E0
38E0
0000
FFFC
FFFC
E000
E000
E000
E000
E000
E000
E000
E000
E000
FFF8
FFF0
E000
E000
E000
E000
E000
E000
E000
E000
E000
E000
FFFE
FFFE
ENDCHAR
STARTCHAR Igrave
ENCODING 204
SWIDTH 602 0
DWIDTH 20 0
BBX 15 31 3 0
BITMAP
0F00
0780
0380
01C0
00E0
0000
FFFE
FFFE
0380
0380
0380
0380
0380
0380
0380
0380
0380
0380
0380
0380
0380
0380
0380
0380
0380
0380
0380
0380
0380
FFFE
FFFE
ENDCHAR
STARTCHAR Iacute
ENCODING 205
SWIDTH 602 0
DWIDTH 20 0
BBX 15 31 3 0
BITMAP
01E0
03C0
0380
0700
0E00
0000
FFFE
FFFE
0380
0380
0380
0380
0380
0380
0380
0380
0380
0380
0380
0380
0380
0380
0380
0380
0380
0380
0380
0380
0380
FFFE
FFFE
ENDCHAR
STARTCHAR Icircumflex
ENCODING 206
SWIDTH 602 0
DWIDTH 20 0
BBX 15 31 3 0
BITMAP
07C0
07C0
0EE0
1C70
3838
0000
FFFE
FFFE
0380
0380
0380
0380
0380
0380
0380
0380
0380
0380
0380
0380
0380
0380
0380
0380
0380
0380
0380
0380
0380
FFFE
FFFE
ENDCHAR
STARTCHAR Idieresis
ENCODING 207
SWIDTH 602 0
DWIDTH 20 0
BBX 15 28 3 0
BITMAP
1C70
1C70
0000
FFFE
FFFE
0380
0380
0380
0380
0380
0380
0380
0380
0380
0380
0380
0380
0380
0380
0380
0380
0380
0380
0380
0380
0380
FFFE
FFFE
ENDCHAR
STARTCHAR Eth
ENCODING 208
SWIDTH 602 0
DWIDTH 20 0
BBX 19 25 0 0
BITMAP
3FF800
3FFE00
381F00
380780
3803C0
3801C0
3801C0
3800E0
3800E0
3800E0
3800E0
FF80E0
FF80E0
3800E0
3800E0
3800E0
3800E0
3801C0
3801C0
3801C0
380380
380780
381F00
3FFC00
3FF000
ENDCHAR
STARTCHAR Ntilde
ENCODING 209
SWIDTH 602 0
DWIDTH 20 0
BBX 16 29 2 0
BITMAP
0F8C
1FFC
18F8
0000
E003
F003
F003
F803
F803
FC03
DC03
CE03
CF03
C703
C783
C383
C3C3
C1C3
C1E3
C0E3
C073
C07B
C03B
C03F
C01F
C01F
C00F
C007
C007
ENDCHAR
STARTCHAR Ograve
ENCODING 210
SWIDTH 602 0
DWIDTH 20 0
BBX 18 31 1 0
BITMAP
03C000
01E000
00E000
007000
003800
000000
03F000
0FFC00
1E1E00
380700
380700
700380
700380
700380
E001C0
E001C0
E001C0
E001C0
E001C0
E001C0
E001C0
E001C0
E001C0
700380
700380
700380
380700
3C0F00
1E1E00
0FFC00
03F000
ENDCHAR
STARTCHAR Oacute
ENCODING 211
SWIDTH 602 0
DWIDTH 20 0
BBX 18 31 1 0
BITMAP
00F000
01E000
01C000
038000
070000
000000
03F000
0FFC00
1E1E00
380700
380700
700380
700380
700380
E001C0
E001C0
E001C0
E001C0
E001C0
E001C0
E001C0
E001C0
E001C0
700380
700380
700380
380700
3C0F00
1E1E00
0FFC00
03F000
ENDCHAR
STARTCHAR Ocircumflex
ENCODING 212
SWIDTH 602 0
DWIDTH 20 0
BBX 18 31 1 0
BITMAP
03E000
03E000
077000
0E3800
1C1C00
000000
03F000
0FFC00
1E1E00
380700
380700
700380
700380
700380
E001C0
E001C0
E001C0
E001C0
E001C0
E001C0
E001C0
E001C0
E001C0
700380
700380
700380
380700
3C0F00
1E1E00
0FFC00
03F000
ENDCHAR
STARTCHAR Otilde
ENCODING 213
SWIDTH 602 0
DWIDTH 20 0
BBX 18 29 1 0
BITMAP
0F8C00
1FFC00
18F800
000000
03F000
0FFC00
1E1E00
380700
380700
700380
700380
700380
E001C0
E001C0
E001C0
E001C0
E001C0
E001C0
E001C0
E001C0
E001C0
700380
700380
700380
380700
3C0F00
1E1E00
0FFC00
03F000
ENDCHAR
STARTCHAR Odieresis
ENCODING 214
SWIDTH 602 0
DWIDTH 20 0
BBX 18 28 1 0
BITMAP
071C00
071C00
000000
03F000
0FFC00
1E1E00
380700
380700
700380
700380
700380
E001C0
E001C0
E001C0
E001C0
E001C0
E001C0
E001C0
E001C0
E001C0
700380
700380
700380
380700
3C0F00
1E1E00
0FFC00
03F000
ENDCHAR
STARTCHAR multiply
ENCODING 215
SWIDTH 602 0
DWIDTH 20 0
BBX 18 18 1 0
BITMAP
400080
E001C0
700380
380700
1C0E00
0E1C00
073800
03F000
01E000
01E000
03F000
073800
0E1C00
1C0E00
380700
700380
E001C0
400080
ENDCHAR
STARTCHAR Oslash
ENCODING 216
SWIDTH 602 0
DWIDTH 20 0
BBX 18 25 1 0
BITMAP
03F1C0
0FFF80
1E1F80
3C0700
380780
700F80
700F80
701BC0
E039C0
E031C0
E061C0
E0E1C0
E0C1C0
E181C0
E381C0
E301C0
E701C0
F60380
7C0380
7C0380
780700
380F00
7E1E00
7FFC00
E3F000
ENDCHAR
STARTCHAR Ugrave
ENCODING 217
SWIDTH 602 0
DWIDTH 20 0
BBX 15 31 3 0
BITMAP
0F00
0780
0380
01C0
00E0
0000
E006
E006
E006
E006
E006
E006
E006
E006
E006
E006
E006
E006
E006
E006
E006
E006
E006
E006
E006
E006
F00C
700C
781C
3FF8
0FE0
ENDCHAR
STARTCHAR Uacute
ENCODING 218
SWIDTH 602 0
DWIDTH 20 0
BBX 15 31 3 0
BITMAP
01E0
03C0
0380
0700
0E00
0000
E006
E006
E006
E006
E006
E006
E006
E006
E006
E006
E006
E006
E006
E006
E006
E006
E006
E006
E006
E006
F00C
700C
781C
3FF8
0FE0
ENDCHAR
STARTCHAR Ucircumflex
ENCODING 219
SWIDTH 602 0
DWIDTH 20 0
BBX 15 31 3 0
BITMAP
07C0
07C0
0EE0
1C70
3838
0000
E006
E006
E006
E006
E006
E006
E006
E006
E006
E006
E006
E006
E006
E006
E006
E006
E006
E006
E006
E006
F00C
700C
781C
3FF8
0FE0
ENDCHAR
STARTCHAR Udieresis
ENCODING 220
SWIDTH 602 0
DWIDTH 20 0
BBX 15 28 3 0
BITMAP
1C70
1C70
0000
E006
E006
E006
E006
E006
E006
E006
E006
E006
E006
E006
E006
E006
E006
E006
E006
E006
E006
E006
E006
F00C
700C
781C
3FF8
0FE0
ENDCHAR
STARTCHAR Yacute
ENCODING 221
SWIDTH 602 0
DWIDTH 20 0
BBX 20 31 0 0
BITMAP
007800
00F000
00E000
01C000
038000
000000
F00070
7000E0
3800C0
3C01C0
1C0380
1E0300
0E0700
0F0600
070C00
078C00
03D800
01F800
01F000
00E000
00E000
00E000
00E000
00E000
00E000
00E000
00E000
00E000
00E000
00E000
00E000
ENDCHAR
STARTCHAR Thorn
ENCODING 222
SWIDTH 602 0
DWIDTH 20 0
BBX 15 25 4 0
BITMAP
E000
E000
E000
E000
E000
FFE0
FFF8
E03C
E01E
E00E
E00E
E00E
E00E
E00E
E01C
E01C
E078
FFF0
FF80
E000
E000
E000
E000
E000
E000
ENDCHAR
STARTCHAR germandbls
ENCODING 223
SWIDTH 602 0
DWIDTH 20 0
BBX 16 27 3 0
BITMAP
1F80
3FE0
70F0
6070
E070
E070
E070
E0E0
E0C0
E180
E300
E300
E300
E380
E1C0
E1F0
E0F8
E07C
E01E
E00F
E00F
E007
E007
E007
E60E
E7FE
E3F8
ENDCHAR
STARTCHAR agrave
ENCODING 224
SWIDTH 602 0
DWIDTH 20 0
BBX 17 24 2 0
BITMAP
078000
03C000
01C000
00E000
007000
000000
0FE000
3FF800
303800
201C00
001C00
001C00
001C00
07FC00
1FFC00
7C1C00
701C00
E01C00
E01C00
E01C00
E03C00
707C00
7FEF80
1F8F80
ENDCHAR
STARTCHAR aacute
ENCODING 225
SWIDTH 602 0
DWIDTH 20 0
BBX 17 24 2 0
BITMAP
01E000
03C000
038000
070000
0E0000
000000
0FE000
3FF800
303800
201C00
001C00
001C00
001C00
07FC00
1FFC00
7C1C00
701C00
E01C00
E01C00
E01C00
E03C00
707C00
7FEF80
1F8F80
ENDCHAR
STARTCHAR acircumflex
ENCODING 226
SWIDTH 602 0
DWIDTH 20 0
BBX 17 24 2 0
BITMAP
07C000
07C000
0EE000
1C7000
383800
000000
0FE000
3FF800
303800
201C00
001C00
001C00
001C00
07FC00
1FFC00
7C1C00
701C00
E01C00
E01C00
E01C00
E03C00
707C00
7FEF80
1F8F80
ENDCHAR
STARTCHAR atilde
ENCODING 227
SWIDTH 602 0
DWIDTH 20 0
BBX 17 22 2 0
BITMAP
1F1800
3FF800
31F000
000000
0FE000
3FF800
303800
201C00
001C00
001C00
001C00
07FC00
1FFC00
7C1C00
701C00
E01C00
E01C00
E01C00
E03C00
707C00
7FEF80
1F8F80
ENDCHAR
STARTCHAR adieresis
ENCODING 228
SWIDTH 602 0
DWIDTH 20 0
BBX 17 21 2 0
BITMAP
1C7000
1C7000
000000
0FE000
3FF800
303800
201C00
001C00
001C00
001C00
07FC00
1FFC00
7C1C00
701C00
E01C00
E01C00
E01C00
E03C00
707C00
7FEF80
1F8F80
ENDCHAR
STARTCHAR aring
ENCODING 229
SWIDTH 602 0
DWIDTH 20 0
BBX 17 24 2 0
BITMAP
038000
06C000
044000
06C000
038000
000000
0FE000
3FF800
303800
201C00
001C00
001C00
001C00
07FC00
1FFC00
7C1C00
701C00
E01C00
E01C00
E01C00
E03C00
707C00
7FEF80
1F8F80
ENDCHAR
STARTCHAR ae
ENCODING 230
SWIDTH 602 0
DWIDTH 20 0
BBX 19 18 1 0
BITMAP
3F9F00
3FFF80
21F9C0
00F0C0
00E0E0
00E0E0
00E0E0
0FFFE0
3FFFE0
78E000
F0E000
E0E000
E0E000
E0E000
E0F000
71F860
7F7FE0
1E1F80
ENDCHAR
STARTCHAR ccedilla
ENCODING 231
SWIDTH 602 0
DWIDTH 20 0
BBX 15 25 3 -7
BITMAP
03FC
0FFE
3E06
7800
7000
F000
E000
E000
E000
E000
E000
E000
7000
7000
3800
3E06
0FFE
03FC
0300
0700
0380
01C0
00C0
00C0
0780
ENDCHAR
STARTCHAR egrave
ENCODING 232
SWIDTH 602 0
DWIDTH 20 0
BBX 16 24 2 0
BITMAP
0780
03C0
01C0
00E0
0070
0000
03F0
0FFC
1C1E
380E
700E
7007
E007
E007
FFFF
FFFF
E000
E000
6000
7000
3800
1C03
0FFF
03FC
ENDCHAR
STARTCHAR eacute
ENCODING 233
SWIDTH 602 0
DWIDTH 20 0
BBX 16 24 2 0
BITMAP
01E0
03C0
0380
0700
0E00
0000
03F0
0FFC
1C1E
380E
700E
7007
E007
E007
FFFF
FFFF
E000
E000
6000
7000
3800
1C03
0FFF
03FC
ENDCHAR
STARTCHAR ecircumflex
ENCODING 234
SWIDTH 602 0
DWIDTH 20 0
BBX 16 24 2 0
BITMAP
07C0
07C0
0EE0
1C70
3838
0000
03F0
0FFC
1C1E
380E
700E
7007
E007
E007
FFFF
FFFF
E000
E000
6000
7000
3800
1C03
0FFF
03FC
ENDCHAR
STARTCHAR edieresis
ENCODING 235
SWIDTH 602 0
DWIDTH 20 0
BBX 16 21 2 0
BITMAP
1C70
1C70
0000
03F0
0FFC
1C1E
380E
700E
7007
E007
E007
FFFF
FFFF
E000
E000
6000
7000
3800
1C03
0FFF
03FC
ENDCHAR
STARTCHAR igrave
ENCODING 236
SWIDTH 602 0
DWIDTH 20 0
BBX 11 24 3 0
BITMAP
0F00
0780
0380
01C0
00E0
0000
FFC0
FFC0
01C0
01C0
01C0
01C0
01C0
01C0
01C0
01C0
01C0
01C0
01C0
01C0
01C0
01C0
01C0
01C0
ENDCHAR
STARTCHAR iacute
ENCODING 237
SWIDTH 602 0
DWIDTH 20 0
BBX 11 24 3 0
BITMAP
01E0
03C0
0380
0700
0E00
0000
FFC0
FFC0
01C0
01C0
01C0
01C0
01C0
01C0
01C0
01C0
01C0
01C0
01C0
01C0
01C0
01C0
01C0
01C0
ENDCHAR
STARTCHAR icircumflex
ENCODING 238
SWIDTH 602 0
DWIDTH 20 0
BBX 13 24 3 0
BITMAP
07C0
07C0
0EE0
1C70
3838
0000
FFC0
FFC0
01C0
01C0
01C0
01C0
01C0
01C0
01C0
01C0
01C0
01C0
01C0
01C0
01C0
01C0
01C0
01C0
ENDCHAR
STARTCHAR idieresis
ENCODING 239
SWIDTH 602 0
DWIDTH 20 0
BBX 12 21 3 0
BITMAP
1C70
1C70
0000
FFC0
FFC0
01C0
01C0
01C0
01C0
01C0
01C0
01C0
01C0
01C0
01C0
01C0
01C0
01C0
01C0
01C0
01C0
ENDCHAR
STARTCHAR eth
ENCODING 240
SWIDTH 602 0
DWIDTH 20 0
BBX 17 26 2 0
BITMAP
FC6000
FFF000
0FF000
07E000
1FF000
387800
303C00
001C00
03FE00
0FFE00
3C1F00
380F00
700780
700780
E00380
E00380
E00380
E00380
E00380
E00380
700700
700700
380E00
3C1E00
1FF800
07F000
ENDCHAR
STARTCHAR ntilde
ENCODING 241
SWIDTH 602 0
DWIDTH 20 0
BBX 15 22 3 0
BITMAP
1F18
3FF8
31F0
0000
E1F0
E7F8
EFFC
FC1E
F80E
F00E
E00E
E00E
E00E
E00E
E00E
E00E
E00E
E00E
E00E
E00E
E00E
E00E
ENDCHAR
STARTCHAR ograve
ENCODING 242
SWIDTH 602 0
DWIDTH 20 0
BBX 17 24 2 0
BITMAP
078000
03C000
01C000
00E000
007000
000000
07F000
1FFC00
3C1E00
780F00
700700
F00780
E00380
E00380
E00380
E00380
E00380
E00380
F00780
700700
780F00
3C1E00
1FFC00
07F000
ENDCHAR
STARTCHAR oacute
ENCODING 243
SWIDTH 602 0
DWIDTH 20 0
BBX 17 24 2 0
BITMAP
00F000
01E000
01C000
038000
070000
000000
07F000
1FFC00
3C1E00
780F00
700700
F00780
E00380
E00380
E00380
E00380
E00380
E00380
F00780
700700
780F00
3C1E00
1FFC00
07F000
ENDCHAR
STARTCHAR ocircumflex
ENCODING 244
SWIDTH 602 0
DWIDTH 20 0
BBX 17 24 2 0
BITMAP
03E000
03E000
077000
0E3800
1C1C00
000000
07F000
1FFC00
3C1E00
780F00
700700
F00780
E00380
E00380
E00380
E00380
E00380
E00380
F00780
700700
780F00
3C1E00
1FFC00
07F000
ENDCHAR
STARTCHAR otilde
ENCODING 245
SWIDTH 602 0
DWIDTH 20 0
BBX 17 22 2 0
BITMAP
0F8C00
1FFC00
18F800
000000
07F000
1FFC00
3C1E00
780F00
700700
F00780
E00380
E00380
E00380
E00380
E00380
E00380
F00780
700700
780F00
3C1E00
1FFC00
07F000
ENDCHAR
STARTCHAR odieresis
ENCODING 246
SWIDTH 602 0
DWIDTH 20 0
BBX 17 21 2 0
BITMAP
0E3800
0E3800
000000
07F000
1FFC00
3C1E00
780F00
700700
F00780
E00380
E00380
E00380
E00380
E00380
E00380
F00780
700700
780F00
3C1E00
1FFC00
07F000
ENDCHAR
STARTCHAR divide
ENCODING 247
SWIDTH 602 0
DWIDTH 20 0
BBX 17 18 2 0
BITMAP
01C000
01C000
01C000
000000
000000
000000
000000
000000
FFFF80
FFFF80
000000
000000
000000
000000
000000
01C000
01C000
01C000
ENDCHAR
STARTCHAR oslash
ENCODING 248
SWIDTH 602 0
DWIDTH 20 0
BBX 17 18 2 0
BITMAP
07F780
1FFF00
3C1F00
780F00
701F00
F03F80
E07380
E0E380
E0C380
E18380
E38380
E70380
FE0780
7C0700
780F00
7C1E00
7FFC00
F7F000
ENDCHAR
STARTCHAR ugrave
ENCODING 249
SWIDTH 602 0
DWIDTH 20 0
BBX 15 24 3 0
BITMAP
0F00
0780
0380
01C0
00E0
0000
E00E
E00E
E00E
E00E
E00E
E00E
E00E
E00E
E00E
E00E
E00E
E00E
E01E
E03E
F07E
7FEE
3FCE
1F0E
ENDCHAR
STARTCHAR uacute
ENCODING 250
SWIDTH 602 0
DWIDTH 20 0
BBX 15 24 3 0
BITMAP
01E0
03C0
0380
0700
0E00
0000
E00E
E00E
E00E
E00E
E00E
E00E
E00E
E00E
E00E
E00E
E00E
E00E
E01E
E03E
F07E
7FEE
3FCE
1F0E
ENDCHAR
STARTCHAR ucircumflex
ENCODING 251
SWIDTH 602 0
DWIDTH 20 0
BBX 15 24 3 0
BITMAP
07C0
07C0
0EE0
1C70
3838
0000
E00E
E00E
E00E
E00E
E00E
E00E
E00E
E00E
E00E
E00E
E00E
E00E
E01E
E03E
F07E
7FEE
3FCE
1F0E
ENDCHAR
STARTCHAR udieresis
ENCODING 252
SWIDTH 602 0
DWIDTH 20 0
BBX 15 21 3 0
BITMAP
1C70
1C70
0000
E00E
E00E
E00E
E00E
E00E
E00E
E00E
E00E
E00E
E00E
E00E
E00E
E01E
E03E
F07E
7FEE
3FCE
1F0E
ENDCHAR
STARTCHAR yacute
ENCODING 253
SWIDTH 602 0
DWIDTH 20 0
BBX 18 31 1 -7
BITMAP
00F000
01E000
01C000
038000
070000
000000
F001C0
700180
700380
380300
380300
3C0600
1C0600
1C0C00
0E0C00
0E1C00
0F1800
071800
073000
03B000
03E000
01E000
01E000
01C000
01C000
018000
018000
030000
070000
7E0000
780000
ENDCHAR
STARTCHAR thorn
ENCODING 254
SWIDTH 602 0
DWIDTH 20 0
BBX 16 31 3 -7
BITMAP
E000
E000
E000
E000
E000
E000
E3F0
E7F8
EE1C
F80E
F00E
E007
E007
E007
E007
E007
E007
E007
E00E
E00E
F01C
FC3C
EFF8
E7E0
E000
E000
E000
E000
E000
E000
E000
ENDCHAR
STARTCHAR ydieresis
ENCODING 255
SWIDTH 602 0
DWIDTH 20 0
BBX 18 28 1 -7
BITMAP
0E3800
0E3800
000000
F001C0
700180
700380
380300
380300
3C0600
1C0600
1C0C00
0E0C00
0E1C00
0F1800
071800
073000
03B000
03E000
01E000
01E000
01C000
01C000
018000
018000
030000
070000
7E0000
780000
ENDCHAR
STARTCHAR Amacron
ENCODING 256
SWIDTH 602 0
DWIDTH 20 0
BBX 20 28 0 0
BITMAP
03FE00
03FE00
000000
007000
00F000
00F000
00F800
01B800
01B800
019C00
031C00
031C00
030E00
060E00
060E00
060F00
0C0700
0C0700
0C0780
1FFF80
1FFF80
1803C0
3001C0
3001C0
3000E0
6000E0
6000E0
E00070
ENDCHAR
STARTCHAR amacron
ENCODING 257
SWIDTH 602 0
DWIDTH 20 0
BBX 17 21 2 0
BITMAP
0FF800
0FF800
000000
0FE000
3FF800
303800
201C00
001C00
001C00
001C00
07FC00
1FFC00
7C1C00
701C00
E01C00
E01C00
E01C00
E03C00
707C00
7FEF80
1F8F80
ENDCHAR
STARTCHAR Abreve
ENCODING 258
SWIDTH 602 0
DWIDTH 20 0
BBX 20 31 0 0
BITMAP
060300
070700
038E00
01FC00
00F800
000000
007000
00F000
00F000
00F800
01B800
01B800
019C00
031C00
031C00
030E00
060E00
060E00
060F00
0C0700
0C0700
0C0780
1FFF80
1FFF80
1803C0
3001C0
3001C0
3000E0
6000E0
6000E0
E00070
ENDCHAR
STARTCHAR abreve
ENCODING 259
SWIDTH 602 0
DWIDTH 20 0
BBX 17 24 2 0
BITMAP
180C00
1C1C00
0E3800
07F000
03E000
000000
0FE000
3FF800
303800
201C00
001C00
001C00
001C00
07FC00
1FFC00
7C1C00
701C00
E01C00
E01C00
E01C00
E03C00
707C00
7FEF80
1F8F80
ENDCHAR
STARTCHAR Aogonek
ENCODING 260
SWIDTH 602 0
DWIDTH 20 0
BBX 20 32 0 -7
BITMAP
007000
00F000
00F000
00F800
01B800
01B800
019C00
031C00
031C00
030E00
060E00
060E00
060F00
0C0700
0C0700
0C0780
1FFF80
1FFF80
1803C0
3001C0
3001C0
3000E0
6000E0
6000E0
E00070
003000
006000
00C000
00C000
00C000
00F800
007800
ENDCHAR
STARTCHAR aogonek
ENCODING 261
SWIDTH 602 0
DWIDTH 20 0
BBX 17 25 2 -7
BITMAP
0FE000
3FF800
303800
201C00
001C00
001C00
001C00
07FC00
1FFC00
7C1C00
701C00
E01C00
E01C00
E01C00
E03C00
707C00
7FEF80
1F8F80
00C000
018000
030000
030000
030000
03E000
01E000
ENDCHAR
STARTCHAR Cacute
ENCODING 262
SWIDTH 602 0
DWIDTH 20 0
BBX 17 31 2 0
BITMAP
007800
00F000
00E000
01C000
038000
000000
01FE00
07FF80
0F0380
1C0080
380000
380000
700000
700000
F00000
E00000
E00000
E00000
E00000
E00000
E00000
E00000
E00000
700000
700000
380000
3C0000
1E0000
0F8180
07FF80
00FE00
ENDCHAR
STARTCHAR cacute
ENCODING 263
SWIDTH 602 0
DWIDTH 20 0
BBX 15 24 3 0
BITMAP
00F0
01E0
01C0
0380
0700
0000
03FC
0FFE
3E06
7800
7000
F000
E000
E000
E000
E000
E000
E000
7000
7000
3800
3E06
0FFE
03FC
ENDCHAR
STARTCHAR Ccircumflex
ENCODING 264
SWIDTH 602 0
DWIDTH 20 0
BBX 17 31 2 0
BITMAP
03E000
03E000
077000
0E3800
1C1C00
000000
01FE00
07FF80
0F0380
1C0080
380000
380000
700000
700000
F00000
E00000
E00000
E00000
E00000
E00000
E00000
E00000
E00000
700000
700000
380000
3C0000
1E0000
0F8180
07FF80
00FE00
ENDCHAR
STARTCHAR ccircumflex
ENCODING 265
SWIDTH 602 0
DWIDTH 20 0
BBX 15 24 3 0
BITMAP
07C0
07C0
0EE0
1C70
3838
0000
03FC
0FFE
3E06
7800
7000
F000
E000
E000
E000
E000
E000
E000
7000
7000
3800
3E06
0FFE
03FC
ENDCHAR
STARTCHAR Cdotaccent
ENCODING 266
SWIDTH 602 0
DWIDTH 20 0
BBX 17 29 2 0
BITMAP
01C000
01C000
01C000
000000
01FE00
07FF80
0F0380
1C0080
380000
380000
700000
700000
F00000
E00000
E00000
E00000
E00000
E00000
E00000
E00000
E00000
700000
700000
380000
3C0000
1E0000
0F8180
07FF80
00FE00
ENDCHAR
STARTCHAR cdotaccent
ENCODING 267
SWIDTH 602 0
DWIDTH 20 0
BBX 15 22 3 0
BITMAP
0380
0380
0380
0000
03FC
0FFE
3E06
7800
7000
F000
E000
E000
E000
E000
E000
E000
7000
7000
3800
3E06
0FFE
03FC
ENDCHAR
STARTCHAR Ccaron
ENCODING 268
SWIDTH 602 0
DWIDTH 20 0
BBX 17 31 2 0
BITMAP
1C1C00
0E3800
077000
03E000
03E000
000000
01FE00
07FF80
0F0380
1C0080
380000
380000
700000
700000
F00000
E00000
E00000
E00000
E00000
E00000
E00000
E00000
E00000
700000
700000
380000
3C0000
1E0000
0F8180
07FF80
00FE00
ENDCHAR
STARTCHAR ccaron
ENCODING 269
SWIDTH 602 0
DWIDTH 20 0
BBX 15 24 3 0
BITMAP
3838
1C70
0EE0
07C0
07C0
0000
03FC
0FFE
3E06
7800
7000
F000
E000
E000
E000
E000
E000
E000
7000
7000
3800
3E06
0FFE
03FC
ENDCHAR
STARTCHAR Dcaron
ENCODING 270
SWIDTH 602 0
DWIDTH 20 0
BBX 17 31 2 0
BITMAP
383800
1C7000
0EE000
07C000
07C000
000000
FFE000
FFF800
E07C00
E01E00
E00F00
E00700
E00700
E00380
E00380
E00380
E00380
E00380
E00380
E00380
E00380
E00380
E00380
E00700
E00700
E00700
E00E00
E01E00
E07C00
FFF000
FFC000
ENDCHAR
STARTCHAR dcaron
ENCODING 271
SWIDTH 602 0
DWIDTH 20 0
BBX 18 32 2 0
BITMAP
01C1C0
00E380
007700
003E00
003E00
000000
000700
000700
000700
000700
000700
000700
000700
000700
07E700
1FF700
3C3F00
380F00
700700
700700
E00700
E00700
E00700
E00700
E00700
E00700
E00700
700F00
701F00
387700
1FE700
0FC700
ENDCHAR
STARTCHAR Dcroat
ENCODING 272
SWIDTH 602 0
DWIDTH 20 0
BBX 19 25 0 0
BITMAP
3FF800
3FFE00
381F00
380780
3803C0
3801C0
3801C0
3800E0
3800E0
3800E0
3800E0
FF80E0
FF80E0
3800E0
3800E0
3800E0
3800E0
3801C0
3801C0
3801C0
380380
380780
381F00
3FFC00
3FF000
ENDCHAR
STARTCHAR dcroat
ENCODING 273
SWIDTH 602 0
DWIDTH 20 0
BBX 20 26 2 0
BITMAP
000700
000700
000700
000700
000700
000700
07FFF0
07FFF0
07E700
1FF700
3C3F00
380F00
700700
700700
E00700
E00700
E00700
E00700
E00700
E00700
E00700
700F00
701F00
387700
1FE700
0FC700
ENDCHAR
STARTCHAR Emacron
ENCODING 274
SWIDTH 602 0
DWIDTH 20 0
BBX 15 28 4 0
BITMAP
7FC0
7FC0
0000
FFFC
FFFC
E000
E000
E000
E000
E000
E000
E000
E000
E000
FFF8
FFF0
E000
E000
E000
E000
E000
E000
E000
E000
E000
E000
FFFE
FFFE
ENDCHAR
STARTCHAR emacron
ENCODING 275
SWIDTH 602 0
DWIDTH 20 0
BBX 16 21 2 0
BITMAP
0FF8
0FF8
0000
03F0
0FFC
1C1E
380E
700E
7007
E007
E007
FFFF
FFFF
E000
E000
6000
7000
3800
1C03
0FFF
03FC
ENDCHAR
STARTCHAR Ebreve
ENCODING 276
SWIDTH 602 0
DWIDTH 20 0
BBX 15 31 4 0
BITMAP
C060
E0E0
71C0
3F80
1F00
0000
FFFC
FFFC
E000
E000
E000
E000
E000
E000
E000
E000
E000
FFF8
FFF0
E000
E000
E000
E000
E000
E000
E000
E000
E000
E000
FFFE
FFFE
ENDCHAR
STARTCHAR ebreve
ENCODING 277
SWIDTH 602 0
DWIDTH 20 0
BBX 16 24 2 0
BITMAP
180C
1C1C
0E38
07F0
03E0
0000
03F0
0FFC
1C1E
380E
700E
7007
E007
E007
FFFF
FFFF
E000
E000
6000
7000
3800
1C03
0FFF
03FC
ENDCHAR
STARTCHAR Edotaccent
ENCODING 278
SWIDTH 602 0
DWIDTH 20 0
BBX 15 29 4 0
BITMAP
0E00
0E00
0E00
0000
FFFC
FFFC
E000
E000
E000
E000
E000
E000
E000
E000
E000
FFF8
FFF0
E000
E000
E000
E000
E000
E000
E000
E000
E000
E000
FFFE
FFFE
ENDCHAR
STARTCHAR edotaccent
ENCODING 279
SWIDTH 602 0
DWIDTH 20 0
BBX 16 22 2 0
BITMAP
01C0
01C0
01C0
0000
03F0
0FFC
1C1E
380E
700E
7007
E007
E007
FFFF
FFFF
E000
E000
6000
7000
3800
1C03
0FFF
03FC
ENDCHAR
STARTCHAR Eogonek
ENCODING 280
SWIDTH 602 0
DWIDTH 20 0
BBX 15 32 4 -7
BITMAP
FFFC
FFFC
E000
E000
E000
E000
E000
E000
E000
E000
E000
FFF8
FFF0
E000
E000
E000
E000
E000
E000
E000
E000
E000
E000
FFFE
FFFE
0300
0600
0C00
0C00
0C00
0F80
0780
ENDCHAR
STARTCHAR eogonek
ENCODING 281
SWIDTH 602 0
DWIDTH 20 0
BBX 16 25 2 -7
BITMAP
03F0
0FFC
1C1E
380E
700E
7007
E007
E007
FFFF
FFFF
E000
E000
6000
7000
3800
1C03
0FFF
03FC
00C0
0180
0300
0300
0300
03E0
01E0
ENDCHAR
STARTCHAR Ecaron
ENCODING 282
SWIDTH 602 0
DWIDTH 20 0
BBX 15 31 4 0
BITMAP
E0E0
71C0
3B80
1F00
1F00
0000
FFFC
FFFC
E000
E000
E000
E000
E000
E000
E000
E000
E000
FFF8
FFF0
E000
E000
E000
E000
E000
E000
E000
E000
E000
E000
FFFE
FFFE
ENDCHAR
STARTCHAR ecaron
ENCODING 283
SWIDTH 602 0
DWIDTH 20 0
BBX 16 24 2 0
BITMAP
1C1C
0E38
0770
03E0
03E0
0000
03F0
0FFC
1C1E
380E
700E
7007
E007
E007
FFFF
FFFF
E000
E000
6000
7000
3800
1C03
0FFF
03FC
ENDCHAR
STARTCHAR Gcircumflex
ENCODING 284
SWIDTH 602 0
DWIDTH 20 0
BBX 17 31 1 0
BITMAP
03E000
03E000
077000
0E3800
1C1C00
000000
01FF00
07FF80
0F0180
1C0000
380000
380000
700000
700000
E00000
E00000
E00000
E00000
E00000
E00000
E00380
E00380
F00380
700380
700380
380380
3C0380
1E0380
0F8380
07FF80
00FE00
ENDCHAR
STARTCHAR gcircumflex
ENCODING 285
SWIDTH 602 0
DWIDTH 20 0
BBX 16 31 2 -7
BITMAP
03E0
03E0
0770
0E38
1C1C
0000
07E3
1FFB
3C3F
380F
7007
7007
E007
E007
E007
E007
E007
E007
E007
700F
701F
3877
1FE7
0FC7
0007
0007
0006
000E
301C
3FF8
1FE0
ENDCHAR
STARTCHAR Gbreve
ENCODING 286
SWIDTH 602 0
DWIDTH 20 0
BBX 17 31 1 0
BITMAP
180C00
1C1C00
0E3800
07F000
03E000
000000
01FF00
07FF80
0F0180
1C0000
380000
380000
700000
700000
E00000
E00000
E00000
E00000
E00000
E00000
E00380
E00380
F00380
700380
700380
380380
3C0380
1E0380
0F8380
07FF80
00FE00
ENDCHAR
STARTCHAR gbreve
ENCODING 287
SWIDTH 602 0
DWIDTH 20 0
BBX 16 31 2 -7
BITMAP
180C
1C1C
0E38
07F0
03E0
0000
07E3
1FFB
3C3F
380F
7007
7007
E007
E007
E007
E007
E007
E007
E007
700F
701F
3877
1FE7
0FC7
0007
0007
0006
000E
301C
3FF8
1FE0
ENDCHAR
STARTCHAR Gdotaccent
ENCODING 288
SWIDTH 602 0
DWIDTH 20 0
BBX 17 29 1 0
BITMAP
01C000
01C000
01C000
000000
01FF00
07FF80
0F0180
1C0000
380000
380000
700000
700000
E00000
E00000
E00000
E00000
E00000
E00000
E00380
E00380
F00380
700380
700380
380380
3C0380
1E0380
0F8380
07FF80
00FE00
ENDCHAR
STARTCHAR gdotaccent
ENCODING 289
SWIDTH 602 0
DWIDTH 20 0
BBX 16 29 2 -7
BITMAP
01C0
01C0
01C0
0000
07E3
1FFB
3C3F
380F
7007
7007
E007
E007
E007
E007
E007
E007
E007
700F
701F
3877
1FE7
0FC7
0007
0007
0006
000E
301C
3FF8
1FE0
ENDCHAR
STARTCHAR Gcommaaccent
ENCODING 290
SWIDTH 602 0
DWIDTH 20 0
BBX 17 37 1 -12
BITMAP
01FF00
07FF80
0F0180
1C0000
380000
380000
700000
700000
E00000
E00000
E00000
E00000
E00000
E00000
E00380
E00380
F00380
700380
700380
380380
3C0380
1E0380
0F8380
07FF80
00FE00
000000
01F000
01F000
01F000
01F000
01F000
003000
003000
007000
006000
00E000
018000
ENDCHAR
STARTCHAR gcommaaccent
ENCODING 291
SWIDTH 602 0
DWIDTH 20 0
BBX 16 36 2 -7
BITMAP
00E0
01C0
0180
0380
0300
03E0
03E0
03E0
03E0
03E0
0000
07E3
1FFB
3C3F
380F
7007
7007
E007
E007
E007
E007
E007
E007
E007
700F
701F
3877
1FE7
0FC7
0007
0007
0006
000E
301C
3FF8
1FE0
ENDCHAR
STARTCHAR Hcircumflex
ENCODING 292
SWIDTH 602 0
DWIDTH 20 0
BBX 16 31 2 0
BITMAP
03E0
03E0
0770
0E38
1C1C
0000
E007
E007
E007
E007
E007
E007
E007
E007
E007
E007
E007
FFFF
FFFF
E007
E007
E007
E007
E007
E007
E007
E007
E007
E007
E007
E007
ENDCHAR
STARTCHAR hcircumflex
ENCODING 293
SWIDTH 602 0
DWIDTH 20 0
BBX 17 32 1 0
BITMAP
1F0000
1F0000
3B8000
71C000
E0E000
000000
380000
380000
380000
380000
380000
380000
380000
380000
387C00
39FE00
3BFF00
3F0780
3E0380
3C0380
380380
380380
380380
380380
380380
380380
380380
380380
380380
380380
380380
380380
ENDCHAR
STARTCHAR Hbar
ENCODING 294
SWIDTH 602 0
DWIDTH 20 0
BBX 16 25 2 0
BITMAP
E007
E007
E007
E007
E007
E007
FFFF
FFFF
E007
E007
E007
FFFF
FFFF
E007
E007
E007
E007
E007
E007
E007
E007
E007
E007
E007
E007
ENDCHAR
STARTCHAR hbar
ENCODING 295
SWIDTH 602 0
DWIDTH 20 0
BBX 18 26 0 0
BITMAP
1C0000
1C0000
1C0000
1C0000
1C0000
1C0000
FFFE00
FFFE00
1C3E00
1CFF00
1DFF80
1F83C0
1F01C0
1E01C0
1C01C0
1C01C0
1C01C0
1C01C0
1C01C0
1C01C0
1C01C0
1C01C0
1C01C0
1C01C0
1C01C0
1C01C0
ENDCHAR
STARTCHAR Itilde
ENCODING 296
SWIDTH 602 0
DWIDTH 20 0
BBX 15 29 3 0
BITMAP
1F18
3FF8
31F0
0000
FFFE
FFFE
0380
0380
0380
0380
0380
0380
0380
0380
0380
0380
0380
0380
0380
0380
0380
0380
0380
0380
0380
0380
0380
FFFE
FFFE
ENDCHAR
STARTCHAR itilde
ENCODING 297
SWIDTH 602 0
DWIDTH 20 0
BBX 11 22 3 0
BITMAP
7C60
FFE0
C7C0
0000
FFC0
FFC0
01C0
01C0
01C0
01C0
01C0
01C0
01C0
01C0
01C0
01C0
01C0
01C0
01C0
01C0
01C0
01C0
ENDCHAR
STARTCHAR Imacron
ENCODING 298
SWIDTH 602 0
DWIDTH 20 0
BBX 15 28 3 0
BITMAP
1FF0
1FF0
0000
FFFE
FFFE
0380
0380
0380
0380
0380
0380
0380
0380
0380
0380
0380
0380
0380
0380
0380
0380
0380
0380
0380
0380
0380
FFFE
FFFE
ENDCHAR
STARTCHAR imacron
ENCODING 299
SWIDTH 602 0
DWIDTH 20 0
BBX 10 21 3 0
BITMAP
7FC0
7FC0
0000
FFC0
FFC0
01C0
01C0
01C0
01C0
01C0
01C0
01C0
01C0
01C0
01C0
01C0
01C0
01C0
01C0
01C0
01C0
ENDCHAR
STARTCHAR Ibreve
ENCODING 300
SWIDTH 602 0
DWIDTH 20 0
BBX 15 31 3 0
BITMAP
3018
3838
1C70
0FE0
07C0
0000
FFFE
FFFE
0380
0380
0380
0380
0380
0380
0380
0380
0380
0380
0380
0380
0380
0380
0380
0380
0380
0380
0380
0380
0380
FFFE
FFFE
ENDCHAR
STARTCHAR ibreve
ENCODING 301
SWIDTH 602 0
DWIDTH 20 0
BBX 11 24 3 0
BITMAP
C060
E0E0
71C0
3F80
1F00
0000
FFC0
FFC0
01C0
01C0
01C0
01C0
01C0
01C0
01C0
01C0
01C0
01C0
01C0
01C0
01C0
01C0
01C0
01C0
ENDCHAR
STARTCHAR Iogonek
ENCODING 302
SWIDTH 602 0
DWIDTH 20 0
BBX 15 32 3 -7
BITMAP
FFFE
FFFE
0380
0380
0380
0380
0380
0380
0380
0380
0380
0380
0380
0380
0380
0380
0380
0380
0380
0380
0380
0380
0380
FFFE
FFFE
0180
0300
0600
0600
0600
07C0
03C0
ENDCHAR
STARTCHAR iogonek
ENCODING 303
SWIDTH 602 0
DWIDTH 20 0
BBX 10 33 3 -7
BITMAP
01C0
01C0
01C0
01C0
0000
0000
0000
0000
FFC0
FFC0
01C0
01C0
01C0
01C0
01C0
01C0
01C0
01C0
01C0
01C0
01C0
01C0
01C0
01C0
01C0
01C0
0180
0300
0600
0600
0600
07C0
03C0
ENDCHAR
STARTCHAR Idotaccent
ENCODING 304
SWIDTH 602 0
DWIDTH 20 0
BBX 15 29 3 0
BITMAP
0380
0380
0380
0000
FFFE
FFFE
0380
0380
0380
0380
0380
0380
0380
0380
0380
0380
0380
0380
0380
0380
0380
0380
0380
0380
0380
0380
0380
FFFE
FFFE
ENDCHAR
STARTCHAR dotlessi
ENCODING 305
SWIDTH 602 0
DWIDTH 20 0
BBX 10 18 3 0
BITMAP
FFC0
FFC0
01C0
01C0
01C0
01C0
01C0
01C0
01C0
01C0
01C0
01C0
01C0
01C0
01C0
01C0
01C0
01C0
ENDCHAR
STARTCHAR IJ
ENCODING 306
SWIDTH 602 0
DWIDTH 20 0
BBX 20 25 3 0
BITMAP
FFFFF0
FFFFF0
038070
038070
038070
038070
038070
038070
038070
038070
038070
038070
038070
038070
038070
038070
038070
038070
038070
038070
038070
0380E0
03C1C0
FFFFC0
FFFF00
ENDCHAR
STARTCHAR ij
ENCODING 307
SWIDTH 602 0
DWIDTH 20 0
BBX 14 33 3 -7
BITMAP
01DC
01DC
01DC
01DC
0000
0000
0000
0000
FFFC
FFFC
01DC
01DC
01DC
01DC
01DC
01DC
01DC
01DC
01DC
01DC
01DC
01DC
01DC
01DC
01DC
01DC
001C
001C
001C
0038
2078
3FF0
1FC0
ENDCHAR
STARTCHAR Jcircumflex
ENCODING 308
SWIDTH 602 0
DWIDTH 20 0
BBX 13 31 3 0
BITMAP
07C0
07C0
0EE0
1C70
3838
0000
3FF0
3FF0
0070
0070
0070
0070
0070
0070
0070
0070
0070
0070
0070
0070
0070
0070
0070
0070
0070
0070
0070
00E0
C1C0
FFC0
7F00
ENDCHAR
STARTCHAR jcircumflex
ENCODING 309
SWIDTH 602 0
DWIDTH 20 0
BBX 13 31 3 -7
BITMAP
07C0
07C0
0EE0
1C70
3838
0000
7FF0
7FF0
0070
0070
0070
0070
0070
0070
0070
0070
0070
0070
0070
0070
0070
0070
0070
0070
0070
0070
0070
00E0
81E0
FFC0
7F00
ENDCHAR
STARTCHAR Kcommaaccent
ENCODING 310
SWIDTH 602 0
DWIDTH 20 0
BBX 17 37 3 -12
BITMAP
E00E00
E01C00
E01800
E03000
E07000
E0E000
E0C000
E18000
E38000
E70000
E60000
EE0000
FE0000
EF0000
E78000
E38000
E3C000
E1E000
E0F000
E07800
E03800
E03C00
E01E00
E00F00
E00780
000000
07C000
07C000
07C000
07C000
07C000
00C000
00C000
01C000
018000
038000
060000
ENDCHAR
STARTCHAR kcommaaccent
ENCODING 311
SWIDTH 602 0
DWIDTH 20 0
BBX 16 38 4 -12
BITMAP
E000
E000
E000
E000
E000
E000
E000
E000
E01C
E030
E070
E0E0
E1C0
E380
E700
EE00
EE00
FF00
E780
E3C0
E1E0
E0F0
E078
E07C
E03C
E01F
0000
07C0
07C0
07C0
07C0
07C0
00C0
00C0
01C0
0180
0380
0600
ENDCHAR
STARTCHAR kgreenlandic
ENCODING 312
SWIDTH 602 0
DWIDTH 20 0
BBX 16 18 4 0
BITMAP
E01C
E030
E070
E0E0
E1C0
E380
E700
EE00
EE00
FF00
E780
E3C0
E1E0
E0F0
E078
E07C
E03C
E01F
ENDCHAR
STARTCHAR Lacute
ENCODING 313
SWIDTH 602 0
DWIDTH 20 0
BBX 14 31 4 0
BITMAP
0F00
1E00
1C00
3800
7000
0000
E000
E000
E000
E000
E000
E000
E000
E000
E000
E000
E000
E000
E000
E000
E000
E000
E000
E000
E000
E000
E000
E000
E000
FFFC
FFFC
ENDCHAR
STARTCHAR lacute
ENCODING 314
SWIDTH 602 0
DWIDTH 20 0
BBX 11 32 3 0
BITMAP
01E0
03C0
0380
0700
0E00
0000
FFC0
FFC0
01C0
01C0
01C0
01C0
01C0
01C0
01C0
01C0
01C0
01C0
01C0
01C0
01C0
01C0
01C0
01C0
01C0
01C0
01C0
01C0
01C0
01C0
01C0
01C0
ENDCHAR
STARTCHAR Lcommaaccent
ENCODING 315
SWIDTH 602 0
DWIDTH 20 0
BBX 14 37 4 -12
BITMAP
E000
E000
E000
E000
E000
E000
E000
E000
E000
E000
E000
E000
E000
E000
E000
E000
E000
E000
E000
E000
E000
E000
E000
FFFC
FFFC
0000
1F00
1F00
1F00
1F00
1F00
0300
0300
0700
0600
0E00
1800
ENDCHAR
STARTCHAR lcommaaccent
ENCODING 316
SWIDTH 602 0
DWIDTH 20 0
BBX 10 38 3 -12
BITMAP
FFC0
FFC0
01C0
01C0
01C0
01C0
01C0
01C0
01C0
01C0
01C0
01C0
01C0
01C0
01C0
01C0
01C0
01C0
01C0
01C0
01C0
01C0
01C0
01C0
01C0
01C0
0000
07C0
07C0
07C0
07C0
07C0
00C0
00C0
01C0
0180
0380
0600
ENDCHAR
STARTCHAR Lcaron
ENCODING 317
SWIDTH 602 0
DWIDTH 20 0
BBX 16 31 2 0
BITMAP
E0E0
71C0
3B80
1F00
1F00
0000
3800
3800
3800
3800
3800
3800
3800
3800
3800
3800
3800
3800
3800
3800
3800
3800
3800
3800
3800
3800
3800
3800
3800
3FFF
3FFF
ENDCHAR
STARTCHAR lcaron
ENCODING 318
SWIDTH 602 0
DWIDTH 20 0
BBX 12 32 3 0
BITMAP
7070
38E0
1DC0
0F80
0F80
0000
FFC0
FFC0
01C0
01C0
01C0
01C0
01C0
01C0
01C0
01C0
01C0
01C0
01C0
01C0
01C0
01C0
01C0
01C0
01C0
01C0
01C0
01C0
01C0
01C0
01C0
01C0
ENDCHAR
STARTCHAR Ldot
ENCODING 319
SWIDTH 602 0
DWIDTH 20 0
BBX 14 25 4 0
BITMAP
E000
E000
E000
E000
E000
E000
E000
E000
E000
E000
E000
E000
E000
E000
E3C0
E3C0
E3C0
E000
E000
E000
E000
E000
E000
FFFC
FFFC
ENDCHAR
STARTCHAR ldot
ENCODING 320
SWIDTH 602 0
DWIDTH 20 0
BBX 14 26 3 0
BITMAP
FFC0
FFC0
01C0
01C0
01C0
01C0
01C0
01C0
01C0
01C0
01C0
01C0
01C0
01C0
01C0
01FC
01FC
01FC
01C0
01C0
01C0
01C0
01C0
01C0
01C0
01C0
ENDCHAR
STARTCHAR Lslash
ENCODING 321
SWIDTH 602 0
DWIDTH 20 0
BBX 18 25 0 0
BITMAP
0E0000
0E0000
0E0000
0E0000
0E0000
0E0000
0E0000
0E0000
0E2000
0EE000
0FE000
0F8000
1E0000
3E0000
FE0000
CE0000
8E0000
0E0000
0E0000
0E0000
0E0000
0E0000
0E0000
0FFFC0
0FFFC0
ENDCHAR
STARTCHAR lslash
ENCODING 322
SWIDTH 602 0
DWIDTH 20 0
BBX 14 26 3 0
BITMAP
FFC0
FFC0
01C0
01C0
01C0
01C0
01C0
01C0
01C4
01CC
01FC
01F0
03C0
0FC0
1FC0
19C0
11C0
01C0
01C0
01C0
01C0
01C0
01C0
01C0
01C0
01C0
ENDCHAR
STARTCHAR Nacute
ENCODING 323
SWIDTH 602 0
DWIDTH 20 0
BBX 16 31 2 0
BITMAP
01E0
03C0
0380
0700
0E00
0000
E003
F003
F003
F803
F803
FC03
DC03
CE03
CF03
C703
C783
C383
C3C3
C1C3
C1E3
C0E3
C073
C07B
C03B
C03F
C01F
C01F
C00F
C007
C007
ENDCHAR
STARTCHAR nacute
ENCODING 324
SWIDTH 602 0
DWIDTH 20 0
BBX 15 24 3 0
BITMAP
00F0
01E0
01C0
0380
0700
0000
E1F0
E7F8
EFFC
FC1E
F80E
F00E
E00E
E00E
E00E
E00E
E00E
E00E
E00E
E00E
E00E
E00E
E00E
E00E
ENDCHAR
STARTCHAR Ncommaaccent
ENCODING 325
SWIDTH 602 0
DWIDTH 20 0
BBX 16 37 2 -12
BITMAP
E003
F003
F003
F803
F803
FC03
DC03
CE03
CF03
C703
C783
C383
C3C3
C1C3
C1E3
C0E3
C073
C07B
C03B
C03F
C01F
C01F
C00F
C007
C007
0000
01F0
01F0
01F0
01F0
01F0
0030
0030
0070
0060
00E0
0180
ENDCHAR
STARTCHAR ncommaaccent
ENCODING 326
SWIDTH 602 0
DWIDTH 20 0
BBX 15 30 3 -12
BITMAP
E1F0
E7F8
EFFC
FC1E
F80E
F00E
E00E
E00E
E00E
E00E
E00E
E00E
E00E
E00E
E00E
E00E
E00E
E00E
0000
07C0
07C0
07C0
07C0
07C0
00C0
00C0
01C0
0180
0380
0600
ENDCHAR
STARTCHAR Ncaron
ENCODING 327
SWIDTH 602 0
DWIDTH 20 0
BBX 16 31 2 0
BITMAP
7070
38E0
1DC0
0F80
0F80
0000
E003
F003
F003
F803
F803
FC03
DC03
CE03
CF03
C703
C783
C383
C3C3
C1C3
C1E3
C0E3
C073
C07B
C03B
C03F
C01F
C01F
C00F
C007
C007
ENDCHAR
STARTCHAR ncaron
ENCODING 328
SWIDTH 602 0
DWIDTH 20 0
BBX 15 24 3 0
BITMAP
3838
1C70
0EE0
07C0
07C0
0000
E1F0
E7F8
EFFC
FC1E
F80E
F00E
E00E
E00E
E00E
E00E
E00E
E00E
E00E
E00E
E00E
E00E
E00E
E00E
ENDCHAR
STARTCHAR napostrophe
ENCODING 329
SWIDTH 602 0
DWIDTH 20 0
BBX 19 26 -1 0
BITMAP
F80000
F80000
F80000
F80000
F80000
180000
300000
700000
EE1F00
CE7F80
0EFFC0
0FC1E0
0F80E0
0F00E0
0E00E0
0E00E0
0E00E0
0E00E0
0E00E0
0E00E0
0E00E0
0E00E0
0E00E0
0E00E0
0E00E0
0E00E0
ENDCHAR
STARTCHAR Eng
ENCODING 330
SWIDTH 602 0
DWIDTH 20 0
BBX 16 32 2 -7
BITMAP
E003
F003
F003
F803
F803
FC03
DC03
CE03
CF03
C703
C783
C383
C3C3
C1C3
C1E3
C0E3
C073
C07F
C03F
C03F
C01F
C01F
C00F
C007
C007
0007
0007
0007
000E
081E
0FFC
07F0
ENDCHAR
STARTCHAR eng
ENCODING 331
SWIDTH 602 0
DWIDTH 20 0
BBX 15 25 3 -7
BITMAP
E1F0
E7F8
EFFC
FC1E
F80E
F00E
E00E
E00E
E00E
E00E
E00E
E00E
E00E
E00E
E00E
E00E
E00E
E00E
000E
000E
000E
001C
103C
1FF8
0FE0
ENDCHAR
STARTCHAR Omacron
ENCODING 332
SWIDTH 602 0
DWIDTH 20 0
BBX 18 28 1 0
BITMAP
07FC00
07FC00
000000
03F000
0FFC00
1E1E00
380700
380700
700380
700380
700380
E001C0
E001C0
E001C0
E001C0
E001C0
E001C0
E001C0
E001C0
E001C0
700380
700380
700380
380700
3C0F00
1E1E00
0FFC00
03F000
ENDCHAR
STARTCHAR omacron
ENCODING 333
SWIDTH 602 0
DWIDTH 20 0
BBX 17 21 2 0
BITMAP
0FF800
0FF800
000000
07F000
1FFC00
3C1E00
780F00
700700
F00780
E00380
E00380
E00380
E00380
E00380
E00380
F00780
700700
780F00
3C1E00
1FFC00
07F000
ENDCHAR
STARTCHAR Obreve
ENCODING 334
SWIDTH 602 0
DWIDTH 20 0
BBX 18 31 1 0
BITMAP
0C0600
0E0E00
071C00
03F800
01F000
000000
03F000
0FFC00
1E1E00
380700
380700
700380
700380
700380
E001C0
E001C0
E001C0
E001C0
E001C0
E001C0
E001C0
E001C0
E001C0
700380
700380
700380
380700
3C0F00
1E1E00
0FFC00
03F000
ENDCHAR
STARTCHAR obreve
ENCODING 335
SWIDTH 602 0
DWIDTH 20 0
BBX 17 24 2 0
BITMAP
180C00
1C1C00
0E3800
07F000
03E000
000000
07F000
1FFC00
3C1E00
780F00
700700
F00780
E00380
E00380
E00380
E00380
E00380
E00380
F00780
700700
780F00
3C1E00
1FFC00
07F000
ENDCHAR
STARTCHAR Ohungarumlaut
ENCODING 336
SWIDTH 602 0
DWIDTH 20 0
BBX 18 31 1 0
BITMAP
00E700
01CE00
018C00
031800
063000
000000
03F000
0FFC00
1E1E00
380700
380700
700380
700380
700380
E001C0
E001C0
E001C0
E001C0
E001C0
E001C0
E001C0
E001C0
E001C0
700380
700380
700380
380700
3C0F00
1E1E00
0FFC00
03F000
ENDCHAR
STARTCHAR ohungarumlaut
ENCODING 337
SWIDTH 602 0
DWIDTH 20 0
BBX 17 24 2 0
BITMAP
01CE00
039C00
031800
063000
0C6000
000000
07F000
1FFC00
3C1E00
780F00
700700
F00780
E00380
E00380
E00380
E00380
E00380
E00380
F00780
700700
780F00
3C1E00
1FFC00
07F000
ENDCHAR
STARTCHAR OE
ENCODING 338
SWIDTH 602 0
DWIDTH 20 0
BBX 19 25 1 0
BITMAP
0FFFC0
3FFFC0
38F000
707000
707000
607000
E07000
E07000
E07000
E07000
E07000
E07F80
E07F80
E07000
E07000
E07000
E07000
E07000
E07000
607000
707000
707000
38F000
1FFFE0
0FFFE0
ENDCHAR
STARTCHAR oe
ENCODING 339
SWIDTH 602 0
DWIDTH 20 0
BBX 20 18 0 0
BITMAP
0F8F80
3FDFC0
39F8E0
70F860
70F070
E07070
E07070
E07FF0
E07FF0
E07000
E07000
E07000
E07000
607000
70F800
30FC10
3FFFF0
0F8FE0
ENDCHAR
STARTCHAR Racute
ENCODING 340
SWIDTH 602 0
DWIDTH 20 0
BBX 17 31 3 0
BITMAP
00F000
01E000
01C000
038000
070000
000000
FFC000
FFF000
E07800
E03C00
E01C00
E01C00
E01C00
E01C00
E03C00
E07800
E0F800
FFF000
FFE000
E3C000
E1C000
E0E000
E0E000
E07000
E07800
E03800
E03C00
E01E00
E00E00
E00F00
E00780
ENDCHAR
STARTCHAR racute
ENCODING 341
SWIDTH 602 0
DWIDTH 20 0
BBX 13 24 5 0
BITMAP
01E0
03C0
0380
0700
0E00
0000
E1F8
E7F8
EE18
F818
F018
E000
E000
E000
E000
E000
E000
E000
E000
E000
E000
E000
E000
E000
ENDCHAR
STARTCHAR Rcommaaccent
ENCODING 342
SWIDTH 602 0
DWIDTH 20 0
BBX 17 37 3 -12
BITMAP
FFC000
FFF000
E07800
E03C00
E01C00
E01C00
E01C00
E01C00
E03C00
E07800
E0F800
FFF000
FFE000
E3C000
E1C000
E0E000
E0E000
E07000
E07800
E03800
E03C00
E01E00
E00E00
E00F00
E00780
000000
03E000
03E000
03E000
03E000
03E000
006000
006000
00E000
00C000
01C000
030000
ENDCHAR
STARTCHAR rcommaaccent
ENCODING 343
SWIDTH 602 0
DWIDTH 20 0
BBX 13 30 5 -12
BITMAP
E1F8
E7F8
EE18
F818
F018
E000
E000
E000
E000
E000
E000
E000
E000
E000
E000
E000
E000
E000
0000
7C00
7C00
7C00
7C00
7C00
0C00
0C00
1C00
1800
3800
6000
ENDCHAR
STARTCHAR Rcaron
ENCODING 344
SWIDTH 602 0
DWIDTH 20 0
BBX 17 31 3 0
BITMAP
383800
1C7000
0EE000
07C000
07C000
000000
FFC000
FFF000
E07800
E03C00
E01C00
E01C00
E01C00
E01C00
E03C00
E07800
E0F800
FFF000
FFE000
E3C000
E1C000
E0E000
E0E000
E07000
E07800
E03800
E03C00
E01E00
E00E00
E00F00
E00780
ENDCHAR
STARTCHAR rcaron
ENCODING 345
SWIDTH 602 0
DWIDTH 20 0
BBX 13 24 5 0
BITMAP
7070
38E0
1DC0
0F80
0F80
0000
E1F8
E7F8
EE18
F818
F018
E000
E000
E000
E000
E000
E000
E000
E000
E000
E000
E000
E000
E000
ENDCHAR
STARTCHAR Sacute
ENCODING 346
SWIDTH 602 0
DWIDTH 20 0
BBX 16 31 3 0
BITMAP
01E0
03C0
0380
0700
0E00
0000
0FF8
3FFE
780E
7000
E000
E000
E000
F000
F000
7C00
3F00
0FC0
03F0
00FC
003E
001E
000F
0007
0007
0007
0007
800E
F03C
FFF8
1FE0
ENDCHAR
STARTCHAR sacute
ENCODING 347
SWIDTH 602 0
DWIDTH 20 0
BBX 14 24 3 0
BITMAP
01E0
03C0
0380
0700
0E00
0000
0FF0
3FF8
7018
E000
E000
E000
F800
7F00
3FE0
0FF8
01FC
003C
001C
001C
801C
E078
FFF0
3FC0
ENDCHAR
STARTCHAR Scircumflex
ENCODING 348
SWIDTH 602 0
DWIDTH 20 0
BBX 16 31 3 0
BITMAP
0F80
0F80
1DC0
38E0
7070
0000
0FF8
3FFE
780E
7000
E000
E000
E000
F000
F000
7C00
3F00
0FC0
03F0
00FC
003E
001E
000F
0007
0007
0007
0007
800E
F03C
FFF8
1FE0
ENDCHAR
STARTCHAR scircumflex
ENCODING 349
SWIDTH 602 0
DWIDTH 20 0
BBX 14 24 3 0
BITMAP
0F80
0F80
1DC0
38E0
7070
0000
0FF0
3FF8
7018
E000
E000
E000
F800
7F00
3FE0
0FF8
01FC
003C
001C
001C
801C
E078
FFF0
3FC0
ENDCHAR
STARTCHAR Scedilla
ENCODING 350
SWIDTH 602 0
DWIDTH 20 0
BBX 16 32 3 -7
BITMAP
0FF8
3FFE
780E
7000
E000
E000
E000
F000
F000
7C00
3F00
0FC0
03F0
00FC
003E
001E
000F
0007
0007
0007
0007
800E
F03C
FFF8
1FE0
00C0
01C0
00E0
0070
0030
0030
01E0
ENDCHAR
STARTCHAR scedilla
ENCODING 351
SWIDTH 602 0
DWIDTH 20 0
BBX 14 25 3 -7
BITMAP
0FF0
3FF8
7018
E000
E000
E000
F800
7F00
3FE0
0FF8
01FC
003C
001C
001C
801C
E078
FFF0
3FC0
0300
0700
0380
01C0
00C0
00C0
0780
ENDCHAR
STARTCHAR Scaron
ENCODING 352
SWIDTH 602 0
DWIDTH 20 0
BBX 16 31 3 0
BITMAP
3838
1C70
0EE0
07C0
07C0
0000
0FF8
3FFE
780E
7000
E000
E000
E000
F000
F000
7C00
3F00
0FC0
03F0
00FC
003E
001E
000F
0007
0007
0007
0007
800E
F03C
FFF8
1FE0
ENDCHAR
STARTCHAR scaron
ENCODING 353
SWIDTH 602 0
DWIDTH 20 0
BBX 14 24 3 0
BITMAP
7070
38E0
1DC0
0F80
0F80
0000
0FF0
3FF8
7018
E000
E000
E000
F800
7F00
3FE0
0FF8
01FC
003C
001C
001C
801C
E078
FFF0
3FC0
ENDCHAR
STARTCHAR Tcommaaccent
ENCODING 354
SWIDTH 602 0
DWIDTH 20 0
BBX 19 32 1 -7
BITMAP
FFFFE0
FFFFE0
00E000
00E000
00E000
00E000
00E000
00E000
00E000
00E000
00E000
00E000
00E000
00E000
00E000
00E000
00E000
00E000
00E000
00E000
00E000
00E000
00E000
00E000
00E000
006000
00E000
007000
003800
001800
001800
00F000
ENDCHAR
STARTCHAR tcommaaccent
ENCODING 355
SWIDTH 602 0
DWIDTH 20 0
BBX 16 29 2 -7
BITMAP
0700
0700
0700
0700
FFFF
FFFF
0700
0700
0700
0700
0700
0700
0700
0700
0700
0700
0700
0700
0700
0380
03FF
00FF
00C0
01C0
00E0
0070
0030
0030
01E0
ENDCHAR
STARTCHAR Tcaron
ENCODING 356
SWIDTH 602 0
DWIDTH 20 0
BBX 19 31 1 0
BITMAP
0E0E00
071C00
03B800
01F000
01F000
000000
FFFFE0
FFFFE0
00E000
00E000
00E000
00E000
00E000
00E000
00E000
00E000
00E000
00E000
00E000
00E000
00E000
00E000
00E000
00E000
00E000
00E000
00E000
00E000
00E000
00E000
00E000
ENDCHAR
STARTCHAR tcaron
ENCODING 357
SWIDTH 602 0
DWIDTH 20 0
BBX 16 28 2 0
BITMAP
3838
1C70
0EE0
07C0
07C0
0000
0700
0700
0700
0700
FFFF
FFFF
0700
0700
0700
0700
0700
0700
0700
0700
0700
0700
0700
0700
0700
0380
03FF
00FF
ENDCHAR
STARTCHAR Tbar
ENCODING 358
SWIDTH 602 0
DWIDTH 20 0
BBX 19 25 1 0
BITMAP
FFFFE0
FFFFE0
00E000
00E000
00E000
00E000
00E000
00E000
00E000
00E000
00E000
3FFF80
3FFF80
00E000
00E000
00E000
00E000
00E000
00E000
00E000
00E000
00E000
00E000
00E000
00E000
ENDCHAR
STARTCHAR tbar
ENCODING 359
SWIDTH 602 0
DWIDTH 20 0
BBX 16 22 2 0
BITMAP
0700
0700
0700
0700
FFFF
FFFF
0700
0700
0700
0700
0700
0700
7FFF
7FFF
0700
0700
0700
0700
0700
0380
03FF
00FF
ENDCHAR
STARTCHAR Utilde
ENCODING 360
SWIDTH 602 0
DWIDTH 20 0
BBX 15 29 3 0
BITMAP
3E30
7FF0
63E0
0000
E006
E006
E006
E006
E006
E006
E006
E006
E006
E006
E006
E006
E006
E006
E006
E006
E006
E006
E006
E006
F00C
700C
781C
3FF8
0FE0
ENDCHAR
STARTCHAR utilde
ENCODING 361
SWIDTH 602 0
DWIDTH 20 0
BBX 15 22 3 0
BITMAP
1F18
3FF8
31F0
0000
E00E
E00E
E00E
E00E
E00E
E00E
E00E
E00E
E00E
E00E
E00E
E00E
E01E
E03E
F07E
7FEE
3FCE
1F0E
ENDCHAR
STARTCHAR Umacron
ENCODING 362
SWIDTH 602 0
DWIDTH 20 0
BBX 15 28 3 0
BITMAP
3FE0
3FE0
0000
E006
E006
E006
E006
E006
E006
E006
E006
E006
E006
E006
E006
E006
E006
E006
E006
E006
E006
E006
E006
F00C
700C
781C
3FF8
0FE0
ENDCHAR
STARTCHAR umacron
ENCODING 363
SWIDTH 602 0
DWIDTH 20 0
BBX 15 21 3 0
BITMAP
1FF0
1FF0
0000
E00E
E00E
E00E
E00E
E00E
E00E
E00E
E00E
E00E
E00E
E00E
E00E
E01E
E03E
F07E
7FEE
3FCE
1F0E
ENDCHAR
STARTCHAR Ubreve
ENCODING 364
SWIDTH 602 0
DWIDTH 20 0
BBX 15 31 3 0
BITMAP
6030
7070
38E0
1FC0
0F80
0000
E006
E006
E006
E006
E006
E006
E006
E006
E006
E006
E006
E006
E006
E006
E006
E006
E006
E006
E006
E006
F00C
700C
781C
3FF8
0FE0
ENDCHAR
STARTCHAR ubreve
ENCODING 365
SWIDTH 602 0
DWIDTH 20 0
BBX 15 24 3 0
BITMAP
3018
3838
1C70
0FE0
07C0
0000
E00E
E00E
E00E
E00E
E00E
E00E
E00E
E00E
E00E
E00E
E00E
E00E
E01E
E03E
F07E
7FEE
3FCE
1F0E
ENDCHAR
STARTCHAR Uring
ENCODING 366
SWIDTH 602 0
DWIDTH 20 0
BBX 15 31 3 0
BITMAP
0700
0D80
0880
0D80
0700
0000
E006
E006
E006
E006
E006
E006
E006
E006
E006
E006
E006
E006
E006
E006
E006
E006
E006
E006
E006
E006
F00C
700C
781C
3FF8
0FE0
ENDCHAR
STARTCHAR uring
ENCODING 367
SWIDTH 602 0
DWIDTH 20 0
BBX 15 24 3 0
BITMAP
0380
06C0
0440
06C0
0380
0000
E00E
E00E
E00E
E00E
E00E
E00E
E00E
E00E
E00E
E00E
E00E
E00E
E01E
E03E
F07E
7FEE
3FCE
1F0E
ENDCHAR
STARTCHAR Uhungarumlaut
ENCODING 368
SWIDTH 602 0
DWIDTH 20 0
BBX 15 31 3 0
BITMAP
0738
0E70
0C60
18C0
3180
0000
E006
E006
E006
E006
E006
E006
E006
E006
E006
E006
E006
E006
E006
E006
E006
E006
E006
E006
E006
E006
F00C
700C
781C
3FF8
0FE0
ENDCHAR
STARTCHAR uhungarumlaut
ENCODING 369
SWIDTH 602 0
DWIDTH 20 0
BBX 15 24 3 0
BITMAP
039C
0738
0630
0C60
18C0
0000
E00E
E00E
E00E
E00E
E00E
E00E
E00E
E00E
E00E
E00E
E00E
E00E
E01E
E03E
F07E
7FEE
3FCE
1F0E
ENDCHAR
STARTCHAR Uogonek
ENCODING 370
SWIDTH 602 0
DWIDTH 20 0
BBX 15 32 3 -7
BITMAP
E006
E006
E006
E006
E006
E006
E006
E006
E006
E006
E006
E006
E006
E006
E006
E006
E006
E006
E006
E006
F00C
700C
781C
3FF8
0FE0
0180
0300
0600
0600
0600
07C0
03C0
ENDCHAR
STARTCHAR uogonek
ENCODING 371
SWIDTH 602 0
DWIDTH 20 0
BBX 15 25 3 -7
BITMAP
E00E
E00E
E00E
E00E
E00E
E00E
E00E
E00E
E00E
E00E
E00E
E00E
E01E
E03E
F07E
7FEE
3FCE
1F0E
0180
0300
0600
0600
0600
07C0
03C0
ENDCHAR
STARTCHAR Wcircumflex
ENCODING 372
SWIDTH 602 0
DWIDTH 20 0
BBX 20 31 0 0
BITMAP
01F000
01F000
03B800
071C00
0E0E00
000000
C00030
C00030
C0E030
C0E060
E1F060
E1F060
61F060
61F060
61B060
61B0C0
6338C0
6338C0
7338C0
7318C0
7218C0
7619C0
761D80
761D80
760D80
340D80
340F80
3C0F80
3C0F00
380700
380700
ENDCHAR
STARTCHAR wcircumflex
ENCODING 373
SWIDTH 602 0
DWIDTH 20 0
BBX 20 24 0 0
BITMAP
01F000
01F000
03B800
071C00
0E0E00
000000
E00030
E00030
E0F060
70F060
70F060
70F060
719860
7198C0
3198C0
3B98C0
3B0CC0
3B0DC0
3B0D80
3E0D80
1E0D80
1E0780
1E0780
1C0700
ENDCHAR
STARTCHAR Ycircumflex
ENCODING 374
SWIDTH 602 0
DWIDTH 20 0
BBX 20 31 0 0
BITMAP
01F000
01F000
03B800
071C00
0E0E00
000000
F00070
7000E0
3800C0
3C01C0
1C0380
1E0300
0E0700
0F0600
070C00
078C00
03D800
01F800
01F000
00E000
00E000
00E000
00E000
00E000
00E000
00E000
00E000
00E000
00E000
00E000
00E000
ENDCHAR
STARTCHAR ycircumflex
ENCODING 375
SWIDTH 602 0
DWIDTH 20 0
BBX 18 31 1 -7
BITMAP
03E000
03E000
077000
0E3800
1C1C00
000000
F001C0
700180
700380
380300
380300
3C0600
1C0600
1C0C00
0E0C00
0E1C00
0F1800
071800
073000
03B000
03E000
01E000
01E000
01C000
01C000
018000
018000
030000
070000
7E0000
780000
ENDCHAR
STARTCHAR Ydieresis
ENCODING 376
SWIDTH 602 0
DWIDTH 20 0
BBX 20 28 0 0
BITMAP
071C00
071C00
000000
F00070
7000E0
3800C0
3C01C0
1C0380
1E0300
0E0700
0F0600
070C00
078C00
03D800
01F800
01F000
00E000
00E000
00E000
00E000
00E000
00E000
00E000
00E000
00E000
00E000
00E000
00E000
ENDCHAR
STARTCHAR Zacute
ENCODING 377
SWIDTH 602 0
DWIDTH 20 0
BBX 17 31 2 0
BITMAP
003C00
007800
007000
00E000
01C000
000000
7FFF80
7FFF80
000780
000F00
000E00
001E00
001C00
003800
007800
007000
00F000
01E000
01C000
03C000
078000
070000
0F0000
1E0000
1C0000
3C0000
780000
700000
F00000
FFFF80
FFFF80
ENDCHAR
STARTCHAR zacute
ENCODING 378
SWIDTH 602 0
DWIDTH 20 0
BBX 16 24 2 0
BITMAP
0078
00F0
00E0
01C0
0380
0000
FFFF
FFFF
000E
001C
0038
0030
0060
00E0
01C0
0380
0700
0E00
1C00
1800
3000
6000
FFFF
FFFF
ENDCHAR
STARTCHAR Zdotaccent
ENCODING 379
SWIDTH 602 0
DWIDTH 20 0
BBX 17 29 2 0
BITMAP
00E000
00E000
00E000
000000
7FFF80
7FFF80
000780
000F00
000E00
001E00
001C00
003800
007800
007000
00F000
01E000
01C000
03C000
078000
070000
0F0000
1E0000
1C0000
3C0000
780000
700000
F00000
FFFF80
FFFF80
ENDCHAR
STARTCHAR zdotaccent
ENCODING 380
SWIDTH 602 0
DWIDTH 20 0
BBX 16 22 2 0
BITMAP
01C0
01C0
01C0
0000
FFFF
FFFF
000E
001C
0038
0030
0060
00E0
01C0
0380
0700
0E00
1C00
1800
3000
6000
FFFF
FFFF
ENDCHAR
STARTCHAR Zcaron
ENCODING 381
SWIDTH 602 0
DWIDTH 20 0
BBX 17 31 2 0
BITMAP
1C1C00
0E3800
077000
03E000
03E000
000000
7FFF80
7FFF80
000780
000F00
000E00
001E00
001C00
003800
007800
007000
00F000
01E000
01C000
03C000
078000
070000
0F0000
1E0000
1C0000
3C0000
780000
700000
F00000
FFFF80
FFFF80
ENDCHAR
STARTCHAR zcaron
ENCODING 382
SWIDTH 602 0
DWIDTH 20 0
BBX 16 24 2 0
BITMAP
1C1C
0E38
0770
03E0
03E0
0000
FFFF
FFFF
000E
001C
0038
0030
0060
00E0
01C0
0380
0700
0E00
1C00
1800
3000
6000
FFFF
FFFF
ENDCHAR
STARTCHAR uni0186
ENCODING 390
SWIDTH 602 0
DWIDTH 20 0
BBX 17 25 2 0
BITMAP
3F8000
FFF000
C0F800
003C00
001E00
000E00
000700
000700
000380
000380
000380
000380
000380
000380
000380
000380
000780
000700
000700
000E00
000E00
801C00
E07800
FFF000
3FC000
ENDCHAR
STARTCHAR uni0189
ENCODING 393
SWIDTH 602 0
DWIDTH 20 0
BBX 19 25 0 0
BITMAP
3FF800
3FFE00
381F00
380780
3803C0
3801C0
3801C0
3800E0
3800E0
3800E0
3800E0
FF80E0
FF80E0
3800E0
3800E0
3800E0
3800E0
3801C0
3801C0
3801C0
380380
380780
381F00
3FFC00
3FF000
ENDCHAR
STARTCHAR uni018E
ENCODING 398
SWIDTH 602 0
DWIDTH 20 0
BBX 15 25 4 0
BITMAP
FFFE
FFFE
000E
000E
000E
000E
000E
000E
000E
000E
000E
000E
1FFE
3FFE
000E
000E
000E
000E
000E
000E
000E
000E
000E
7FFE
7FFE
ENDCHAR
STARTCHAR florin
ENCODING 402
SWIDTH 602 0
DWIDTH 20 0
BBX 15 31 4 -6
BITMAP
007E
00FE
01C0
0380
0300
0700
0700
0700
0E00
0E00
0E00
7FC0
7FC0
1C00
1C00
1C00
3800
3800
3800
3800
3800
3800
7000
7000
7000
7000
7000
7000
E000
E000
E000
ENDCHAR
STARTCHAR uni0197
ENCODING 407
SWIDTH 602 0
DWIDTH 20 0
BBX 15 25 3 0
BITMAP
FFFE
FFFE
0380
0380
0380
0380
0380
0380
0380
0380
0380
FFFE
FFFE
0380
0380
0380
0380
0380
0380
0380
0380
0380
0380
FFFE
FFFE
ENDCHAR
STARTCHAR uni019A
ENCODING 410
SWIDTH 602 0
DWIDTH 20 0
BBX 15 26 1 0
BITMAP
3FF0
3FF0
0070
0070
0070
0070
0070
0070
0070
0070
0070
0070
FFFE
FFFE
0070
0070
0070
0070
0070
0070
0070
0070
0070
0070
0070
0070
ENDCHAR
STARTCHAR uni019D
ENCODING 413
SWIDTH 602 0
DWIDTH 20 0
BBX 25 32 -7 -7
BITMAP
00700180
00780180
00780180
007C0180
007C0180
007E0180
006E0180
00670180
00678180
00638180
0063C180
0061C180
0061E180
0060E180
0060F180
00607180
00603980
00703D80
00701D80
00701F80
00700F80
00700F80
00700780
00700380
00700380
00700000
00700000
00700000
00E00000
81E00000
FFC00000
7F000000
ENDCHAR
STARTCHAR uni019F
ENCODING 415
SWIDTH 602 0
DWIDTH 20 0
BBX 18 25 1 0
BITMAP
03F000
0FFC00
1E1E00
380700
380700
700380
700380
700380
E001C0
E001C0
E001C0
FFFFC0
FFFFC0
E001C0
E001C0
E001C0
E001C0
700380
700380
700380
380700
3C0F00
1E1E00
0FFC00
03F000
ENDCHAR
STARTCHAR Ohorn
ENCODING 416
SWIDTH 602 0
DWIDTH 20 0
BBX 21 25 1 0
BITMAP
03F0F8
0FFCF8
1E1EF8
3807F8
3807F8
700398
7003B0
7003F0
E001E0
E001C0
E001C0
E001C0
E001C0
E001C0
E001C0
E001C0
E001C0
700380
700380
700380
380700
3C0F00
1E1E00
0FFC00
03F000
ENDCHAR
STARTCHAR ohorn
ENCODING 417
SWIDTH 602 0
DWIDTH 20 0
BBX 20 18 2 0
BITMAP
07F1F0
1FFDF0
3C1FF0
780FF0
7007F0
F007B0
E003E0
E003E0
E003C0
E00380
E00380
E00380
F00780
700700
780F00
3C1E00
1FFC00
07F000
ENDCHAR
STARTCHAR uni01A7
ENCODING 423
SWIDTH 602 0
DWIDTH 20 0
BBX 16 25 3 0
BITMAP
1FF0
7FFC
701E
000E
0007
0007
0007
000F
000F
003E
00FC
03F0
0FC0
3F00
7C00
7800
F000
E000
E000
E000
E000
7001
3C0F
1FFF
07F8
ENDCHAR
STARTCHAR uni01A8
ENCODING 424
SWIDTH 602 0
DWIDTH 20 0
BBX 14 18 3 0
BITMAP
3FC0
7FF0
6038
001C
001C
001C
007C
03F8
1FF0
7FC0
FE00
F000
E000
E000
E004
781C
3FFC
0FF0
ENDCHAR
STARTCHAR uni01AE
ENCODING 430
SWIDTH 602 0
DWIDTH 20 0
BBX 20 32 1 -7
BITMAP
FFFFE0
FFFFE0
00E000
00E000
00E000
00E000
00E000
00E000
00E000
00E000
00E000
00E000
00E000
00E000
00E000
00E000
00E000
00E000
00E000
00E000
00E000
00E000
00E000
00E000
00E000
00E000
00E000
00E000
007000
007810
003FF0
000FE0
ENDCHAR
STARTCHAR Uhorn
ENCODING 431
SWIDTH 602 0
DWIDTH 20 0
BBX 19 25 3 0
BITMAP
E007E0
E007E0
E007E0
E007E0
E007E0
E00660
E006C0
E007C0
E00780
E00700
E00600
E00600
E00600
E00600
E00600
E00600
E00600
E00600
E00600
E00600
F00C00
700C00
781C00
3FF800
0FE000
ENDCHAR
STARTCHAR uhorn
ENCODING 432
SWIDTH 602 0
DWIDTH 20 0
BBX 19 18 3 0
BITMAP
E00FE0
E00FE0
E00FE0
E00FE0
E00FE0
E00E60
E00EC0
E00FC0
E00F80
E00F00
E00E00
E00E00
E01E00
E03E00
F07E00
7FEE00
3FCE00
1F0E00
ENDCHAR
STARTCHAR uni01B5
ENCODING 437
SWIDTH 602 0
DWIDTH 20 0
BBX 17 25 2 0
BITMAP
7FFF80
7FFF80
000780
000F00
000E00
001E00
001C00
003800
007800
007000
00F000
7FFF00
7FFF00
03C000
078000
070000
0F0000
1E0000
1C0000
3C0000
780000
700000
F00000
FFFF80
FFFF80
ENDCHAR
STARTCHAR uni01B6
ENCODING 438
SWIDTH 602 0
DWIDTH 20 0
BBX 16 18 2 0
BITMAP
FFFF
FFFF
000E
001C
0038
0030
0060
00E0
7FFF
7FFF
0700
0E00
1C00
1800
3000
6000
FFFF
FFFF
ENDCHAR
STARTCHAR uni01BB
ENCODING 443
SWIDTH 602 0
DWIDTH 20 0
BBX 14 25 3 0
BITMAP
1FC0
7FE0
7078
4038
001C
001C
001C
001C
001C
0038
0038
FFFC
FFFC
01C0
0380
0700
0E00
0C00
1C00
3800
7800
F000
F000
FFFC
FFFC
ENDCHAR
STARTCHAR uni01BC
ENCODING 444
SWIDTH 602 0
DWIDTH 20 0
BBX 12 25 5 0
BITMAP
FFE0
FFE0
C000
C000
C000
C000
C000
C000
C000
FC00
FF00
07C0
01E0
00E0
0070
0070
0070
0070
0070
0070
00E0
00E0
C3C0
FF80
7E00
ENDCHAR
STARTCHAR uni01C0
ENCODING 448
SWIDTH 602 0
DWIDTH 20 0
BBX 2 32 9 -6
BITMAP
C0
C0
C0
C0
C0
C0
C0
C0
C0
C0
C0
C0
C0
C0
C0
C0
C0
C0
C0
C0
C0
C0
C0
C0
C0
C0
C0
C0
C0
C0
C0
C0
ENDCHAR
STARTCHAR uni01C2
ENCODING 450
SWIDTH 602 0
DWIDTH 20 0
BBX 18 32 1 -7
BITMAP
00C000
00C000
00C000
00C000
00C000
00C000
00C000
00C000
00C000
00C000
00C000
00C000
FFFFC0
FFFFC0
00C000
00C000
00C000
00C000
FFFFC0
FFFFC0
00C000
00C000
00C000
00C000
00C000
00C000
00C000
00C000
00C000
00C000
00C000
00C000
ENDCHAR
STARTCHAR uni01C3
ENCODING 451
SWIDTH 602 0
DWIDTH 20 0
BBX 4 25 8 0
BITMAP
70
70
70
70
70
70
70
70
70
70
70
60
60
60
60
60
60
60
00
00
00
00
F0
F0
F0
ENDCHAR
STARTCHAR uni01CD
ENCODING 461
SWIDTH 602 0
DWIDTH 20 0
BBX 20 31 0 0
BITMAP
070700
038E00
01DC00
00F800
00F800
000000
007000
00F000
00F000
00F800
01B800
01B800
019C00
031C00
031C00
030E00
060E00
060E00
060F00
0C0700
0C0700
0C0780
1FFF80
1FFF80
1803C0
3001C0
3001C0
3000E0
6000E0
6000E0
E00070
ENDCHAR
STARTCHAR uni01CE
ENCODING 462
SWIDTH 602 0
DWIDTH 20 0
BBX 17 24 2 0
BITMAP
1C1C00
0E3800
077000
03E000
03E000
000000
0FE000
3FF800
303800
201C00
001C00
001C00
001C00
07FC00
1FFC00
7C1C00
701C00
E01C00
E01C00
E01C00
E03C00
707C00
7FEF80
1F8F80
ENDCHAR
STARTCHAR uni01CF
ENCODING 463
SWIDTH 602 0
DWIDTH 20 0
BBX 15 31 3 0
BITMAP
3838
1C70
0EE0
07C0
07C0
0000
FFFE
FFFE
0380
0380
0380
0380
0380
0380
0380
0380
0380
0380
0380
0380
0380
0380
0380
0380
0380
0380
0380
0380
0380
FFFE
FFFE
ENDCHAR
STARTCHAR uni01D0
ENCODING 464
SWIDTH 602 0
DWIDTH 20 0
BBX 11 24 3 0
BITMAP
E0E0
71C0
3B80
1F00
1F00
0000
FFC0
FFC0
01C0
01C0
01C0
01C0
01C0
01C0
01C0
01C0
01C0
01C0
01C0
01C0
01C0
01C0
01C0
01C0
ENDCHAR
STARTCHAR uni01D1
ENCODING 465
SWIDTH 602 0
DWIDTH 20 0
BBX 18 31 1 0
BITMAP
0E0E00
071C00
03B800
01F000
01F000
000000
03F000
0FFC00
1E1E00
380700
380700
700380
700380
700380
E001C0
E001C0
E001C0
E001C0
E001C0
E001C0
E001C0
E001C0
E001C0
700380
700380
700380
380700
3C0F00
1E1E00
0FFC00
03F000
ENDCHAR
STARTCHAR uni01D2
ENCODING 466
SWIDTH 602 0
DWIDTH 20 0
BBX 17 24 2 0
BITMAP
1C1C00
0E3800
077000
03E000
03E000
000000
07F000
1FFC00
3C1E00
780F00
700700
F00780
E00380
E00380
E00380
E00380
E00380
E00380
F00780
700700
780F00
3C1E00
1FFC00
07F000
ENDCHAR
STARTCHAR uni01D3
ENCODING 467
SWIDTH 602 0
DWIDTH 20 0
BBX 15 31 3 0
BITMAP
7070
38E0
1DC0
0F80
0F80
0000
E006
E006
E006
E006
E006
E006
E006
E006
E006
E006
E006
E006
E006
E006
E006
E006
E006
E006
E006
E006
F00C
700C
781C
3FF8
0FE0
ENDCHAR
STARTCHAR uni01D4
ENCODING 468
SWIDTH 602 0
DWIDTH 20 0
BBX 15 24 3 0
BITMAP
3838
1C70
0EE0
07C0
07C0
0000
E00E
E00E
E00E
E00E
E00E
E00E
E00E
E00E
E00E
E00E
E00E
E00E
E01E
E03E
F07E
7FEE
3FCE
1F0E
ENDCHAR
STARTCHAR uni01D5
ENCODING 469
SWIDTH 602 0
DWIDTH 20 0
BBX 15 31 3 0
BITMAP
1FF0
1FF0
0000
1C70
1C70
0000
E006
E006
E006
E006
E006
E006
E006
E006
E006
E006
E006
E006
E006
E006
E006
E006
E006
E006
E006
E006
F00C
700C
781C
3FF8
0FE0
ENDCHAR
STARTCHAR uni01D6
ENCODING 470
SWIDTH 602 0
DWIDTH 20 0
BBX 15 24 3 0
BITMAP
1FF0
1FF0
0000
1C70
1C70
0000
E00E
E00E
E00E
E00E
E00E
E00E
E00E
E00E
E00E
E00E
E00E
E00E
E01E
E03E
F07E
7FEE
3FCE
1F0E
ENDCHAR
STARTCHAR uni01D7
ENCODING 471
SWIDTH 602 0
DWIDTH 20 0
BBX 15 34 3 0
BITMAP
00F0
01E0
01C0
0380
0700
0000
1C70
1C70
0000
E006
E006
E006
E006
E006
E006
E006
E006
E006
E006
E006
E006
E006
E006
E006
E006
E006
E006
E006
E006
F00C
700C
781C
3FF8
0FE0
ENDCHAR
STARTCHAR uni01D8
ENCODING 472
SWIDTH 602 0
DWIDTH 20 0
BBX 15 27 3 0
BITMAP
00F0
01E0
01C0
0380
0700
0000
1C70
1C70
0000
E00E
E00E
E00E
E00E
E00E
E00E
E00E
E00E
E00E
E00E
E00E
E00E
E01E
E03E
F07E
7FEE
3FCE
1F0E
ENDCHAR
STARTCHAR uni01D9
ENCODING 473
SWIDTH 602 0
DWIDTH 20 0
BBX 15 34 3 0
BITMAP
3838
1C70
0EE0
07C0
07C0
0000
1C70
1C70
0000
E006
E006
E006
E006
E006
E006
E006
E006
E006
E006
E006
E006
E006
E006
E006
E006
E006
E006
E006
E006
F00C
700C
781C
3FF8
0FE0
ENDCHAR
STARTCHAR uni01DA
ENCODING 474
SWIDTH 602 0
DWIDTH 20 0
BBX 15 27 3 0
BITMAP
3838
1C70
0EE0
07C0
07C0
0000
1C70
1C70
0000
E00E
E00E
E00E
E00E
E00E
E00E
E00E
E00E
E00E
E00E
E00E
E00E
E01E
E03E
F07E
7FEE
3FCE
1F0E
ENDCHAR
STARTCHAR uni01DB
ENCODING 475
SWIDTH 602 0
DWIDTH 20 0
BBX 15 34 3 0
BITMAP
1E00
0F00
0700
0380
01C0
0000
1C70
1C70
0000
E006
E006
E006
E006
E006
E006
E006
E006
E006
E006
E006
E006
E006
E006
E006
E006
E006
E006
E006
E006
F00C
700C
781C
3FF8
0FE0
ENDCHAR
STARTCHAR uni01DC
ENCODING 476
SWIDTH 602 0
DWIDTH 20 0
BBX 15 27 3 0
BITMAP
1E00
0F00
0700
0380
01C0
0000
1C70
1C70
0000
E00E
E00E
E00E
E00E
E00E
E00E
E00E
E00E
E00E
E00E
E00E
E00E
E01E
E03E
F07E
7FEE
3FCE
1F0E
ENDCHAR
STARTCHAR uni01DD
ENCODING 477
SWIDTH 602 0
DWIDTH 20 0
BBX 16 18 2 0
BITMAP
3FC0
FFF0
C038
001C
000E
0006
0007
0007
FFFF
FFFF
E007
E007
E00E
700E
701C
7838
3FF0
0FC0
ENDCHAR
STARTCHAR uni01DE
ENCODING 478
SWIDTH 602 0
DWIDTH 20 0
BBX 20 31 0 0
BITMAP
03FE00
03FE00
000000
038E00
038E00
000000
007000
00F000
00F000
00F800
01B800
01B800
019C00
031C00
031C00
030E00
060E00
060E00
060F00
0C0700
0C0700
0C0780
1FFF80
1FFF80
1803C0
3001C0
3001C0
3000E0
6000E0
6000E0
E00070
ENDCHAR
STARTCHAR uni01DF
ENCODING 479
SWIDTH 602 0
DWIDTH 20 0
BBX 17 24 2 0
BITMAP
1FF000
1FF000
000000
1C7000
1C7000
000000
0FE000
3FF800
303800
201C00
001C00
001C00
001C00
07FC00
1FFC00
7C1C00
701C00
E01C00
E01C00
E01C00
E03C00
707C00
7FEF80
1F8F80
ENDCHAR
STARTCHAR uni01E0
ENCODING 480
SWIDTH 602 0
DWIDTH 20 0
BBX 20 32 0 0
BITMAP
03FE00
03FE00
000000
007000
007000
007000
000000
007000
00F000
00F000
00F800
01B800
01B800
019C00
031C00
031C00
030E00
060E00
060E00
060F00
0C0700
0C0700
0C0780
1FFF80
1FFF80
1803C0
3001C0
3001C0
3000E0
6000E0
6000E0
E00070
ENDCHAR
STARTCHAR uni01E1
ENCODING 481
SWIDTH 602 0
DWIDTH 20 0
BBX 17 25 2 0
BITMAP
0FF800
0FF800
000000
01C000
01C000
01C000
000000
0FE000
3FF800
303800
201C00
001C00
001C00
001C00
07FC00
1FFC00
7C1C00
701C00
E01C00
E01C00
E01C00
E03C00
707C00
7FEF80
1F8F80
ENDCHAR
STARTCHAR uni01E2
ENCODING 482
SWIDTH 602 0
DWIDTH 20 0
BBX 19 28 0 0
BITMAP
03FE00
03FE00
000000
007FC0
007FC0
00F800
00F800
00F800
01B800
01B800
01B800
033800
033800
033800
063F80
063F80
0E3800
0C3800
0C3800
1C3800
1FF800
1FF800
303800
303800
303800
603800
603FE0
E03FE0
ENDCHAR
STARTCHAR uni01E3
ENCODING 483
SWIDTH 602 0
DWIDTH 20 0
BBX 19 21 1 0
BITMAP
03FE00
03FE00
000000
3F9F00
3FFF80
21F9C0
00F0C0
00E0E0
00E0E0
00E0E0
0FFFE0
3FFFE0
78E000
F0E000
E0E000
E0E000
E0E000
E0F000
71F860
7F7FE0
1E1F80
ENDCHAR
STARTCHAR uni01E4
ENCODING 484
SWIDTH 602 0
DWIDTH 20 0
BBX 22 25 1 0
BITMAP
01FF00
07FF80
0F0180
1C0000
380000
380000
700000
700000
E00000
E00000
E00000
E00000
E00000
E00000
E00380
E00380
F00380
700380
71FFFC
39FFFC
3C0380
1E0380
0F8380
07FF80
00FE00
ENDCHAR
STARTCHAR uni01E5
ENCODING 485
SWIDTH 602 0
DWIDTH 20 0
BBX 16 25 2 -7
BITMAP
07E3
1FFB
3C3F
380F
7007
7007
E007
E007
E007
E007
E007
E007
E007
700F
701F
3877
1FE7
0FC7
FFFF
FFFF
0006
000E
301C
3FF8
1FE0
ENDCHAR
STARTCHAR Gcaron
ENCODING 486
SWIDTH 602 0
DWIDTH 20 0
BBX 17 31 1 0
BITMAP
1C1C00
0E3800
077000
03E000
03E000
000000
01FF00
07FF80
0F0180
1C0000
380000
380000
700000
700000
E00000
E00000
E00000
E00000
E00000
E00000
E00380
E00380
F00380
700380
700380
380380
3C0380
1E0380
0F8380
07FF80
00FE00
ENDCHAR
STARTCHAR gcaron
ENCODING 487
SWIDTH 602 0
DWIDTH 20 0
BBX 16 31 2 -7
BITMAP
1C1C
0E38
0770
03E0
03E0
0000
07E3
1FFB
3C3F
380F
7007
7007
E007
E007
E007
E007
E007
E007
E007
700F
701F
3877
1FE7
0FC7
0007
0007
0006
000E
301C
3FF8
1FE0
ENDCHAR
STARTCHAR uni01E8
ENCODING 488
SWIDTH 602 0
DWIDTH 20 0
BBX 17 31 3 0
BITMAP
707000
38E000
1DC000
0F8000
0F8000
000000
E00E00
E01C00
E01800
E03000
E07000
E0E000
E0C000
E18000
E38000
E70000
E60000
EE0000
FE0000
EF0000
E78000
E38000
E3C000
E1E000
E0F000
E07800
E03800
E03C00
E01E00
E00F00
E00780
ENDCHAR
STARTCHAR uni01E9
ENCODING 489
SWIDTH 602 0
DWIDTH 20 0
BBX 18 32 2 0
BITMAP
E0E000
71C000
3B8000
1F0000
1F0000
000000
380000
380000
380000
380000
380000
380000
380000
380000
380700
380C00
381C00
383800
387000
38E000
39C000
3B8000
3B8000
3FC000
39E000
38F000
387800
383C00
381E00
381F00
380F00
3807C0
ENDCHAR
STARTCHAR uni01EA
ENCODING 490
SWIDTH 602 0
DWIDTH 20 0
BBX 18 32 1 -7
BITMAP
03F000
0FFC00
1E1E00
380700
380700
700380
700380
700380
E001C0
E001C0
E001C0
E001C0
E001C0
E001C0
E001C0
E001C0
E001C0
700380
700380
700380
380700
3C0F00
1E1E00
0FFC00
03F000
006000
00C000
018000
018000
018000
01F000
00F000
ENDCHAR
STARTCHAR uni01EB
ENCODING 491
SWIDTH 602 0
DWIDTH 20 0
BBX 17 25 2 -7
BITMAP
07F000
1FFC00
3C1E00
780F00
700700
F00780
E00380
E00380
E00380
E00380
E00380
E00380
F00780
700700
780F00
3C1E00
1FFC00
07F000
00C000
018000
030000
030000
030000
03E000
01E000
ENDCHAR
STARTCHAR uni01EC
ENCODING 492
SWIDTH 602 0
DWIDTH 20 0
BBX 18 35 1 -7
BITMAP
07FC00
07FC00
000000
03F000
0FFC00
1E1E00
380700
380700
700380
700380
700380
E001C0
E001C0
E001C0
E001C0
E001C0
E001C0
E001C0
E001C0
E001C0
700380
700380
700380
380700
3C0F00
1E1E00
0FFC00
03F000
006000
00C000
018000
018000
018000
01F000
00F000
ENDCHAR
STARTCHAR uni01ED
ENCODING 493
SWIDTH 602 0
DWIDTH 20 0
BBX 17 28 2 -7
BITMAP
0FF800
0FF800
000000
07F000
1FFC00
3C1E00
780F00
700700
F00780
E00380
E00380
E00380
E00380
E00380
E00380
F00780
700700
780F00
3C1E00
1FFC00
07F000
00C000
018000
030000
030000
030000
03E000
01E000
ENDCHAR
STARTCHAR uni01F0
ENCODING 496
SWIDTH 602 0
DWIDTH 20 0
BBX 13 31 3 -7
BITMAP
3838
1C70
0EE0
07C0
07C0
0000
7FF0
7FF0
0070
0070
0070
0070
0070
0070
0070
0070
0070
0070
0070
0070
0070
0070
0070
0070
0070
0070
0070
00E0
81E0
FFC0
7F00
ENDCHAR
STARTCHAR uni01F4
ENCODING 500
SWIDTH 602 0
DWIDTH 20 0
BBX 17 31 1 0
BITMAP
007800
00F000
00E000
01C000
038000
000000
01FF00
07FF80
0F0180
1C0000
380000
380000
700000
700000
E00000
E00000
E00000
E00000
E00000
E00000
E00380
E00380
F00380
700380
700380
380380
3C0380
1E0380
0F8380
07FF80
00FE00
ENDCHAR
STARTCHAR uni01F5
ENCODING 501
SWIDTH 602 0
DWIDTH 20 0
BBX 16 31 2 -7
BITMAP
0078
00F0
00E0
01C0
0380
0000
07E3
1FFB
3C3F
380F
7007
7007
E007
E007
E007
E007
E007
E007
E007
700F
701F
3877
1FE7
0FC7
0007
0007
0006
000E
301C
3FF8
1FE0
ENDCHAR
STARTCHAR uni01F8
ENCODING 504
SWIDTH 602 0
DWIDTH 20 0
BBX 16 31 2 0
BITMAP
3C00
1E00
0E00
0700
0380
0000
E003
F003
F003
F803
F803
FC03
DC03
CE03
CF03
C703
C783
C383
C3C3
C1C3
C1E3
C0E3
C073
C07B
C03B
C03F
C01F
C01F
C00F
C007
C007
ENDCHAR
STARTCHAR uni01F9
ENCODING 505
SWIDTH 602 0
DWIDTH 20 0
BBX 15 24 3 0
BITMAP
1E00
0F00
0700
0380
01C0
0000
E1F0
E7F8
EFFC
FC1E
F80E
F00E
E00E
E00E
E00E
E00E
E00E
E00E
E00E
E00E
E00E
E00E
E00E
E00E
ENDCHAR
STARTCHAR Aringacute
ENCODING 506
SWIDTH 602 0
DWIDTH 20 0
BBX 20 37 0 0
BITMAP
001E00
003C00
003800
007000
00E000
000000
007000
00D800
008800
00D800
007000
000000
007000
00F000
00F000
00F800
01B800
01B800
019C00
031C00
031C00
030E00
060E00
060E00
060F00
0C0700
0C0700
0C0780
1FFF80
1FFF80
1803C0
3001C0
3001C0
3000E0
6000E0
6000E0
E00070
ENDCHAR
STARTCHAR aringacute
ENCODING 507
SWIDTH 602 0
DWIDTH 20 0
BBX 17 30 2 0
BITMAP
00F000
01E000
01C000
038000
070000
000000
038000
06C000
044000
06C000
038000
000000
0FE000
3FF800
303800
201C00
001C00
001C00
001C00
07FC00
1FFC00
7C1C00
701C00
E01C00
E01C00
E01C00
E03C00
707C00
7FEF80
1F8F80
ENDCHAR
STARTCHAR AEacute
ENCODING 508
SWIDTH 602 0
DWIDTH 20 0
BBX 19 31 0 0
BITMAP
001E00
003C00
003800
007000
00E000
000000
007FC0
007FC0
00F800
00F800
00F800
01B800
01B800
01B800
033800
033800
033800
063F80
063F80
0E3800
0C3800
0C3800
1C3800
1FF800
1FF800
303800
303800
303800
603800
603FE0
E03FE0
ENDCHAR
STARTCHAR aeacute
ENCODING 509
SWIDTH 602 0
DWIDTH 20 0
BBX 19 24 1 0
BITMAP
001E00
003C00
003800
007000
00E000
000000
3F9F00
3FFF80
21F9C0
00F0C0
00E0E0
00E0E0
00E0E0
0FFFE0
3FFFE0
78E000
F0E000
E0E000
E0E000
E0E000
E0F000
71F860
7F7FE0
1E1F80
ENDCHAR
STARTCHAR Oslashacute
ENCODING 510
SWIDTH 602 0
DWIDTH 20 0
BBX 18 31 1 0
BITMAP
003C00
007800
007000
00E000
01C000
000000
03F1C0
0FFF80
1E1F80
3C0700
380780
700F80
700F80
701BC0
E039C0
E031C0
E061C0
E0E1C0
E0C1C0
E181C0
E381C0
E301C0
E701C0
F60380
7C0380
7C0380
780700
380F00
7E1E00
7FFC00
E3F000
ENDCHAR
STARTCHAR oslashacute
ENCODING 511
SWIDTH 602 0
DWIDTH 20 0
BBX 17 24 2 0
BITMAP
003C00
007800
007000
00E000
01C000
000000
07F780
1FFF00
3C1F00
780F00
701F00
F03F80
E07380
E0E380
E0C380
E18380
E38380
E70380
FE0780
7C0700
780F00
7C1E00
7FFC00
F7F000
ENDCHAR
STARTCHAR uni0200
ENCODING 512
SWIDTH 602 0
DWIDTH 20 0
BBX 20 31 0 0
BITMAP
0E7000
073800
031800
018C00
00C600
000000
007000
00F000
00F000
00F800
01B800
01B800
019C00
031C00
031C00
030E00
060E00
060E00
060F00
0C0700
0C0700
0C0780
1FFF80
1FFF80
1803C0
3001C0
3001C0
3000E0
6000E0
6000E0
E00070
ENDCHAR
STARTCHAR uni0201
ENCODING 513
SWIDTH 602 0
DWIDTH 20 0
BBX 17 24 2 0
BITMAP
39C000
1CE000
0C6000
063000
031800
000000
0FE000
3FF800
303800
201C00
001C00
001C00
001C00
07FC00
1FFC00
7C1C00
701C00
E01C00
E01C00
E01C00
E03C00
707C00
7FEF80
1F8F80
ENDCHAR
STARTCHAR uni0202
ENCODING 514
SWIDTH 602 0
DWIDTH 20 0
BBX 20 31 0 0
BITMAP
00F800
01FC00
038E00
070700
060300
000000
007000
00F000
00F000
00F800
01B800
01B800
019C00
031C00
031C00
030E00
060E00
060E00
060F00
0C0700
0C0700
0C0780
1FFF80
1FFF80
1803C0
3001C0
3001C0
3000E0
6000E0
6000E0
E00070
ENDCHAR
STARTCHAR uni0203
ENCODING 515
SWIDTH 602 0
DWIDTH 20 0
BBX 17 24 2 0
BITMAP
03E000
07F000
0E3800
1C1C00
180C00
000000
0FE000
3FF800
303800
201C00
001C00
001C00
001C00
07FC00
1FFC00
7C1C00
701C00
E01C00
E01C00
E01C00
E03C00
707C00
7FEF80
1F8F80
ENDCHAR
STARTCHAR uni0204
ENCODING 516
SWIDTH 602 0
DWIDTH 20 0
BBX 16 31 3 0
BITMAP
E700
7380
3180
18C0
0C60
0000
7FFE
7FFE
7000
7000
7000
7000
7000
7000
7000
7000
7000
7FFC
7FF8
7000
7000
7000
7000
7000
7000
7000
7000
7000
7000
7FFF
7FFF
ENDCHAR
STARTCHAR uni0205
ENCODING 517
SWIDTH 602 0
DWIDTH 20 0
BBX 16 24 2 0
BITMAP
39C0
1CE0
0C60
0630
0318
0000
03F0
0FFC
1C1E
380E
700E
7007
E007
E007
FFFF
FFFF
E000
E000
6000
7000
3800
1C03
0FFF
03FC
ENDCHAR
STARTCHAR uni0206
ENCODING 518
SWIDTH 602 0
DWIDTH 20 0
BBX 15 31 4 0
BITMAP
1F00
3F80
71C0
E0E0
C060
0000
FFFC
FFFC
E000
E000
E000
E000
E000
E000
E000
E000
E000
FFF8
FFF0
E000
E000
E000
E000
E000
E000
E000
E000
E000
E000
FFFE
FFFE
ENDCHAR
STARTCHAR uni0207
ENCODING 519
SWIDTH 602 0
DWIDTH 20 0
BBX 16 24 2 0
BITMAP
03E0
07F0
0E38
1C1C
180C
0000
03F0
0FFC
1C1E
380E
700E
7007
E007
E007
FFFF
FFFF
E000
E000
6000
7000
3800
1C03
0FFF
03FC
ENDCHAR
STARTCHAR uni0208
ENCODING 520
SWIDTH 602 0
DWIDTH 20 0
BBX 15 31 3 0
BITMAP
7380
39C0
18C0
0C60
0630
0000
FFFE
FFFE
0380
0380
0380
0380
0380
0380
0380
0380
0380
0380
0380
0380
0380
0380
0380
0380
0380
0380
0380
0380
0380
FFFE
FFFE
ENDCHAR
STARTCHAR uni0209
ENCODING 521
SWIDTH 602 0
DWIDTH 20 0
BBX 11 24 2 0
BITMAP
E700
7380
3180
18C0
0C60
0000
7FE0
7FE0
00E0
00E0
00E0
00E0
00E0
00E0
00E0
00E0
00E0
00E0
00E0
00E0
00E0
00E0
00E0
00E0
ENDCHAR
STARTCHAR uni020A
ENCODING 522
SWIDTH 602 0
DWIDTH 20 0
BBX 15 31 3 0
BITMAP
07C0
0FE0
1C70
3838
3018
0000
FFFE
FFFE
0380
0380
0380
0380
0380
0380
0380
0380
0380
0380
0380
0380
0380
0380
0380
0380
0380
0380
0380
0380
0380
FFFE
FFFE
ENDCHAR
STARTCHAR uni020B
ENCODING 523
SWIDTH 602 0
DWIDTH 20 0
BBX 11 24 3 0
BITMAP
1F00
3F80
71C0
E0E0
C060
0000
FFC0
FFC0
01C0
01C0
01C0
01C0
01C0
01C0
01C0
01C0
01C0
01C0
01C0
01C0
01C0
01C0
01C0
01C0
ENDCHAR
STARTCHAR uni020C
ENCODING 524
SWIDTH 602 0
DWIDTH 20 0
BBX 18 31 1 0
BITMAP
1CE000
0E7000
063000
031800
018C00
000000
03F000
0FFC00
1E1E00
380700
380700
700380
700380
700380
E001C0
E001C0
E001C0
E001C0
E001C0
E001C0
E001C0
E001C0
E001C0
700380
700380
700380
380700
3C0F00
1E1E00
0FFC00
03F000
ENDCHAR
STARTCHAR uni020D
ENCODING 525
SWIDTH 602 0
DWIDTH 20 0
BBX 17 24 2 0
BITMAP
39C000
1CE000
0C6000
063000
031800
000000
07F000
1FFC00
3C1E00
780F00
700700
F00780
E00380
E00380
E00380
E00380
E00380
E00380
F00780
700700
780F00
3C1E00
1FFC00
07F000
ENDCHAR
STARTCHAR uni020E
ENCODING 526
SWIDTH 602 0
DWIDTH 20 0
BBX 18 31 1 0
BITMAP
01F000
03F800
071C00
0E0E00
0C0600
000000
03F000
0FFC00
1E1E00
380700
380700
700380
700380
700380
E001C0
E001C0
E001C0
E001C0
E001C0
E001C0
E001C0
E001C0
E001C0
700380
700380
700380
380700
3C0F00
1E1E00
0FFC00
03F000
ENDCHAR
STARTCHAR uni020F
ENCODING 527
SWIDTH 602 0
DWIDTH 20 0
BBX 17 24 2 0
BITMAP
03E000
07F000
0E3800
1C1C00
180C00
000000
07F000
1FFC00
3C1E00
780F00
700700
F00780
E00380
E00380
E00380
E00380
E00380
E00380
F00780
700700
780F00
3C1E00
1FFC00
07F000
ENDCHAR
STARTCHAR uni0210
ENCODING 528
SWIDTH 602 0
DWIDTH 20 0
BBX 17 31 3 0
BITMAP
738000
39C000
18C000
0C6000
063000
000000
FFC000
FFF000
E07800
E03C00
E01C00
E01C00
E01C00
E01C00
E03C00
E07800
E0F800
FFF000
FFE000
E3C000
E1C000
E0E000
E0E000
E07000
E07800
E03800
E03C00
E01E00
E00E00
E00F00
E00780
ENDCHAR
STARTCHAR uni0211
ENCODING 529
SWIDTH 602 0
DWIDTH 20 0
BBX 13 24 5 0
BITMAP
E700
7380
3180
18C0
0C60
0000
E1F8
E7F8
EE18
F818
F018
E000
E000
E000
E000
E000
E000
E000
E000
E000
E000
E000
E000
E000
ENDCHAR
STARTCHAR uni0212
ENCODING 530
SWIDTH 602 0
DWIDTH 20 0
BBX 17 31 3 0
BITMAP
07C000
0FE000
1C7000
383800
301800
000000
FFC000
FFF000
E07800
E03C00
E01C00
E01C00
E01C00
E01C00
E03C00
E07800
E0F800
FFF000
FFE000
E3C000
E1C000
E0E000
E0E000
E07000
E07800
E03800
E03C00
E01E00
E00E00
E00F00
E00780
ENDCHAR
STARTCHAR uni0213
ENCODING 531
SWIDTH 602 0
DWIDTH 20 0
BBX 13 24 5 0
BITMAP
0F80
1FC0
38E0
7070
6030
0000
E1F8
E7F8
EE18
F818
F018
E000
E000
E000
E000
E000
E000
E000
E000
E000
E000
E000
E000
E000
ENDCHAR
STARTCHAR uni0214
ENCODING 532
SWIDTH 602 0
DWIDTH 20 0
BBX 15 31 3 0
BITMAP
E700
7380
3180
18C0
0C60
0000
E006
E006
E006
E006
E006
E006
E006
E006
E006
E006
E006
E006
E006
E006
E006
E006
E006
E006
E006
E006
F00C
700C
781C
3FF8
0FE0
ENDCHAR
STARTCHAR uni0215
ENCODING 533
SWIDTH 602 0
DWIDTH 20 0
BBX 15 24 3 0
BITMAP
7380
39C0
18C0
0C60
0630
0000
E00E
E00E
E00E
E00E
E00E
E00E
E00E
E00E
E00E
E00E
E00E
E00E
E01E
E03E
F07E
7FEE
3FCE
1F0E
ENDCHAR
STARTCHAR uni0216
ENCODING 534
SWIDTH 602 0
DWIDTH 20 0
BBX 15 31 3 0
BITMAP
0F80
1FC0
38E0
7070
6030
0000
E006
E006
E006
E006
E006
E006
E006
E006
E006
E006
E006
E006
E006
E006
E006
E006
E006
E006
E006
E006
F00C
700C
781C
3FF8
0FE0
ENDCHAR
STARTCHAR uni0217
ENCODING 535
SWIDTH 602 0
DWIDTH 20 0
BBX 15 24 3 0
BITMAP
07C0
0FE0
1C70
3838
3018
0000
E00E
E00E
E00E
E00E
E00E
E00E
E00E
E00E
E00E
E00E
E00E
E00E
E01E
E03E
F07E
7FEE
3FCE
1F0E
ENDCHAR
STARTCHAR Scommaaccent
ENCODING 536
SWIDTH 602 0
DWIDTH 20 0
BBX 16 37 3 -12
BITMAP
0FF8
3FFE
780E
7000
E000
E000
E000
F000
F000
7C00
3F00
0FC0
03F0
00FC
003E
001E
000F
0007
0007
0007
0007
800E
F03C
FFF8
1FE0
0000
03E0
03E0
03E0
03E0
03E0
0060
0060
00E0
00C0
01C0
0300
ENDCHAR
STARTCHAR scommaaccent
ENCODING 537
SWIDTH 602 0
DWIDTH 20 0
BBX 14 30 3 -12
BITMAP
0FF0
3FF8
7018
E000
E000
E000
F800
7F00
3FE0
0FF8
01FC
003C
001C
001C
801C
E078
FFF0
3FC0
0000
07C0
07C0
07C0
07C0
07C0
00C0
00C0
01C0
0180
0380
0600
ENDCHAR
STARTCHAR Tcommaaccent
ENCODING 538
SWIDTH 602 0
DWIDTH 20 0
BBX 19 37 1 -12
BITMAP
FFFFE0
FFFFE0
00E000
00E000
00E000
00E000
00E000
00E000
00E000
00E000
00E000
00E000
00E000
00E000
00E000
00E000
00E000
00E000
00E000
00E000
00E000
00E000
00E000
00E000
00E000
000000
01F000
01F000
01F000
01F000
01F000
003000
003000
007000
006000
00E000
018000
ENDCHAR
STARTCHAR tcommaaccent
ENCODING 539
SWIDTH 602 0
DWIDTH 20 0
BBX 16 34 2 -12
BITMAP
0700
0700
0700
0700
FFFF
FFFF
0700
0700
0700
0700
0700
0700
0700
0700
0700
0700
0700
0700
0700
0380
03FF
00FF
0000
01F0
01F0
01F0
01F0
01F0
0030
0030
0070
0060
00E0
0180
ENDCHAR
STARTCHAR uni021E
ENCODING 542
SWIDTH 602 0
DWIDTH 20 0
BBX 16 31 2 0
BITMAP
1C1C
0E38
0770
03E0
03E0
0000
E007
E007
E007
E007
E007
E007
E007
E007
E007
E007
E007
FFFF
FFFF
E007
E007
E007
E007
E007
E007
E007
E007
E007
E007
E007
E007
ENDCHAR
STARTCHAR uni021F
ENCODING 543
SWIDTH 602 0
DWIDTH 20 0
BBX 17 32 1 0
BITMAP
E0E000
71C000
3B8000
1F0000
1F0000
000000
380000
380000
380000
380000
380000
380000
380000
380000
387C00
39FE00
3BFF00
3F0780
3E0380
3C0380
380380
380380
380380
380380
380380
380380
380380
380380
380380
380380
380380
380380
ENDCHAR
STARTCHAR uni0226
ENCODING 550
SWIDTH 602 0
DWIDTH 20 0
BBX 20 29 0 0
BITMAP
007000
007000
007000
000000
007000
00F000
00F000
00F800
01B800
01B800
019C00
031C00
031C00
030E00
060E00
060E00
060F00
0C0700
0C0700
0C0780
1FFF80
1FFF80
1803C0
3001C0
3001C0
3000E0
6000E0
6000E0
E00070
ENDCHAR
STARTCHAR uni0227
ENCODING 551
SWIDTH 602 0
DWIDTH 20 0
BBX 17 22 2 0
BITMAP
01C000
01C000
01C000
000000
0FE000
3FF800
303800
201C00
001C00
001C00
001C00
07FC00
1FFC00
7C1C00
701C00
E01C00
E01C00
E01C00
E03C00
707C00
7FEF80
1F8F80
ENDCHAR
STARTCHAR uni0228
ENCODING 552
SWIDTH 602 0
DWIDTH 20 0
BBX 15 32 4 -7
BITMAP
FFFC
FFFC
E000
E000
E000
E000
E000
E000
E000
E000
E000
FFF8
FFF0
E000
E000
E000
E000
E000
E000
E000
E000
E000
E000
FFFE
FFFE
0600
0E00
0700
0380
0180
0180
0F00
ENDCHAR
STARTCHAR uni0229
ENCODING 553
SWIDTH 602 0
DWIDTH 20 0
BBX 16 25 2 -7
BITMAP
03F0
0FFC
1C1E
380E
700E
7007
E007
E007
FFFF
FFFF
E000
E000
6000
7000
3800
1C03
0FFF
03FC
0180
0380
01C0
00E0
0060
0060
03C0
ENDCHAR
STARTCHAR uni022A
ENCODING 554
SWIDTH 602 0
DWIDTH 20 0
BBX 18 31 1 0
BITMAP
07FC00
07FC00
000000
071C00
071C00
000000
03F000
0FFC00
1E1E00
380700
380700
700380
700380
700380
E001C0
E001C0
E001C0
E001C0
E001C0
E001C0
E001C0
E001C0
E001C0
700380
700380
700380
380700
3C0F00
1E1E00
0FFC00
03F000
ENDCHAR
STARTCHAR uni022B
ENCODING 555
SWIDTH 602 0
DWIDTH 20 0
BBX 17 24 2 0
BITMAP
0FF800
0FF800
000000
0E3800
0E3800
000000
07F000
1FFC00
3C1E00
780F00
700700
F00780
E00380
E00380
E00380
E00380
E00380
E00380
F00780
700700
780F00
3C1E00
1FFC00
07F000
ENDCHAR
STARTCHAR uni022C
ENCODING 556
SWIDTH 602 0
DWIDTH 20 0
BBX 18 32 1 0
BITMAP
0FF800
0FF800
000000
0F8C00
1FFC00
18F800
000000
03F000
0FFC00
1E1E00
380700
380700
700380
700380
700380
E001C0
E001C0
E001C0
E001C0
E001C0
E001C0
E001C0
E001C0
E001C0
700380
700380
700380
380700
3C0F00
1E1E00
0FFC00
03F000
ENDCHAR
STARTCHAR uni022D
ENCODING 557
SWIDTH 602 0
DWIDTH 20 0
BBX 17 25 2 0
BITMAP
0FF800
0FF800
000000
0F8C00
1FFC00
18F800
000000
07F000
1FFC00
3C1E00
780F00
700700
F00780
E00380
E00380
E00380
E00380
E00380
E00380
F00780
700700
780F00
3C1E00
1FFC00
07F000
ENDCHAR
STARTCHAR uni022E
ENCODING 558
SWIDTH 602 0
DWIDTH 20 0
BBX 18 29 1 0
BITMAP
00E000
00E000
00E000
000000
03F000
0FFC00
1E1E00
380700
380700
700380
700380
700380
E001C0
E001C0
E001C0
E001C0
E001C0
E001C0
E001C0
E001C0
E001C0
700380
700380
700380
380700
3C0F00
1E1E00
0FFC00
03F000
ENDCHAR
STARTCHAR uni022F
ENCODING 559
SWIDTH 602 0
DWIDTH 20 0
BBX 17 22 2 0
BITMAP
01C000
01C000
01C000
000000
07F000
1FFC00
3C1E00
780F00
700700
F00780
E00380
E00380
E00380
E00380
E00380
E00380
F00780
700700
780F00
3C1E00
1FFC00
07F000
ENDCHAR
STARTCHAR uni0230
ENCODING 560
SWIDTH 602 0
DWIDTH 20 0
BBX 18 32 1 0
BITMAP
07FC00
07FC00
000000
00E000
00E000
00E000
000000
03F000
0FFC00
1E1E00
380700
380700
700380
700380
700380
E001C0
E001C0
E001C0
E001C0
E001C0
E001C0
E001C0
E001C0
E001C0
700380
700380
700380
380700
3C0F00
1E1E00
0FFC00
03F000
ENDCHAR
STARTCHAR uni0231
ENCODING 561
SWIDTH 602 0
DWIDTH 20 0
BBX 17 25 2 0
BITMAP
0FF800
0FF800
000000
01C000
01C000
01C000
000000
07F000
1FFC00
3C1E00
780F00
700700
F00780
E00380
E00380
E00380
E00380
E00380
E00380
F00780
700700
780F00
3C1E00
1FFC00
07F000
ENDCHAR
STARTCHAR uni0232
ENCODING 562
SWIDTH 602 0
DWIDTH 20 0
BBX 20 28 0 0
BITMAP
07FC00
07FC00
000000
F00070
7000E0
3800C0
3C01C0
1C0380
1E0300
0E0700
0F0600
070C00
078C00
03D800
01F800
01F000
00E000
00E000
00E000
00E000
00E000
00E000
00E000
00E000
00E000
00E000
00E000
00E000
ENDCHAR
STARTCHAR uni0233
ENCODING 563
SWIDTH 602 0
DWIDTH 20 0
BBX 18 28 1 -7
BITMAP
0FF800
0FF800
000000
F001C0
700180
700380
380300
380300
3C0600
1C0600
1C0C00
0E0C00
0E1C00
0F1800
071800
073000
03B000
03E000
01E000
01E000
01C000
01C000
018000
018000
030000
070000
7E0000
780000
ENDCHAR
STARTCHAR uni0250
ENCODING 592
SWIDTH 602 0
DWIDTH 20 0
BBX 17 18 2 0
BITMAP
F8FC00
FBFF00
1F0700
1E0380
1C0380
1C0380
1C0380
1C0700
1C1F00
1FFC00
1FF000
1C0000
1C0000
1C0000
1C0200
0E0600
0FFE00
03F800
ENDCHAR
STARTCHAR uni0254
ENCODING 596
SWIDTH 602 0
DWIDTH 20 0
BBX 15 18 3 0
BITMAP
7F80
FFE0
C0F8
003C
001C
001E
000E
000E
000E
000E
000E
000E
001C
001C
0038
C0F8
FFE0
7F80
ENDCHAR
STARTCHAR uni0258
ENCODING 600
SWIDTH 602 0
DWIDTH 20 0
BBX 16 18 2 0
BITMAP
0FC0
3FF0
7838
701C
700E
E00E
E007
E007
FFFF
FFFF
0007
0007
0006
000E
001C
C038
FFF0
3FC0
ENDCHAR
STARTCHAR uni0259
ENCODING 601
SWIDTH 602 0
DWIDTH 20 0
BBX 16 18 2 0
BITMAP
3FC0
FFF0
C038
001C
000E
0006
0007
0007
FFFF
FFFF
E007
E007
E00E
700E
701C
7838
3FF0
0FC0
ENDCHAR
STARTCHAR uni025F
ENCODING 607
SWIDTH 602 0
DWIDTH 20 0
BBX 17 27 3 -9
BITMAP
007000
007000
007000
007000
007000
007000
007000
007000
007000
007000
007000
007000
007000
007000
007000
007000
7FFF80
7FFF80
007000
007000
007000
007000
007000
00E000
81E000
FFC000
7F0000
ENDCHAR
STARTCHAR uni0265
ENCODING 613
SWIDTH 602 0
DWIDTH 20 0
BBX 15 26 3 -8
BITMAP
E00E
E00E
E00E
E00E
E00E
E00E
E00E
E00E
E00E
E00E
E00E
E00E
E01E
E03E
F07E
7FEE
3FCE
1F0E
000E
000E
000E
000E
000E
000E
000E
000E
ENDCHAR
STARTCHAR uni0275
ENCODING 629
SWIDTH 602 0
DWIDTH 20 0
BBX 17 18 2 0
BITMAP
07F000
1FFC00
3C1E00
780F00
700700
F00780
E00380
E00380
FFFF80
FFFF80
E00380
E00380
F00780
700700
780F00
3C1E00
1FFC00
07F000
ENDCHAR
STARTCHAR uni0279
ENCODING 633
SWIDTH 602 0
DWIDTH 20 0
BBX 13 18 5 0
BITMAP
0038
0038
0038
0038
0038
0038
0038
0038
0038
0038
0038
0038
0038
C078
C0F8
C3B8
FF38
FC38
ENDCHAR
STARTCHAR uni0287
ENCODING 647
SWIDTH 602 0
DWIDTH 20 0
BBX 16 22 2 0
BITMAP
FF00
FFC0
01C0
00E0
00E0
00E0
00E0
00E0
00E0
00E0
00E0
00E0
00E0
00E0
00E0
00E0
FFFF
FFFF
00E0
00E0
00E0
00E0
ENDCHAR
STARTCHAR uni0288
ENCODING 648
SWIDTH 602 0
DWIDTH 20 0
BBX 17 29 2 -7
BITMAP
070000
070000
070000
070000
FFFF00
FFFF00
070000
070000
070000
070000
070000
070000
070000
070000
070000
070000
070000
070000
070000
070000
070000
070000
070000
070000
070000
038000
03C080
01FF80
007F00
ENDCHAR
STARTCHAR uni0289
ENCODING 649
SWIDTH 602 0
DWIDTH 20 0
BBX 15 18 3 0
BITMAP
E00E
E00E
E00E
E00E
E00E
E00E
E00E
E00E
FFFE
FFFE
E00E
E00E
E01E
E03E
F07E
7FEE
3FCE
1F0E
ENDCHAR
STARTCHAR uni028C
ENCODING 652
SWIDTH 602 0
DWIDTH 20 0
BBX 18 18 1 0
BITMAP
00E000
01E000
01F000
03F000
037000
033800
063800
063C00
0C1C00
0C1E00
1C0E00
180E00
180F00
300700
300780
700380
600380
E001C0
ENDCHAR
STARTCHAR uni028D
ENCODING 653
SWIDTH 602 0
DWIDTH 20 0
BBX 20 18 0 0
BITMAP
0E0380
1E0780
1E0780
1B0780
1B07C0
1B0DC0
3B0DC0
330DC0
319DC0
3198C0
3198E0
6198E0
60F0E0
60F0E0
60F0E0
60F070
C00070
C00070
ENDCHAR
STARTCHAR uni028E
ENCODING 654
SWIDTH 602 0
DWIDTH 20 0
BBX 18 25 1 0
BITMAP
000780
001F80
003800
003000
006000
006000
00E000
00E000
01E000
01E000
01F000
037000
033800
063800
063C00
0E1C00
0C1C00
0C0E00
180E00
180F00
300700
300700
700380
600380
E003C0
ENDCHAR
STARTCHAR uni029E
ENCODING 670
SWIDTH 602 0
DWIDTH 20 0
BBX 16 26 4 -8
BITMAP
F807
3C07
3E07
1E07
0F07
0787
03C7
01E7
00FF
0077
0077
00E7
01C7
0387
0707
0E07
0C07
3807
0007
0007
0007
0007
0007
0007
0007
0007
ENDCHAR
STARTCHAR uni02BB
ENCODING 699
SWIDTH 602 0
DWIDTH 20 0
BBX 5 10 8 16
BITMAP
38
70
60
E0
C0
F8
F8
F8
F8
F8
ENDCHAR
STARTCHAR afii57929
ENCODING 700
SWIDTH 602 0
DWIDTH 20 0
BBX 5 10 8 16
BITMAP
F8
F8
F8
F8
F8
18
30
70
E0
C0
ENDCHAR
STARTCHAR afii64937
ENCODING 701
SWIDTH 602 0
DWIDTH 20 0
BBX 5 10 8 16
BITMAP
F8
F8
F8
F8
F8
C0
60
70
38
18
ENDCHAR
STARTCHAR circumflex
ENCODING 710
SWIDTH 602 0
DWIDTH 20 0
BBX 11 5 5 21
BITMAP
1F00
1F00
3B80
71C0
E0E0
ENDCHAR
STARTCHAR caron
ENCODING 711
SWIDTH 602 0
DWIDTH 20 0
BBX 11 5 5 21
BITMAP
E0E0
71C0
3B80
1F00
1F00
ENDCHAR
STARTCHAR uni02C8
ENCODING 712
SWIDTH 602 0
DWIDTH 20 0
BBX 4 10 8 16
BITMAP
F0
F0
F0
F0
F0
60
60
60
60
60
ENDCHAR
STARTCHAR macron
ENCODING 713
SWIDTH 602 0
DWIDTH 20 0
BBX 9 2 6 22
BITMAP
FF80
FF80
ENDCHAR
STARTCHAR uni02CA
ENCODING 714
SWIDTH 602 0
DWIDTH 20 0
BBX 7 5 6 21
BITMAP
1E
3C
38
70
E0
ENDCHAR
STARTCHAR uni02CB
ENCODING 715
SWIDTH 602 0
DWIDTH 20 0
BBX 7 5 7 21
BITMAP
F0
78
38
1C
0E
ENDCHAR
STARTCHAR uni02CD
ENCODING 717
SWIDTH 602 0
DWIDTH 20 0
BBX 9 2 6 -3
BITMAP
FF80
FF80
ENDCHAR
STARTCHAR uni02CE
ENCODING 718
SWIDTH 602 0
DWIDTH 20 0
BBX 7 5 7 -6
BITMAP
F0
78
38
1C
0E
ENDCHAR
STARTCHAR uni02CF
ENCODING 719
SWIDTH 602 0
DWIDTH 20 0
BBX 7 5 6 -6
BITMAP
1E
3C
38
70
E0
ENDCHAR
STARTCHAR breve
ENCODING 728
SWIDTH 602 0
DWIDTH 20 0
BBX 11 5 5 21
BITMAP
C060
E0E0
71C0
3F80
1F00
ENDCHAR
STARTCHAR dotaccent
ENCODING 729
SWIDTH 602 0
DWIDTH 20 0
BBX 3 3 9 22
BITMAP
E0
E0
E0
ENDCHAR
STARTCHAR ring
ENCODING 730
SWIDTH 602 0
DWIDTH 20 0
BBX 5 5 8 21
BITMAP
70
D8
88
D8
70
ENDCHAR
STARTCHAR ogonek
ENCODING 731
SWIDTH 602 0
DWIDTH 20 0
BBX 5 7 7 -7
BITMAP
30
60
C0
C0
C0
F8
78
ENDCHAR
STARTCHAR tilde
ENCODING 732
SWIDTH 602 0
DWIDTH 20 0
BBX 11 3 5 22
BITMAP
7C60
FFE0
C7C0
ENDCHAR
STARTCHAR hungarumlaut
ENCODING 733
SWIDTH 602 0
DWIDTH 20 0
BBX 11 5 5 21
BITMAP
1CE0
39C0
3180
6300
C600
ENDCHAR
STARTCHAR uni02EE
ENCODING 750
SWIDTH 602 0
DWIDTH 20 0
BBX 12 9 4 17
BITMAP
E0F0
E0F0
E0F0
E0F0
6030
6030
6030
4060
C0C0
ENDCHAR
STARTCHAR uni037E
ENCODING 894
SWIDTH 602 0
DWIDTH 20 0
BBX 5 24 8 -6
BITMAP
F8
F8
F8
F8
F8
00
00
00
00
00
00
00
00
F8
F8
F8
F8
F8
18
18
38
30
70
C0
ENDCHAR
STARTCHAR tonos
ENCODING 900
SWIDTH 602 0
DWIDTH 20 0
BBX 7 5 6 21
BITMAP
1E
3C
38
70
E0
ENDCHAR
STARTCHAR dieresistonos
ENCODING 901
SWIDTH 602 0
DWIDTH 20 0
BBX 9 8 6 23
BITMAP
0780
0F00
0E00
1C00
3800
0000
E380
E380
ENDCHAR
STARTCHAR anoteleia
ENCODING 903
SWIDTH 602 0
DWIDTH 20 0
BBX 4 3 8 8
BITMAP
F0
F0
F0
ENDCHAR
STARTCHAR mu
ENCODING 956
SWIDTH 602 0
DWIDTH 20 0
BBX 15 24 3 -6
BITMAP
E00E
E00E
E00E
E00E
E00E
E00E
E00E
E00E
E00E
E00E
E00E
E00E
E01E
E03E
F0FE
FFEE
FFCE
FF0E
E000
E000
E000
E000
E000
E000
ENDCHAR
STARTCHAR uni1E00
ENCODING 7680
SWIDTH 602 0
DWIDTH 20 0
BBX 20 31 0 -6
BITMAP
007000
00F000
00F000
00F800
01B800
01B800
019C00
031C00
031C00
030E00
060E00
060E00
060F00
0C0700
0C0700
0C0780
1FFF80
1FFF80
1803C0
3001C0
3001C0
3000E0
6000E0
6000E0
E00070
000000
007000
00D800
008800
00D800
007000
ENDCHAR
STARTCHAR uni1E01
ENCODING 7681
SWIDTH 602 0
DWIDTH 20 0
BBX 17 24 2 -6
BITMAP
0FE000
3FF800
303800
201C00
001C00
001C00
001C00
07FC00
1FFC00
7C1C00
701C00
E01C00
E01C00
E01C00
E03C00
707C00
7FEF80
1F8F80
000000
01C000
036000
022000
036000
01C000
ENDCHAR
STARTCHAR uni1E02
ENCODING 7682
SWIDTH 602 0
DWIDTH 20 0
BBX 15 29 3 0
BITMAP
0700
0700
0700
0000
FFE0
FFF8
E078
E03C
E01C
E01C
E01C
E01C
E038
E078
E0F0
FFE0
FFE0
E0F0
E038
E01C
E00E
E00E
E00E
E00E
E00E
E01C
E03C
FFF8
FFE0
ENDCHAR
STARTCHAR uni1E03
ENCODING 7683
SWIDTH 602 0
DWIDTH 20 0
BBX 16 30 3 0
BITMAP
3800
3800
3800
0000
E000
E000
E000
E000
E000
E000
E000
E000
E3F0
E7F8
EE1C
F80E
F00E
E007
E007
E007
E007
E007
E007
E007
E00E
E00E
F01C
FC3C
EFF8
E3E0
ENDCHAR
STARTCHAR uni1E04
ENCODING 7684
SWIDTH 602 0
DWIDTH 20 0
BBX 15 29 3 -4
BITMAP
FFE0
FFF8
E078
E03C
E01C
E01C
E01C
E01C
E038
E078
E0F0
FFE0
FFE0
E0F0
E038
E01C
E00E
E00E
E00E
E00E
E00E
E01C
E03C
FFF8
FFE0
0000
0380
0380
0380
ENDCHAR
STARTCHAR uni1E05
ENCODING 7685
SWIDTH 602 0
DWIDTH 20 0
BBX 16 30 3 -4
BITMAP
E000
E000
E000
E000
E000
E000
E000
E000
E3F0
E7F8
EE1C
F80E
F00E
E007
E007
E007
E007
E007
E007
E007
E00E
E00E
F01C
FC3C
EFF8
E3E0
0000
0380
0380
0380
ENDCHAR
STARTCHAR uni1E06
ENCODING 7686
SWIDTH 602 0
DWIDTH 20 0
BBX 15 28 3 -3
BITMAP
FFE0
FFF8
E078
E03C
E01C
E01C
E01C
E01C
E038
E078
E0F0
FFE0
FFE0
E0F0
E038
E01C
E00E
E00E
E00E
E00E
E00E
E01C
E03C
FFF8
FFE0
0000
1FF0
1FF0
ENDCHAR
STARTCHAR uni1E07
ENCODING 7687
SWIDTH 602 0
DWIDTH 20 0
BBX 16 29 3 -3
BITMAP
E000
E000
E000
E000
E000
E000
E000
E000
E3F0
E7F8
EE1C
F80E
F00E
E007
E007
E007
E007
E007
E007
E007
E00E
E00E
F01C
FC3C
EFF8
E3E0
0000
1FF0
1FF0
ENDCHAR
STARTCHAR uni1E08
ENCODING 7688
SWIDTH 602 0
DWIDTH 20 0
BBX 17 38 2 -7
BITMAP
007800
00F000
00E000
01C000
038000
000000
01FE00
07FF80
0F0380
1C0080
380000
380000
700000
700000
F00000
E00000
E00000
E00000
E00000
E00000
E00000
E00000
E00000
700000
700000
380000
3C0000
1E0000
0F8180
07FF80
00FE00
00C000
01C000
00E000
007000
003000
003000
01E000
ENDCHAR
STARTCHAR uni1E09
ENCODING 7689
SWIDTH 602 0
DWIDTH 20 0
BBX 15 31 3 -7
BITMAP
01E0
03C0
0380
0700
0E00
0000
03FC
0FFE
3E06
7800
7000
F000
E000
E000
E000
E000
E000
E000
7000
7000
3800
3E06
0FFE
03FC
0300
0700
0380
01C0
00C0
00C0
0780
ENDCHAR
STARTCHAR uni1E0A
ENCODING 7690
SWIDTH 602 0
DWIDTH 20 0
BBX 17 29 2 0
BITMAP
038000
038000
038000
000000
FFE000
FFF800
E07C00
E01E00
E00F00
E00700
E00700
E00380
E00380
E00380
E00380
E00380
E00380
E00380
E00380
E00380
E00380
E00700
E00700
E00700
E00E00
E01E00
E07C00
FFF000
FFC000
ENDCHAR
STARTCHAR uni1E0B
ENCODING 7691
SWIDTH 602 0
DWIDTH 20 0
BBX 16 30 2 0
BITMAP
001C
001C
001C
0000
0007
0007
0007
0007
0007
0007
0007
0007
07E7
1FF7
3C3F
380F
7007
7007
E007
E007
E007
E007
E007
E007
E007
700F
701F
3877
1FE7
0FC7
ENDCHAR
STARTCHAR uni1E0C
ENCODING 7692
SWIDTH 602 0
DWIDTH 20 0
BBX 17 29 2 -4
BITMAP
FFE000
FFF800
E07C00
E01E00
E00F00
E00700
E00700
E00380
E00380
E00380
E00380
E00380
E00380
E00380
E00380
E00380
E00380
E00700
E00700
E00700
E00E00
E01E00
E07C00
FFF000
FFC000
000000
038000
038000
038000
ENDCHAR
STARTCHAR uni1E0D
ENCODING 7693
SWIDTH 602 0
DWIDTH 20 0
BBX 16 30 2 -4
BITMAP
0007
0007
0007
0007
0007
0007
0007
0007
07E7
1FF7
3C3F
380F
7007
7007
E007
E007
E007
E007
E007
E007
E007
700F
701F
3877
1FE7
0FC7
0000
01C0
01C0
01C0
ENDCHAR
STARTCHAR uni1E0E
ENCODING 7694
SWIDTH 602 0
DWIDTH 20 0
BBX 17 28 2 -3
BITMAP
FFE000
FFF800
E07C00
E01E00
E00F00
E00700
E00700
E00380
E00380
E00380
E00380
E00380
E00380
E00380
E00380
E00380
E00380
E00700
E00700
E00700
E00E00
E01E00
E07C00
FFF000
FFC000
000000
1FF000
1FF000
ENDCHAR
STARTCHAR uni1E0F
ENCODING 7695
SWIDTH 602 0
DWIDTH 20 0
BBX 16 29 2 -3
BITMAP
0007
0007
0007
0007
0007
0007
0007
0007
07E7
1FF7
3C3F
380F
7007
7007
E007
E007
E007
E007
E007
E007
E007
700F
701F
3877
1FE7
0FC7
0000
0FF8
0FF8
ENDCHAR
STARTCHAR uni1E10
ENCODING 7696
SWIDTH 602 0
DWIDTH 20 0
BBX 17 32 2 -7
BITMAP
FFE000
FFF800
E07C00
E01E00
E00F00
E00700
E00700
E00380
E00380
E00380
E00380
E00380
E00380
E00380
E00380
E00380
E00380
E00700
E00700
E00700
E00E00
E01E00
E07C00
FFF000
FFC000
030000
070000
038000
01C000
00C000
00C000
078000
ENDCHAR
STARTCHAR uni1E11
ENCODING 7697
SWIDTH 602 0
DWIDTH 20 0
BBX 16 33 2 -7
BITMAP
0007
0007
0007
0007
0007
0007
0007
0007
07E7
1FF7
3C3F
380F
7007
7007
E007
E007
E007
E007
E007
E007
E007
700F
701F
3877
1FE7
0FC7
00C0
01C0
00E0
0070
0030
0030
01E0
ENDCHAR
STARTCHAR uni1E12
ENCODING 7698
SWIDTH 602 0
DWIDTH 20 0
BBX 17 31 2 -6
BITMAP
FFE000
FFF800
E07C00
E01E00
E00F00
E00700
E00700
E00380
E00380
E00380
E00380
E00380
E00380
E00380
E00380
E00380
E00380
E00700
E00700
E00700
E00E00
E01E00
E07C00
FFF000
FFC000
000000
07C000
07C000
0EE000
1C7000
383800
ENDCHAR
STARTCHAR uni1E13
ENCODING 7699
SWIDTH 602 0
DWIDTH 20 0
BBX 16 32 2 -6
BITMAP
0007
0007
0007
0007
0007
0007
0007
0007
07E7
1FF7
3C3F
380F
7007
7007
E007
E007
E007
E007
E007
E007
E007
700F
701F
3877
1FE7
0FC7
0000
03E0
03E0
0770
0E38
1C1C
ENDCHAR
STARTCHAR uni1E14
ENCODING 7700
SWIDTH 602 0
DWIDTH 20 0
BBX 15 34 4 0
BITMAP
3C00
1E00
0E00
0700
0380
0000
7FC0
7FC0
0000
FFFC
FFFC
E000
E000
E000
E000
E000
E000
E000
E000
E000
FFF8
FFF0
E000
E000
E000
E000
E000
E000
E000
E000
E000
E000
FFFE
FFFE
ENDCHAR
STARTCHAR uni1E15
ENCODING 7701
SWIDTH 602 0
DWIDTH 20 0
BBX 16 27 2 0
BITMAP
0F00
0780
0380
01C0
00E0
0000
0FF8
0FF8
0000
03F0
0FFC
1C1E
380E
700E
7007
E007
E007
FFFF
FFFF
E000
E000
6000
7000
3800
1C03
0FFF
03FC
ENDCHAR
STARTCHAR uni1E16
ENCODING 7702
SWIDTH 602 0
DWIDTH 20 0
BBX 15 34 4 0
BITMAP
01E0
03C0
0380
0700
0E00
0000
7FC0
7FC0
0000
FFFC
FFFC
E000
E000
E000
E000
E000
E000
E000
E000
E000
FFF8
FFF0
E000
E000
E000
E000
E000
E000
E000
E000
E000
E000
FFFE
FFFE
ENDCHAR
STARTCHAR uni1E17
ENCODING 7703
SWIDTH 602 0
DWIDTH 20 0
BBX 16 27 2 0
BITMAP
0078
00F0
00E0
01C0
0380
0000
0FF8
0FF8
0000
03F0
0FFC
1C1E
380E
700E
7007
E007
E007
FFFF
FFFF
E000
E000
6000
7000
3800
1C03
0FFF
03FC
ENDCHAR
STARTCHAR uni1E18
ENCODING 7704
SWIDTH 602 0
DWIDTH 20 0
BBX 15 31 4 -6
BITMAP
FFFC
FFFC
E000
E000
E000
E000
E000
E000
E000
E000
E000
FFF8
FFF0
E000
E000
E000
E000
E000
E000
E000
E000
E000
E000
FFFE
FFFE
0000
0F80
0F80
1DC0
38E0
7070
ENDCHAR
STARTCHAR uni1E19
ENCODING 7705
SWIDTH 602 0
DWIDTH 20 0
BBX 16 24 2 -6
BITMAP
03F0
0FFC
1C1E
380E
700E
7007
E007
E007
FFFF
FFFF
E000
E000
6000
7000
3800
1C03
0FFF
03FC
0000
03E0
03E0
0770
0E38
1C1C
ENDCHAR
STARTCHAR uni1E1A
ENCODING 7706
SWIDTH 602 0
DWIDTH 20 0
BBX 15 29 4 -4
BITMAP
FFFC
FFFC
E000
E000
E000
E000
E000
E000
E000
E000
E000
FFF8
FFF0
E000
E000
E000
E000
E000
E000
E000
E000
E000
E000
FFFE
FFFE
0000
3E30
7FF0
63E0
ENDCHAR
STARTCHAR uni1E1B
ENCODING 7707
SWIDTH 602 0
DWIDTH 20 0
BBX 16 22 2 -4
BITMAP
03F0
0FFC
1C1E
380E
700E
7007
E007
E007
FFFF
FFFF
E000
E000
6000
7000
3800
1C03
0FFF
03FC
0000
0F8C
1FFC
18F8
ENDCHAR
STARTCHAR uni1E1C
ENCODING 7708
SWIDTH 602 0
DWIDTH 20 0
BBX 15 38 4 -7
BITMAP
C060
E0E0
71C0
3F80
1F00
0000
FFFC
FFFC
E000
E000
E000
E000
E000
E000
E000
E000
E000
FFF8
FFF0
E000
E000
E000
E000
E000
E000
E000
E000
E000
E000
FFFE
FFFE
0600
0E00
0700
0380
0180
0180
0F00
ENDCHAR
STARTCHAR uni1E1D
ENCODING 7709
SWIDTH 602 0
DWIDTH 20 0
BBX 16 31 2 -7
BITMAP
180C
1C1C
0E38
07F0
03E0
0000
03F0
0FFC
1C1E
380E
700E
7007
E007
E007
FFFF
FFFF
E000
E000
6000
7000
3800
1C03
0FFF
03FC
0180
0380
01C0
00E0
0060
0060
03C0
ENDCHAR
STARTCHAR uni1E1E
ENCODING 7710
SWIDTH 602 0
DWIDTH 20 0
BBX 15 29 4 0
BITMAP
0700
0700
0700
0000
FFFE
FFFE
E000
E000
E000
E000
E000
E000
E000
E000
E000
FFF8
FFF8
E000
E000
E000
E000
E000
E000
E000
E000
E000
E000
E000
E000
ENDCHAR
STARTCHAR uni1E1F
ENCODING 7711
SWIDTH 602 0
DWIDTH 20 0
BBX 17 31 3 0
BITMAP
00E000
00E000
00E000
000000
007F00
01FF80
03C080
038000
070000
070000
070000
070000
070000
FFFF00
FFFF00
070000
070000
070000
070000
070000
070000
070000
070000
070000
070000
070000
070000
070000
070000
070000
070000
ENDCHAR
STARTCHAR uni1E20
ENCODING 7712
SWIDTH 602 0
DWIDTH 20 0
BBX 17 28 1 0
BITMAP
0FF800
0FF800
000000
01FF00
07FF80
0F0180
1C0000
380000
380000
700000
700000
E00000
E00000
E00000
E00000
E00000
E00000
E00380
E00380
F00380
700380
700380
380380
3C0380
1E0380
0F8380
07FF80
00FE00
ENDCHAR
STARTCHAR uni1E21
ENCODING 7713
SWIDTH 602 0
DWIDTH 20 0
BBX 16 28 2 -7
BITMAP
0FF8
0FF8
0000
07E3
1FFB
3C3F
380F
7007
7007
E007
E007
E007
E007
E007
E007
E007
700F
701F
3877
1FE7
0FC7
0007
0007
0006
000E
301C
3FF8
1FE0
ENDCHAR
STARTCHAR uni1E22
ENCODING 7714
SWIDTH 602 0
DWIDTH 20 0
BBX 16 29 2 0
BITMAP
01C0
01C0
01C0
0000
E007
E007
E007
E007
E007
E007
E007
E007
E007
E007
E007
FFFF
FFFF
E007
E007
E007
E007
E007
E007
E007
E007
E007
E007
E007
E007
ENDCHAR
STARTCHAR uni1E23
ENCODING 7715
SWIDTH 602 0
DWIDTH 20 0
BBX 15 30 3 0
BITMAP
3800
3800
3800
0000
E000
E000
E000
E000
E000
E000
E000
E000
E1F0
E7F8
EFFC
FC1E
F80E
F00E
E00E
E00E
E00E
E00E
E00E
E00E
E00E
E00E
E00E
E00E
E00E
E00E
ENDCHAR
STARTCHAR uni1E24
ENCODING 7716
SWIDTH 602 0
DWIDTH 20 0
BBX 16 29 2 -4
BITMAP
E007
E007
E007
E007
E007
E007
E007
E007
E007
E007
E007
FFFF
FFFF
E007
E007
E007
E007
E007
E007
E007
E007
E007
E007
E007
E007
0000
01C0
01C0
01C0
ENDCHAR
STARTCHAR uni1E25
ENCODING 7717
SWIDTH 602 0
DWIDTH 20 0
BBX 15 30 3 -4
BITMAP
E000
E000
E000
E000
E000
E000
E000
E000
E1F0
E7F8
EFFC
FC1E
F80E
F00E
E00E
E00E
E00E
E00E
E00E
E00E
E00E
E00E
E00E
E00E
E00E
E00E
0000
0380
0380
0380
ENDCHAR
STARTCHAR uni1E26
ENCODING 7718
SWIDTH 602 0
DWIDTH 20 0
BBX 16 28 2 0
BITMAP
0E38
0E38
0000
E007
E007
E007
E007
E007
E007
E007
E007
E007
E007
E007
FFFF
FFFF
E007
E007
E007
E007
E007
E007
E007
E007
E007
E007
E007
E007
ENDCHAR
STARTCHAR uni1E27
ENCODING 7719
SWIDTH 602 0
DWIDTH 20 0
BBX 16 29 2 0
BITMAP
E380
E380
0000
7000
7000
7000
7000
7000
7000
7000
7000
70F8
73FC
77FE
7E0F
7C07
7807
7007
7007
7007
7007
7007
7007
7007
7007
7007
7007
7007
7007
ENDCHAR
STARTCHAR uni1E28
ENCODING 7720
SWIDTH 602 0
DWIDTH 20 0
BBX 16 32 2 -7
BITMAP
E007
E007
E007
E007
E007
E007
E007
E007
E007
E007
E007
FFFF
FFFF
E007
E007
E007
E007
E007
E007
E007
E007
E007
E007
E007
E007
0180
0380
01C0
00E0
0060
0060
03C0
ENDCHAR
STARTCHAR uni1E29
ENCODING 7721
SWIDTH 602 0
DWIDTH 20 0
BBX 15 33 3 -7
BITMAP
E000
E000
E000
E000
E000
E000
E000
E000
E1F0
E7F8
EFFC
FC1E
F80E
F00E
E00E
E00E
E00E
E00E
E00E
E00E
E00E
E00E
E00E
E00E
E00E
E00E
0180
0380
01C0
00E0
0060
0060
03C0
ENDCHAR
STARTCHAR uni1E2A
ENCODING 7722
SWIDTH 602 0
DWIDTH 20 0
BBX 16 31 2 -6
BITMAP
E007
E007
E007
E007
E007
E007
E007
E007
E007
E007
E007
FFFF
FFFF
E007
E007
E007
E007
E007
E007
E007
E007
E007
E007
E007
E007
0000
180C
1C1C
0E38
07F0
03E0
ENDCHAR
STARTCHAR uni1E2B
ENCODING 7723
SWIDTH 602 0
DWIDTH 20 0
BBX 15 32 3 -6
BITMAP
E000
E000
E000
E000
E000
E000
E000
E000
E1F0
E7F8
EFFC
FC1E
F80E
F00E
E00E
E00E
E00E
E00E
E00E
E00E
E00E
E00E
E00E
E00E
E00E
E00E
0000
3018
3838
1C70
0FE0
07C0
ENDCHAR
STARTCHAR uni1E2C
ENCODING 7724
SWIDTH 602 0
DWIDTH 20 0
BBX 15 29 3 -4
BITMAP
FFFE
FFFE
0380
0380
0380
0380
0380
0380
0380
0380
0380
0380
0380
0380
0380
0380
0380
0380
0380
0380
0380
0380
0380
FFFE
FFFE
0000
1F18
3FF8
31F0
ENDCHAR
STARTCHAR uni1E2D
ENCODING 7725
SWIDTH 602 0
DWIDTH 20 0
BBX 13 30 3 -4
BITMAP
01C0
01C0
01C0
01C0
0000
0000
0000
0000
FFC0
FFC0
01C0
01C0
01C0
01C0
01C0
01C0
01C0
01C0
01C0
01C0
01C0
01C0
01C0
01C0
01C0
01C0
0000
1F18
3FF8
31F0
ENDCHAR
STARTCHAR uni1E2E
ENCODING 7726
SWIDTH 602 0
DWIDTH 20 0
BBX 15 34 3 0
BITMAP
00F0
01E0
01C0
0380
0700
0000
1C70
1C70
0000
FFFE
FFFE
0380
0380
0380
0380
0380
0380
0380
0380
0380
0380
0380
0380
0380
0380
0380
0380
0380
0380
0380
0380
0380
FFFE
FFFE
ENDCHAR
STARTCHAR uni1E2F
ENCODING 7727
SWIDTH 602 0
DWIDTH 20 0
BBX 12 27 3 0
BITMAP
01E0
03C0
0380
0700
0E00
0000
1C70
1C70
0000
FFC0
FFC0
01C0
01C0
01C0
01C0
01C0
01C0
01C0
01C0
01C0
01C0
01C0
01C0
01C0
01C0
01C0
01C0
ENDCHAR
STARTCHAR uni1E30
ENCODING 7728
SWIDTH 602 0
DWIDTH 20 0
BBX 17 31 3 0
BITMAP
01E000
03C000
038000
070000
0E0000
000000
E00E00
E01C00
E01800
E03000
E07000
E0E000
E0C000
E18000
E38000
E70000
E60000
EE0000
FE0000
EF0000
E78000
E38000
E3C000
E1E000
E0F000
E07800
E03800
E03C00
E01E00
E00F00
E00780
ENDCHAR
STARTCHAR uni1E31
ENCODING 7729
SWIDTH 602 0
DWIDTH 20 0
BBX 16 32 4 0
BITMAP
0F00
1E00
1C00
3800
7000
0000
E000
E000
E000
E000
E000
E000
E000
E000
E01C
E030
E070
E0E0
E1C0
E380
E700
EE00
EE00
FF00
E780
E3C0
E1E0
E0F0
E078
E07C
E03C
E01F
ENDCHAR
STARTCHAR uni1E32
ENCODING 7730
SWIDTH 602 0
DWIDTH 20 0
BBX 17 29 3 -4
BITMAP
E00E00
E01C00
E01800
E03000
E07000
E0E000
E0C000
E18000
E38000
E70000
E60000
EE0000
FE0000
EF0000
E78000
E38000
E3C000
E1E000
E0F000
E07800
E03800
E03C00
E01E00
E00F00
E00780
000000
038000
038000
038000
ENDCHAR
STARTCHAR uni1E33
ENCODING 7731
SWIDTH 602 0
DWIDTH 20 0
BBX 16 30 4 -4
BITMAP
E000
E000
E000
E000
E000
E000
E000
E000
E01C
E030
E070
E0E0
E1C0
E380
E700
EE00
EE00
FF00
E780
E3C0
E1E0
E0F0
E078
E07C
E03C
E01F
0000
0380
0380
0380
ENDCHAR
STARTCHAR uni1E34
ENCODING 7732
SWIDTH 602 0
DWIDTH 20 0
BBX 17 28 3 -3
BITMAP
E00E00
E01C00
E01800
E03000
E07000
E0E000
E0C000
E18000
E38000
E70000
E60000
EE0000
FE0000
EF0000
E78000
E38000
E3C000
E1E000
E0F000
E07800
E03800
E03C00
E01E00
E00F00
E00780
000000
1FF000
1FF000
ENDCHAR
STARTCHAR uni1E35
ENCODING 7733
SWIDTH 602 0
DWIDTH 20 0
BBX 16 29 4 -3
BITMAP
E000
E000
E000
E000
E000
E000
E000
E000
E01C
E030
E070
E0E0
E1C0
E380
E700
EE00
EE00
FF00
E780
E3C0
E1E0
E0F0
E078
E07C
E03C
E01F
0000
1FF0
1FF0
ENDCHAR
STARTCHAR uni1E36
ENCODING 7734
SWIDTH 602 0
DWIDTH 20 0
BBX 14 29 4 -4
BITMAP
E000
E000
E000
E000
E000
E000
E000
E000
E000
E000
E000
E000
E000
E000
E000
E000
E000
E000
E000
E000
E000
E000
E000
FFFC
FFFC
0000
0E00
0E00
0E00
ENDCHAR
STARTCHAR uni1E37
ENCODING 7735
SWIDTH 602 0
DWIDTH 20 0
BBX 10 30 3 -4
BITMAP
FFC0
FFC0
01C0
01C0
01C0
01C0
01C0
01C0
01C0
01C0
01C0
01C0
01C0
01C0
01C0
01C0
01C0
01C0
01C0
01C0
01C0
01C0
01C0
01C0
01C0
01C0
0000
0380
0380
0380
ENDCHAR
STARTCHAR uni1E38
ENCODING 7736
SWIDTH 602 0
DWIDTH 20 0
BBX 15 32 3 -4
BITMAP
FF80
FF80
0000
7000
7000
7000
7000
7000
7000
7000
7000
7000
7000
7000
7000
7000
7000
7000
7000
7000
7000
7000
7000
7000
7000
7000
7FFE
7FFE
0000
0700
0700
0700
ENDCHAR
STARTCHAR uni1E39
ENCODING 7737
SWIDTH 602 0
DWIDTH 20 0
BBX 11 33 3 -4
BITMAP
3FE0
3FE0
0000
FFC0
FFC0
01C0
01C0
01C0
01C0
01C0
01C0
01C0
01C0
01C0
01C0
01C0
01C0
01C0
01C0
01C0
01C0
01C0
01C0
01C0
01C0
01C0
01C0
01C0
01C0
0000
0380
0380
0380
ENDCHAR
STARTCHAR uni1E3A
ENCODING 7738
SWIDTH 602 0
DWIDTH 20 0
BBX 14 28 4 -3
BITMAP
E000
E000
E000
E000
E000
E000
E000
E000
E000
E000
E000
E000
E000
E000
E000
E000
E000
E000
E000
E000
E000
E000
E000
FFFC
FFFC
0000
7FC0
7FC0
ENDCHAR
STARTCHAR uni1E3B
ENCODING 7739
SWIDTH 602 0
DWIDTH 20 0
BBX 12 29 3 -3
BITMAP
FFC0
FFC0
01C0
01C0
01C0
01C0
01C0
01C0
01C0
01C0
01C0
01C0
01C0
01C0
01C0
01C0
01C0
01C0
01C0
01C0
01C0
01C0
01C0
01C0
01C0
01C0
0000
1FF0
1FF0
ENDCHAR
STARTCHAR uni1E3C
ENCODING 7740
SWIDTH 602 0
DWIDTH 20 0
BBX 14 31 4 -6
BITMAP
E000
E000
E000
E000
E000
E000
E000
E000
E000
E000
E000
E000
E000
E000
E000
E000
E000
E000
E000
E000
E000
E000
E000
FFFC
FFFC
0000
1F00
1F00
3B80
71C0
E0E0
ENDCHAR
STARTCHAR uni1E3D
ENCODING 7741
SWIDTH 602 0
DWIDTH 20 0
BBX 13 32 3 -6
BITMAP
FFC0
FFC0
01C0
01C0
01C0
01C0
01C0
01C0
01C0
01C0
01C0
01C0
01C0
01C0
01C0
01C0
01C0
01C0
01C0
01C0
01C0
01C0
01C0
01C0
01C0
01C0
0000
07C0
07C0
0EE0
1C70
3838
ENDCHAR
STARTCHAR uni1E3E
ENCODING 7742
SWIDTH 602 0
DWIDTH 20 0
BBX 18 31 1 0
BITMAP
003C00
007800
007000
00E000
01C000
000000
F003C0
F003C0
F003C0
F807C0
D806C0
D806C0
D806C0
DC0EC0
CC0CC0
CC0CC0
CC0CC0
CE1CC0
C618C0
C618C0
C618C0
C330C0
C330C0
C330C0
C330C0
C1E0C0
C1E0C0
C1E0C0
C0C0C0
C000C0
C000C0
ENDCHAR
STARTCHAR uni1E3F
ENCODING 7743
SWIDTH 602 0
DWIDTH 20 0
BBX 18 24 1 0
BITMAP
007800
00F000
00E000
01C000
038000
000000
C70780
CF9F80
D8D8C0
F0F0C0
E0E0C0
C0C0C0
C0C0C0
C0C0C0
C0C0C0
C0C0C0
C0C0C0
C0C0C0
C0C0C0
C0C0C0
C0C0C0
C0C0C0
C0C0C0
C0C0C0
ENDCHAR
STARTCHAR uni1E40
ENCODING 7744
SWIDTH 602 0
DWIDTH 20 0
BBX 18 29 1 0
BITMAP
00E000
00E000
00E000
000000
F003C0
F003C0
F003C0
F807C0
D806C0
D806C0
D806C0
DC0EC0
CC0CC0
CC0CC0
CC0CC0
CE1CC0
C618C0
C618C0
C618C0
C330C0
C330C0
C330C0
C330C0
C1E0C0
C1E0C0
C1E0C0
C0C0C0
C000C0
C000C0
ENDCHAR
STARTCHAR uni1E41
ENCODING 7745
SWIDTH 602 0
DWIDTH 20 0
BBX 18 22 1 0
BITMAP
01C000
01C000
01C000
000000
C70780
CF9F80
D8D8C0
F0F0C0
E0E0C0
C0C0C0
C0C0C0
C0C0C0
C0C0C0
C0C0C0
C0C0C0
C0C0C0
C0C0C0
C0C0C0
C0C0C0
C0C0C0
C0C0C0
C0C0C0
ENDCHAR
STARTCHAR uni1E42
ENCODING 7746
SWIDTH 602 0
DWIDTH 20 0
BBX 18 29 1 -4
BITMAP
F003C0
F003C0
F003C0
F807C0
D806C0
D806C0
D806C0
DC0EC0
CC0CC0
CC0CC0
CC0CC0
CE1CC0
C618C0
C618C0
C618C0
C330C0
C330C0
C330C0
C330C0
C1E0C0
C1E0C0
C1E0C0
C0C0C0
C000C0
C000C0
000000
00E000
00E000
00E000
ENDCHAR
STARTCHAR uni1E43
ENCODING 7747
SWIDTH 602 0
DWIDTH 20 0
BBX 18 22 1 -4
BITMAP
C70780
CF9F80
D8D8C0
F0F0C0
E0E0C0
C0C0C0
C0C0C0
C0C0C0
C0C0C0
C0C0C0
C0C0C0
C0C0C0
C0C0C0
C0C0C0
C0C0C0
C0C0C0
C0C0C0
C0C0C0
000000
00E000
00E000
00E000
ENDCHAR
STARTCHAR uni1E44
ENCODING 7748
SWIDTH 602 0
DWIDTH 20 0
BBX 16 29 2 0
BITMAP
0700
0700
0700
0000
E003
F003
F003
F803
F803
FC03
DC03
CE03
CF03
C703
C783
C383
C3C3
C1C3
C1E3
C0E3
C073
C07B
C03B
C03F
C01F
C01F
C00F
C007
C007
ENDCHAR
STARTCHAR uni1E45
ENCODING 7749
SWIDTH 602 0
DWIDTH 20 0
BBX 15 22 3 0
BITMAP
0380
0380
0380
0000
E1F0
E7F8
EFFC
FC1E
F80E
F00E
E00E
E00E
E00E
E00E
E00E
E00E
E00E
E00E
E00E
E00E
E00E
E00E
ENDCHAR
STARTCHAR uni1E46
ENCODING 7750
SWIDTH 602 0
DWIDTH 20 0
BBX 16 29 2 -4
BITMAP
E003
F003
F003
F803
F803
FC03
DC03
CE03
CF03
C703
C783
C383
C3C3
C1C3
C1E3
C0E3
C073
C07B
C03B
C03F
C01F
C01F
C00F
C007
C007
0000
00E0
00E0
00E0
ENDCHAR
STARTCHAR uni1E47
ENCODING 7751
SWIDTH 602 0
DWIDTH 20 0
BBX 15 22 3 -4
BITMAP
E1F0
E7F8
EFFC
FC1E
F80E
F00E
E00E
E00E
E00E
E00E
E00E
E00E
E00E
E00E
E00E
E00E
E00E
E00E
0000
0380
0380
0380
ENDCHAR
STARTCHAR uni1E48
ENCODING 7752
SWIDTH 602 0
DWIDTH 20 0
BBX 16 28 2 -3
BITMAP
E003
F003
F003
F803
F803
FC03
DC03
CE03
CF03
C703
C783
C383
C3C3
C1C3
C1E3
C0E3
C073
C07B
C03B
C03F
C01F
C01F
C00F
C007
C007
0000
07FC
07FC
ENDCHAR
STARTCHAR uni1E49
ENCODING 7753
SWIDTH 602 0
DWIDTH 20 0
BBX 15 21 3 -3
BITMAP
E1F0
E7F8
EFFC
FC1E
F80E
F00E
E00E
E00E
E00E
E00E
E00E
E00E
E00E
E00E
E00E
E00E
E00E
E00E
0000
1FF0
1FF0
ENDCHAR
STARTCHAR uni1E4A
ENCODING 7754
SWIDTH 602 0
DWIDTH 20 0
BBX 16 31 2 -6
BITMAP
E003
F003
F003
F803
F803
FC03
DC03
CE03
CF03
C703
C783
C383
C3C3
C1C3
C1E3
C0E3
C073
C07B
C03B
C03F
C01F
C01F
C00F
C007
C007
0000
01F0
01F0
03B8
071C
0E0E
ENDCHAR
STARTCHAR uni1E4B
ENCODING 7755
SWIDTH 602 0
DWIDTH 20 0
BBX 15 24 3 -6
BITMAP
E1F0
E7F8
EFFC
FC1E
F80E
F00E
E00E
E00E
E00E
E00E
E00E
E00E
E00E
E00E
E00E
E00E
E00E
E00E
0000
07C0
07C0
0EE0
1C70
3838
ENDCHAR
STARTCHAR uni1E4C
ENCODING 7756
SWIDTH 602 0
DWIDTH 20 0
BBX 18 35 1 0
BITMAP
007800
00F000
00E000
01C000
038000
000000
0F8C00
1FFC00
18F800
000000
03F000
0FFC00
1E1E00
380700
380700
700380
700380
700380
E001C0
E001C0
E001C0
E001C0
E001C0
E001C0
E001C0
E001C0
E001C0
700380
700380
700380
380700
3C0F00
1E1E00
0FFC00
03F000
ENDCHAR
STARTCHAR uni1E4D
ENCODING 7757
SWIDTH 602 0
DWIDTH 20 0
BBX 17 28 2 0
BITMAP
007800
00F000
00E000
01C000
038000
000000
0F8C00
1FFC00
18F800
000000
07F000
1FFC00
3C1E00
780F00
700700
F00780
E00380
E00380
E00380
E00380
E00380
E00380
F00780
700700
780F00
3C1E00
1FFC00
07F000
ENDCHAR
STARTCHAR uni1E4E
ENCODING 7758
SWIDTH 602 0
DWIDTH 20 0
BBX 18 32 1 0
BITMAP
0E3800
0E3800
000000
0F8C00
1FFC00
18F800
000000
03F000
0FFC00
1E1E00
380700
380700
700380
700380
700380
E001C0
E001C0
E001C0
E001C0
E001C0
E001C0
E001C0
E001C0
E001C0
700380
700380
700380
380700
3C0F00
1E1E00
0FFC00
03F000
ENDCHAR
STARTCHAR uni1E4F
ENCODING 7759
SWIDTH 602 0
DWIDTH 20 0
BBX 17 25 2 0
BITMAP
0E3800
0E3800
000000
0F8C00
1FFC00
18F800
000000
07F000
1FFC00
3C1E00
780F00
700700
F00780
E00380
E00380
E00380
E00380
E00380
E00380
F00780
700700
780F00
3C1E00
1FFC00
07F000
ENDCHAR
STARTCHAR uni1E50
ENCODING 7760
SWIDTH 602 0
DWIDTH 20 0
BBX 18 34 1 0
BITMAP
078000
03C000
01C000
00E000
007000
000000
07FC00
07FC00
000000
03F000
0FFC00
1E1E00
380700
380700
700380
700380
700380
E001C0
E001C0
E001C0
E001C0
E001C0
E001C0
E001C0
E001C0
E001C0
700380
700380
700380
380700
3C0F00
1E1E00
0FFC00
03F000
ENDCHAR
STARTCHAR uni1E51
ENCODING 7761
SWIDTH 602 0
DWIDTH 20 0
BBX 17 27 2 0
BITMAP
0F0000
078000
038000
01C000
00E000
000000
0FF800
0FF800
000000
07F000
1FFC00
3C1E00
780F00
700700
F00780
E00380
E00380
E00380
E00380
E00380
E00380
F00780
700700
780F00
3C1E00
1FFC00
07F000
ENDCHAR
STARTCHAR uni1E52
ENCODING 7762
SWIDTH 602 0
DWIDTH 20 0
BBX 18 34 1 0
BITMAP
003C00
007800
007000
00E000
01C000
000000
07FC00
07FC00
000000
03F000
0FFC00
1E1E00
380700
380700
700380
700380
700380
E001C0
E001C0
E001C0
E001C0
E001C0
E001C0
E001C0
E001C0
E001C0
700380
700380
700380
380700
3C0F00
1E1E00
0FFC00
03F000
ENDCHAR
STARTCHAR uni1E53
ENCODING 7763
SWIDTH 602 0
DWIDTH 20 0
BBX 17 27 2 0
BITMAP
007800
00F000
00E000
01C000
038000
000000
0FF800
0FF800
000000
07F000
1FFC00
3C1E00
780F00
700700
F00780
E00380
E00380
E00380
E00380
E00380
E00380
F00780
700700
780F00
3C1E00
1FFC00
07F000
ENDCHAR
STARTCHAR uni1E54
ENCODING 7764
SWIDTH 602 0
DWIDTH 20 0
BBX 15 31 4 0
BITMAP
00F0
01E0
01C0
0380
0700
0000
FFE0
FFF8
E03C
E01E
E00E
E00E
E00E
E00E
E00E
E01C
E01C
E078
FFF0
FF80
E000
E000
E000
E000
E000
E000
E000
E000
E000
E000
E000
ENDCHAR
STARTCHAR uni1E55
ENCODING 7765
SWIDTH 602 0
DWIDTH 20 0
BBX 16 31 3 -7
BITMAP
00F0
01E0
01C0
0380
0700
0000
E3F0
E7F8
EE1C
F80E
F00E
E007
E007
E007
E007
E007
E007
E007
E00E
E00E
F01C
FC3C
EFF8
E7E0
E000
E000
E000
E000
E000
E000
E000
ENDCHAR
STARTCHAR uni1E56
ENCODING 7766
SWIDTH 602 0
DWIDTH 20 0
BBX 15 29 4 0
BITMAP
0380
0380
0380
0000
FFE0
FFF8
E03C
E01E
E00E
E00E
E00E
E00E
E00E
E01C
E01C
E078
FFF0
FF80
E000
E000
E000
E000
E000
E000
E000
E000
E000
E000
E000
ENDCHAR
STARTCHAR uni1E57
ENCODING 7767
SWIDTH 602 0
DWIDTH 20 0
BBX 16 29 3 -7
BITMAP
0380
0380
0380
0000
E3F0
E7F8
EE1C
F80E
F00E
E007
E007
E007
E007
E007
E007
E007
E00E
E00E
F01C
FC3C
EFF8
E7E0
E000
E000
E000
E000
E000
E000
E000
ENDCHAR
STARTCHAR uni1E58
ENCODING 7768
SWIDTH 602 0
DWIDTH 20 0
BBX 17 29 3 0
BITMAP
038000
038000
038000
000000
FFC000
FFF000
E07800
E03C00
E01C00
E01C00
E01C00
E01C00
E03C00
E07800
E0F800
FFF000
FFE000
E3C000
E1C000
E0E000
E0E000
E07000
E07800
E03800
E03C00
E01E00
E00E00
E00F00
E00780
ENDCHAR
STARTCHAR uni1E59
ENCODING 7769
SWIDTH 602 0
DWIDTH 20 0
BBX 13 22 5 0
BITMAP
0700
0700
0700
0000
E1F8
E7F8
EE18
F818
F018
E000
E000
E000
E000
E000
E000
E000
E000
E000
E000
E000
E000
E000
ENDCHAR
STARTCHAR uni1E5A
ENCODING 7770
SWIDTH 602 0
DWIDTH 20 0
BBX 17 29 3 -4
BITMAP
FFC000
FFF000
E07800
E03C00
E01C00
E01C00
E01C00
E01C00
E03C00
E07800
E0F800
FFF000
FFE000
E3C000
E1C000
E0E000
E0E000
E07000
E07800
E03800
E03C00
E01E00
E00E00
E00F00
E00780
000000
01C000
01C000
01C000
ENDCHAR
STARTCHAR uni1E5B
ENCODING 7771
SWIDTH 602 0
DWIDTH 20 0
BBX 13 22 5 -4
BITMAP
E1F8
E7F8
EE18
F818
F018
E000
E000
E000
E000
E000
E000
E000
E000
E000
E000
E000
E000
E000
0000
3800
3800
3800
ENDCHAR
STARTCHAR uni1E5C
ENCODING 7772
SWIDTH 602 0
DWIDTH 20 0
BBX 17 32 3 -4
BITMAP
1FF000
1FF000
000000
FFC000
FFF000
E07800
E03C00
E01C00
E01C00
E01C00
E01C00
E03C00
E07800
E0F800
FFF000
FFE000
E3C000
E1C000
E0E000
E0E000
E07000
E07800
E03800
E03C00
E01E00
E00E00
E00F00
E00780
000000
01C000
01C000
01C000
ENDCHAR
STARTCHAR uni1E5D
ENCODING 7773
SWIDTH 602 0
DWIDTH 20 0
BBX 13 25 5 -4
BITMAP
3FE0
3FE0
0000
E1F8
E7F8
EE18
F818
F018
E000
E000
E000
E000
E000
E000
E000
E000
E000
E000
E000
E000
E000
0000
3800
3800
3800
ENDCHAR
STARTCHAR uni1E5E
ENCODING 7774
SWIDTH 602 0
DWIDTH 20 0
BBX 17 28 3 -3
BITMAP
FFC000
FFF000
E07800
E03C00
E01C00
E01C00
E01C00
E01C00
E03C00
E07800
E0F800
FFF000
FFE000
E3C000
E1C000
E0E000
E0E000
E07000
E07800
E03800
E03C00
E01E00
E00E00
E00F00
E00780
000000
0FF800
0FF800
ENDCHAR
STARTCHAR uni1E5F
ENCODING 7775
SWIDTH 602 0
DWIDTH 20 0
BBX 14 21 4 -3
BITMAP
70FC
73FC
770C
7C0C
780C
7000
7000
7000
7000
7000
7000
7000
7000
7000
7000
7000
7000
7000
0000
FF80
FF80
ENDCHAR
STARTCHAR uni1E60
ENCODING 7776
SWIDTH 602 0
DWIDTH 20 0
BBX 16 29 3 0
BITMAP
0700
0700
0700
0000
0FF8
3FFE
780E
7000
E000
E000
E000
F000
F000
7C00
3F00
0FC0
03F0
00FC
003E
001E
000F
0007
0007
0007
0007
800E
F03C
FFF8
1FE0
ENDCHAR
STARTCHAR uni1E61
ENCODING 7777
SWIDTH 602 0
DWIDTH 20 0
BBX 14 22 3 0
BITMAP
0700
0700
0700
0000
0FF0
3FF8
7018
E000
E000
E000
F800
7F00
3FE0
0FF8
01FC
003C
001C
001C
801C
E078
FFF0
3FC0
ENDCHAR
STARTCHAR uni1E62
ENCODING 7778
SWIDTH 602 0
DWIDTH 20 0
BBX 16 29 3 -4
BITMAP
0FF8
3FFE
780E
7000
E000
E000
E000
F000
F000
7C00
3F00
0FC0
03F0
00FC
003E
001E
000F
0007
0007
0007
0007
800E
F03C
FFF8
1FE0
0000
01C0
01C0
01C0
ENDCHAR
STARTCHAR uni1E63
ENCODING 7779
SWIDTH 602 0
DWIDTH 20 0
BBX 14 22 3 -4
BITMAP
0FF0
3FF8
7018
E000
E000
E000
F800
7F00
3FE0
0FF8
01FC
003C
001C
001C
801C
E078
FFF0
3FC0
0000
0380
0380
0380
ENDCHAR
STARTCHAR uni1E64
ENCODING 7780
SWIDTH 602 0
DWIDTH 20 0
BBX 16 35 3 0
BITMAP
01C0
01C0
01C0
0000
01E0
03C0
0380
0700
0E00
0000
0FF8
3FFE
780E
7000
E000
E000
E000
F000
F000
7C00
3F00
0FC0
03F0
00FC
003E
001E
000F
0007
0007
0007
0007
800E
F03C
FFF8
1FE0
ENDCHAR
STARTCHAR uni1E65
ENCODING 7781
SWIDTH 602 0
DWIDTH 20 0
BBX 14 28 3 0
BITMAP
0380
0380
0380
0000
01E0
03C0
0380
0700
0E00
0000
0FF0
3FF8
7018
E000
E000
E000
F800
7F00
3FE0
0FF8
01FC
003C
001C
001C
801C
E078
FFF0
3FC0
ENDCHAR
STARTCHAR uni1E66
ENCODING 7782
SWIDTH 602 0
DWIDTH 20 0
BBX 16 35 3 0
BITMAP
0380
0380
0380
0000
3838
1C70
0EE0
07C0
07C0
0000
0FF8
3FFE
780E
7000
E000
E000
E000
F000
F000
7C00
3F00
0FC0
03F0
00FC
003E
001E
000F
0007
0007
0007
0007
800E
F03C
FFF8
1FE0
ENDCHAR
STARTCHAR uni1E67
ENCODING 7783
SWIDTH 602 0
DWIDTH 20 0
BBX 14 28 3 0
BITMAP
0700
0700
0700
0000
7070
38E0
1DC0
0F80
0F80
0000
0FF0
3FF8
7018
E000
E000
E000
F800
7F00
3FE0
0FF8
01FC
003C
001C
001C
801C
E078
FFF0
3FC0
ENDCHAR
STARTCHAR uni1E68
ENCODING 7784
SWIDTH 602 0
DWIDTH 20 0
BBX 16 33 3 -4
BITMAP
0700
0700
0700
0000
0FF8
3FFE
780E
7000
E000
E000
E000
F000
F000
7C00
3F00
0FC0
03F0
00FC
003E
001E
000F
0007
0007
0007
0007
800E
F03C
FFF8
1FE0
0000
01C0
01C0
01C0
ENDCHAR
STARTCHAR uni1E69
ENCODING 7785
SWIDTH 602 0
DWIDTH 20 0
BBX 14 26 3 -4
BITMAP
0700
0700
0700
0000
0FF0
3FF8
7018
E000
E000
E000
F800
7F00
3FE0
0FF8
01FC
003C
001C
001C
801C
E078
FFF0
3FC0
0000
0380
0380
0380
ENDCHAR
STARTCHAR uni1E6A
ENCODING 7786
SWIDTH 602 0
DWIDTH 20 0
BBX 19 29 1 0
BITMAP
00E000
00E000
00E000
000000
FFFFE0
FFFFE0
00E000
00E000
00E000
00E000
00E000
00E000
00E000
00E000
00E000
00E000
00E000
00E000
00E000
00E000
00E000
00E000
00E000
00E000
00E000
00E000
00E000
00E000
00E000
ENDCHAR
STARTCHAR uni1E6B
ENCODING 7787
SWIDTH 602 0
DWIDTH 20 0
BBX 16 26 2 0
BITMAP
0380
0380
0380
0000
0700
0700
0700
0700
FFFF
FFFF
0700
0700
0700
0700
0700
0700
0700
0700
0700
0700
0700
0700
0700
0380
03FF
00FF
ENDCHAR
STARTCHAR uni1E6C
ENCODING 7788
SWIDTH 602 0
DWIDTH 20 0
BBX 19 29 1 -4
BITMAP
FFFFE0
FFFFE0
00E000
00E000
00E000
00E000
00E000
00E000
00E000
00E000
00E000
00E000
00E000
00E000
00E000
00E000
00E000
00E000
00E000
00E000
00E000
00E000
00E000
00E000
00E000
000000
00E000
00E000
00E000
ENDCHAR
STARTCHAR uni1E6D
ENCODING 7789
SWIDTH 602 0
DWIDTH 20 0
BBX 16 26 2 -4
BITMAP
0700
0700
0700
0700
FFFF
FFFF
0700
0700
0700
0700
0700
0700
0700
0700
0700
0700
0700
0700
0700
0380
03FF
00FF
0000
00E0
00E0
00E0
ENDCHAR
STARTCHAR uni1E6E
ENCODING 7790
SWIDTH 602 0
DWIDTH 20 0
BBX 19 28 1 -3
BITMAP
FFFFE0
FFFFE0
00E000
00E000
00E000
00E000
00E000
00E000
00E000
00E000
00E000
00E000
00E000
00E000
00E000
00E000
00E000
00E000
00E000
00E000
00E000
00E000
00E000
00E000
00E000
000000
07FC00
07FC00
ENDCHAR
STARTCHAR uni1E6F
ENCODING 7791
SWIDTH 602 0
DWIDTH 20 0
BBX 16 25 2 -3
BITMAP
0700
0700
0700
0700
FFFF
FFFF
0700
0700
0700
0700
0700
0700
0700
0700
0700
0700
0700
0700
0700
0380
03FF
00FF
0000
07FC
07FC
ENDCHAR
STARTCHAR uni1E70
ENCODING 7792
SWIDTH 602 0
DWIDTH 20 0
BBX 19 31 1 -6
BITMAP
FFFFE0
FFFFE0
00E000
00E000
00E000
00E000
00E000
00E000
00E000
00E000
00E000
00E000
00E000
00E000
00E000
00E000
00E000
00E000
00E000
00E000
00E000
00E000
00E000
00E000
00E000
000000
01F000
01F000
03B800
071C00
0E0E00
ENDCHAR
STARTCHAR uni1E71
ENCODING 7793
SWIDTH 602 0
DWIDTH 20 0
BBX 16 28 2 -6
BITMAP
0700
0700
0700
0700
FFFF
FFFF
0700
0700
0700
0700
0700
0700
0700
0700
0700
0700
0700
0700
0700
0380
03FF
00FF
0000
01F0
01F0
03B8
071C
0E0E
ENDCHAR
STARTCHAR uni1E72
ENCODING 7794
SWIDTH 602 0
DWIDTH 20 0
BBX 15 28 3 -3
BITMAP
E006
E006
E006
E006
E006
E006
E006
E006
E006
E006
E006
E006
E006
E006
E006
E006
E006
E006
E006
E006
F00C
700C
781C
3FF8
0FE0
0000
1C70
1C70
ENDCHAR
STARTCHAR uni1E73
ENCODING 7795
SWIDTH 602 0
DWIDTH 20 0
BBX 15 21 3 -3
BITMAP
E00E
E00E
E00E
E00E
E00E
E00E
E00E
E00E
E00E
E00E
E00E
E00E
E01E
E03E
F07E
7FEE
3FCE
1F0E
0000
1C70
1C70
ENDCHAR
STARTCHAR uni1E74
ENCODING 7796
SWIDTH 602 0
DWIDTH 20 0
BBX 15 29 3 -4
BITMAP
E006
E006
E006
E006
E006
E006
E006
E006
E006
E006
E006
E006
E006
E006
E006
E006
E006
E006
E006
E006
F00C
700C
781C
3FF8
0FE0
0000
1F18
3FF8
31F0
ENDCHAR
STARTCHAR uni1E75
ENCODING 7797
SWIDTH 602 0
DWIDTH 20 0
BBX 15 22 3 -4
BITMAP
E00E
E00E
E00E
E00E
E00E
E00E
E00E
E00E
E00E
E00E
E00E
E00E
E01E
E03E
F07E
7FEE
3FCE
1F0E
0000
1F18
3FF8
31F0
ENDCHAR
STARTCHAR uni1E76
ENCODING 7798
SWIDTH 602 0
DWIDTH 20 0
BBX 15 31 3 -6
BITMAP
E006
E006
E006
E006
E006
E006
E006
E006
E006
E006
E006
E006
E006
E006
E006
E006
E006
E006
E006
E006
F00C
700C
781C
3FF8
0FE0
0000
07C0
07C0
0EE0
1C70
3838
ENDCHAR
STARTCHAR uni1E77
ENCODING 7799
SWIDTH 602 0
DWIDTH 20 0
BBX 15 24 3 -6
BITMAP
E00E
E00E
E00E
E00E
E00E
E00E
E00E
E00E
E00E
E00E
E00E
E00E
E01E
E03E
F07E
7FEE
3FCE
1F0E
0000
07C0
07C0
0EE0
1C70
3838
ENDCHAR
STARTCHAR uni1E78
ENCODING 7800
SWIDTH 602 0
DWIDTH 20 0
BBX 15 35 3 0
BITMAP
01E0
03C0
0380
0700
0E00
0000
3E30
7FF0
63E0
0000
E006
E006
E006
E006
E006
E006
E006
E006
E006
E006
E006
E006
E006
E006
E006
E006
E006
E006
E006
E006
F00C
700C
781C
3FF8
0FE0
ENDCHAR
STARTCHAR uni1E79
ENCODING 7801
SWIDTH 602 0
DWIDTH 20 0
BBX 15 28 3 0
BITMAP
00F0
01E0
01C0
0380
0700
0000
1F18
3FF8
31F0
0000
E00E
E00E
E00E
E00E
E00E
E00E
E00E
E00E
E00E
E00E
E00E
E00E
E01E
E03E
F07E
7FEE
3FCE
1F0E
ENDCHAR
STARTCHAR uni1E7A
ENCODING 7802
SWIDTH 602 0
DWIDTH 20 0
BBX 15 31 3 0
BITMAP
38E0
38E0
0000
3FE0
3FE0
0000
E006
E006
E006
E006
E006
E006
E006
E006
E006
E006
E006
E006
E006
E006
E006
E006
E006
E006
E006
E006
F00C
700C
781C
3FF8
0FE0
ENDCHAR
STARTCHAR uni1E7B
ENCODING 7803
SWIDTH 602 0
DWIDTH 20 0
BBX 15 24 3 0
BITMAP
1C70
1C70
0000
1FF0
1FF0
0000
E00E
E00E
E00E
E00E
E00E
E00E
E00E
E00E
E00E
E00E
E00E
E00E
E01E
E03E
F07E
7FEE
3FCE
1F0E
ENDCHAR
STARTCHAR uni1E7C
ENCODING 7804
SWIDTH 602 0
DWIDTH 20 0
BBX 20 29 0 0
BITMAP
07C600
0FFE00
0C7C00
000000
E00070
700060
700060
7000C0
3800C0
3800C0
380180
1C0180
1C0180
1C0300
0E0300
0E0300
0E0600
070600
070600
070C00
038C00
038C00
039800
01D800
01D800
01F000
01F000
00F000
00E000
ENDCHAR
STARTCHAR uni1E7D
ENCODING 7805
SWIDTH 602 0
DWIDTH 20 0
BBX 18 22 1 0
BITMAP
0F8C00
1FFC00
18F800
000000
E001C0
700180
700380
780300
380300
3C0600
1C0600
1C0E00
1E0C00
0E0C00
0F1800
071800
073000
03B000
03F000
03E000
01E000
01C000
ENDCHAR
STARTCHAR uni1E7E
ENCODING 7806
SWIDTH 602 0
DWIDTH 20 0
BBX 20 29 0 -4
BITMAP
E00070
700060
700060
7000C0
3800C0
3800C0
380180
1C0180
1C0180
1C0300
0E0300
0E0300
0E0600
070600
070600
070C00
038C00
038C00
039800
01D800
01D800
01F000
01F000
00F000
00E000
000000
00E000
00E000
00E000
ENDCHAR
STARTCHAR uni1E7F
ENCODING 7807
SWIDTH 602 0
DWIDTH 20 0
BBX 18 22 1 -4
BITMAP
E001C0
700180
700380
780300
380300
3C0600
1C0600
1C0E00
1E0C00
0E0C00
0F1800
071800
073000
03B000
03F000
03E000
01E000
01C000
000000
01C000
01C000
01C000
ENDCHAR
STARTCHAR Wgrave
ENCODING 7808
SWIDTH 602 0
DWIDTH 20 0
BBX 20 31 0 0
BITMAP
078000
03C000
01C000
00E000
007000
000000
C00030
C00030
C0E030
C0E060
E1F060
E1F060
61F060
61F060
61B060
61B0C0
6338C0
6338C0
7338C0
7318C0
7218C0
7619C0
761D80
761D80
760D80
340D80
340F80
3C0F80
3C0F00
380700
380700
ENDCHAR
STARTCHAR wgrave
ENCODING 7809
SWIDTH 602 0
DWIDTH 20 0
BBX 20 24 0 0
BITMAP
078000
03C000
01C000
00E000
007000
000000
E00030
E00030
E0F060
70F060
70F060
70F060
719860
7198C0
3198C0
3B98C0
3B0CC0
3B0DC0
3B0D80
3E0D80
1E0D80
1E0780
1E0780
1C0700
ENDCHAR
STARTCHAR Wacute
ENCODING 7810
SWIDTH 602 0
DWIDTH 20 0
BBX 20 31 0 0
BITMAP
003C00
007800
007000
00E000
01C000
000000
C00030
C00030
C0E030
C0E060
E1F060
E1F060
61F060
61F060
61B060
61B0C0
6338C0
6338C0
7338C0
7318C0
7218C0
7619C0
761D80
761D80
760D80
340D80
340F80
3C0F80
3C0F00
380700
380700
ENDCHAR
STARTCHAR wacute
ENCODING 7811
SWIDTH 602 0
DWIDTH 20 0
BBX 20 24 0 0
BITMAP
003C00
007800
007000
00E000
01C000
000000
E00030
E00030
E0F060
70F060
70F060
70F060
719860
7198C0
3198C0
3B98C0
3B0CC0
3B0DC0
3B0D80
3E0D80
1E0D80
1E0780
1E0780
1C0700
ENDCHAR
STARTCHAR Wdieresis
ENCODING 7812
SWIDTH 602 0
DWIDTH 20 0
BBX 20 28 0 0
BITMAP
071C00
071C00
000000
C00030
C00030
C0E030
C0E060
E1F060
E1F060
61F060
61F060
61B060
61B0C0
6338C0
6338C0
7338C0
7318C0
7218C0
7619C0
761D80
761D80
760D80
340D80
340F80
3C0F80
3C0F00
380700
380700
ENDCHAR
STARTCHAR wdieresis
ENCODING 7813
SWIDTH 602 0
DWIDTH 20 0
BBX 20 21 0 0
BITMAP
071C00
071C00
000000
E00030
E00030
E0F060
70F060
70F060
70F060
719860
7198C0
3198C0
3B98C0
3B0CC0
3B0DC0
3B0D80
3E0D80
1E0D80
1E0780
1E0780
1C0700
ENDCHAR
STARTCHAR uni1E86
ENCODING 7814
SWIDTH 602 0
DWIDTH 20 0
BBX 20 29 0 0
BITMAP
00E000
00E000
00E000
000000
C00030
C00030
C0E030
C0E060
E1F060
E1F060
61F060
61F060
61B060
61B0C0
6338C0
6338C0
7338C0
7318C0
7218C0
7619C0
761D80
761D80
760D80
340D80
340F80
3C0F80
3C0F00
380700
380700
ENDCHAR
STARTCHAR uni1E87
ENCODING 7815
SWIDTH 602 0
DWIDTH 20 0
BBX 20 22 0 0
BITMAP
00E000
00E000
00E000
000000
E00030
E00030
E0F060
70F060
70F060
70F060
719860
7198C0
3198C0
3B98C0
3B0CC0
3B0DC0
3B0D80
3E0D80
1E0D80
1E0780
1E0780
1C0700
ENDCHAR
STARTCHAR uni1E88
ENCODING 7816
SWIDTH 602 0
DWIDTH 20 0
BBX 20 29 0 -4
BITMAP
C00030
C00030
C0E030
C0E060
E1F060
E1F060
61F060
61F060
61B060
61B0C0
6338C0
6338C0
7338C0
7318C0
7218C0
7619C0
761D80
761D80
760D80
340D80
340F80
3C0F80
3C0F00
380700
380700
000000
00E000
00E000
00E000
ENDCHAR
STARTCHAR uni1E89
ENCODING 7817
SWIDTH 602 0
DWIDTH 20 0
BBX 20 22 0 -4
BITMAP
E00030
E00030
E0F060
70F060
70F060
70F060
719860
7198C0
3198C0
3B98C0
3B0CC0
3B0DC0
3B0D80
3E0D80
1E0D80
1E0780
1E0780
1C0700
000000
00E000
00E000
00E000
ENDCHAR
STARTCHAR uni1E8A
ENCODING 7818
SWIDTH 602 0
DWIDTH 20 0
BBX 20 29 0 0
BITMAP
00E000
00E000
00E000
000000
7800E0
3800C0
3C01C0
1E0380
0E0300
0F0700
070600
038C00
03DC00
01D800
01F000
00F000
007000
00F800
01F800
01BC00
031E00
070E00
060F00
0C0700
1C0380
1803C0
3001C0
7001E0
E000F0
ENDCHAR
STARTCHAR uni1E8B
ENCODING 7819
SWIDTH 602 0
DWIDTH 20 0
BBX 18 22 1 0
BITMAP
01C000
01C000
01C000
000000
F00380
780700
3C0600
1E0C00
0E1C00
0F1800
07B000
03F000
01E000
01E000
03F000
077800
063C00
0C1C00
1C1E00
380F00
300780
E003C0
ENDCHAR
STARTCHAR uni1E8C
ENCODING 7820
SWIDTH 602 0
DWIDTH 20 0
BBX 20 28 0 0
BITMAP
071C00
071C00
000000
7800E0
3800C0
3C01C0
1E0380
0E0300
0F0700
070600
038C00
03DC00
01D800
01F000
00F000
007000
00F800
01F800
01BC00
031E00
070E00
060F00
0C0700
1C0380
1803C0
3001C0
7001E0
E000F0
ENDCHAR
STARTCHAR uni1E8D
ENCODING 7821
SWIDTH 602 0
DWIDTH 20 0
BBX 18 21 1 0
BITMAP
0E3800
0E3800
000000
F00380
780700
3C0600
1E0C00
0E1C00
0F1800
07B000
03F000
01E000
01E000
03F000
077800
063C00
0C1C00
1C1E00
380F00
300780
E003C0
ENDCHAR
STARTCHAR uni1E8E
ENCODING 7822
SWIDTH 602 0
DWIDTH 20 0
BBX 20 29 0 0
BITMAP
00E000
00E000
00E000
000000
F00070
7000E0
3800C0
3C01C0
1C0380
1E0300
0E0700
0F0600
070C00
078C00
03D800
01F800
01F000
00E000
00E000
00E000
00E000
00E000
00E000
00E000
00E000
00E000
00E000
00E000
00E000
ENDCHAR
STARTCHAR uni1E8F
ENCODING 7823
SWIDTH 602 0
DWIDTH 20 0
BBX 18 29 1 -7
BITMAP
01C000
01C000
01C000
000000
F001C0
700180
700380
380300
380300
3C0600
1C0600
1C0C00
0E0C00
0E1C00
0F1800
071800
073000
03B000
03E000
01E000
01E000
01C000
01C000
018000
018000
030000
070000
7E0000
780000
ENDCHAR
STARTCHAR uni1E90
ENCODING 7824
SWIDTH 602 0
DWIDTH 20 0
BBX 17 31 2 0
BITMAP
01F000
01F000
03B800
071C00
0E0E00
000000
7FFF80
7FFF80
000780
000F00
000E00
001E00
001C00
003800
007800
007000
00F000
01E000
01C000
03C000
078000
070000
0F0000
1E0000
1C0000
3C0000
780000
700000
F00000
FFFF80
FFFF80
ENDCHAR
STARTCHAR uni1E91
ENCODING 7825
SWIDTH 602 0
DWIDTH 20 0
BBX 16 24 2 0
BITMAP
03E0
03E0
0770
0E38
1C1C
0000
FFFF
FFFF
000E
001C
0038
0030
0060
00E0
01C0
0380
0700
0E00
1C00
1800
3000
6000
FFFF
FFFF
ENDCHAR
STARTCHAR uni1E92
ENCODING 7826
SWIDTH 602 0
DWIDTH 20 0
BBX 17 29 2 -4
BITMAP
7FFF80
7FFF80
000780
000F00
000E00
001E00
001C00
003800
007800
007000
00F000
01E000
01C000
03C000
078000
070000
0F0000
1E0000
1C0000
3C0000
780000
700000
F00000
FFFF80
FFFF80
000000
038000
038000
038000
ENDCHAR
STARTCHAR uni1E93
ENCODING 7827
SWIDTH 602 0
DWIDTH 20 0
BBX 16 22 2 -4
BITMAP
FFFF
FFFF
000E
001C
0038
0030
0060
00E0
01C0
0380
0700
0E00
1C00
1800
3000
6000
FFFF
FFFF
0000
0380
0380
0380
ENDCHAR
STARTCHAR uni1E94
ENCODING 7828
SWIDTH 602 0
DWIDTH 20 0
BBX 17 28 2 -3
BITMAP
7FFF80
7FFF80
000780
000F00
000E00
001E00
001C00
003800
007800
007000
00F000
01E000
01C000
03C000
078000
070000
0F0000
1E0000
1C0000
3C0000
780000
700000
F00000
FFFF80
FFFF80
000000
1FF000
1FF000
ENDCHAR
STARTCHAR uni1E95
ENCODING 7829
SWIDTH 602 0
DWIDTH 20 0
BBX 16 21 2 -3
BITMAP
FFFF
FFFF
000E
001C
0038
0030
0060
00E0
01C0
0380
0700
0E00
1C00
1800
3000
6000
FFFF
FFFF
0000
1FF0
1FF0
ENDCHAR
STARTCHAR uni1E96
ENCODING 7830
SWIDTH 602 0
DWIDTH 20 0
BBX 15 29 3 -3
BITMAP
E000
E000
E000
E000
E000
E000
E000
E000
E1F0
E7F8
EFFC
FC1E
F80E
F00E
E00E
E00E
E00E
E00E
E00E
E00E
E00E
E00E
E00E
E00E
E00E
E00E
0000
1FF0
1FF0
ENDCHAR
STARTCHAR uni1E97
ENCODING 7831
SWIDTH 602 0
DWIDTH 20 0
BBX 16 25 2 0
BITMAP
1C70
1C70
0000
0700
0700
0700
0700
FFFF
FFFF
0700
0700
0700
0700
0700
0700
0700
0700
0700
0700
0700
0700
0700
0380
03FF
00FF
ENDCHAR
STARTCHAR uni1E98
ENCODING 7832
SWIDTH 602 0
DWIDTH 20 0
BBX 20 24 0 0
BITMAP
00E000
01B000
011000
01B000
00E000
000000
E00030
E00030
E0F060
70F060
70F060
70F060
719860
7198C0
3198C0
3B98C0
3B0CC0
3B0DC0
3B0D80
3E0D80
1E0D80
1E0780
1E0780
1C0700
ENDCHAR
STARTCHAR uni1E99
ENCODING 7833
SWIDTH 602 0
DWIDTH 20 0
BBX 18 31 1 -7
BITMAP
01C000
036000
022000
036000
01C000
000000
F001C0
700180
700380
380300
380300
3C0600
1C0600
1C0C00
0E0C00
0E1C00
0F1800
071800
073000
03B000
03E000
01E000
01E000
01C000
01C000
018000
018000
030000
070000
7E0000
780000
ENDCHAR
STARTCHAR uni1EA0
ENCODING 7840
SWIDTH 602 0
DWIDTH 20 0
BBX 20 29 0 -4
BITMAP
007000
00F000
00F000
00F800
01B800
01B800
019C00
031C00
031C00
030E00
060E00
060E00
060F00
0C0700
0C0700
0C0780
1FFF80
1FFF80
1803C0
3001C0
3001C0
3000E0
6000E0
6000E0
E00070
000000
007000
007000
007000
ENDCHAR
STARTCHAR uni1EA1
ENCODING 7841
SWIDTH 602 0
DWIDTH 20 0
BBX 17 22 2 -4
BITMAP
0FE000
3FF800
303800
201C00
001C00
001C00
001C00
07FC00
1FFC00
7C1C00
701C00
E01C00
E01C00
E01C00
E03C00
707C00
7FEF80
1F8F80
000000
01C000
01C000
01C000
ENDCHAR
STARTCHAR uni1EA4
ENCODING 7844
SWIDTH 602 0
DWIDTH 20 0
BBX 20 37 0 0
BITMAP
001E00
003C00
003800
007000
00E000
000000
00F800
00F800
01DC00
038E00
070700
000000
007000
00F000
00F000
00F800
01B800
01B800
019C00
031C00
031C00
030E00
060E00
060E00
060F00
0C0700
0C0700
0C0780
1FFF80
1FFF80
1803C0
3001C0
3001C0
3000E0
6000E0
6000E0
E00070
ENDCHAR
STARTCHAR uni1EA5
ENCODING 7845
SWIDTH 602 0
DWIDTH 20 0
BBX 17 30 2 0
BITMAP
00F000
01E000
01C000
038000
070000
000000
07C000
07C000
0EE000
1C7000
383800
000000
0FE000
3FF800
303800
201C00
001C00
001C00
001C00
07FC00
1FFC00
7C1C00
701C00
E01C00
E01C00
E01C00
E03C00
707C00
7FEF80
1F8F80
ENDCHAR
STARTCHAR uni1EA6
ENCODING 7846
SWIDTH 602 0
DWIDTH 20 0
BBX 20 37 0 0
BITMAP
03C000
01E000
00E000
007000
003800
000000
00F800
00F800
01DC00
038E00
070700
000000
007000
00F000
00F000
00F800
01B800
01B800
019C00
031C00
031C00
030E00
060E00
060E00
060F00
0C0700
0C0700
0C0780
1FFF80
1FFF80
1803C0
3001C0
3001C0
3000E0
6000E0
6000E0
E00070
ENDCHAR
STARTCHAR uni1EA7
ENCODING 7847
SWIDTH 602 0
DWIDTH 20 0
BBX 17 30 2 0
BITMAP
1E0000
0F0000
070000
038000
01C000
000000
07C000
07C000
0EE000
1C7000
383800
000000
0FE000
3FF800
303800
201C00
001C00
001C00
001C00
07FC00
1FFC00
7C1C00
701C00
E01C00
E01C00
E01C00
E03C00
707C00
7FEF80
1F8F80
ENDCHAR
STARTCHAR uni1EAA
ENCODING 7850
SWIDTH 602 0
DWIDTH 20 0
BBX 20 35 0 0
BITMAP
03E300
07FF00
063E00
000000
00F800
00F800
01DC00
038E00
070700
000000
007000
00F000
00F000
00F800
01B800
01B800
019C00
031C00
031C00
030E00
060E00
060E00
060F00
0C0700
0C0700
0C0780
1FFF80
1FFF80
1803C0
3001C0
3001C0
3000E0
6000E0
6000E0
E00070
ENDCHAR
STARTCHAR uni1EAB
ENCODING 7851
SWIDTH 602 0
DWIDTH 20 0
BBX 17 28 2 0
BITMAP
1F1800
3FF800
31F000
000000
07C000
07C000
0EE000
1C7000
383800
000000
0FE000
3FF800
303800
201C00
001C00
001C00
001C00
07FC00
1FFC00
7C1C00
701C00
E01C00
E01C00
E01C00
E03C00
707C00
7FEF80
1F8F80
ENDCHAR
STARTCHAR uni1EAC
ENCODING 7852
SWIDTH 602 0
DWIDTH 20 0
BBX 20 35 0 -4
BITMAP
00F800
00F800
01DC00
038E00
070700
000000
007000
00F000
00F000
00F800
01B800
01B800
019C00
031C00
031C00
030E00
060E00
060E00
060F00
0C0700
0C0700
0C0780
1FFF80
1FFF80
1803C0
3001C0
3001C0
3000E0
6000E0
6000E0
E00070
000000
007000
007000
007000
ENDCHAR
STARTCHAR uni1EAD
ENCODING 7853
SWIDTH 602 0
DWIDTH 20 0
BBX 17 28 2 -4
BITMAP
03E000
03E000
077000
0E3800
1C1C00
000000
0FE000
3FF800
303800
201C00
001C00
001C00
001C00
07FC00
1FFC00
7C1C00
701C00
E01C00
E01C00
E01C00
E03C00
707C00
7FEF80
1F8F80
000000
01C000
01C000
01C000
ENDCHAR
STARTCHAR uni1EAE
ENCODING 7854
SWIDTH 602 0
DWIDTH 20 0
BBX 20 37 0 0
BITMAP
001E00
003C00
003800
007000
00E000
000000
060300
070700
038E00
01FC00
00F800
000000
007000
00F000
00F000
00F800
01B800
01B800
019C00
031C00
031C00
030E00
060E00
060E00
060F00
0C0700
0C0700
0C0780
1FFF80
1FFF80
1803C0
3001C0
3001C0
3000E0
6000E0
6000E0
E00070
ENDCHAR
STARTCHAR uni1EAF
ENCODING 7855
SWIDTH 602 0
DWIDTH 20 0
BBX 17 30 2 0
BITMAP
007800
00F000
00E000
01C000
038000
000000
180C00
1C1C00
0E3800
07F000
03E000
000000
0FE000
3FF800
303800
201C00
001C00
001C00
001C00
07FC00
1FFC00
7C1C00
701C00
E01C00
E01C00
E01C00
E03C00
707C00
7FEF80
1F8F80
ENDCHAR
STARTCHAR uni1EB0
ENCODING 7856
SWIDTH 602 0
DWIDTH 20 0
BBX 20 37 0 0
BITMAP
03C000
01E000
00E000
007000
003800
000000
060300
070700
038E00
01FC00
00F800
000000
007000
00F000
00F000
00F800
01B800
01B800
019C00
031C00
031C00
030E00
060E00
060E00
060F00
0C0700
0C0700
0C0780
1FFF80
1FFF80
1803C0
3001C0
3001C0
3000E0
6000E0
6000E0
E00070
ENDCHAR
STARTCHAR uni1EB1
ENCODING 7857
SWIDTH 602 0
DWIDTH 20 0
BBX 17 30 2 0
BITMAP
0F0000
078000
038000
01C000
00E000
000000
180C00
1C1C00
0E3800
07F000
03E000
000000
0FE000
3FF800
303800
201C00
001C00
001C00
001C00
07FC00
1FFC00
7C1C00
701C00
E01C00
E01C00
E01C00
E03C00
707C00
7FEF80
1F8F80
ENDCHAR
STARTCHAR uni1EB4
ENCODING 7860
SWIDTH 602 0
DWIDTH 20 0
BBX 20 35 0 0
BITMAP
03E300
07FF00
063E00
000000
060300
070700
038E00
01FC00
00F800
000000
007000
00F000
00F000
00F800
01B800
01B800
019C00
031C00
031C00
030E00
060E00
060E00
060F00
0C0700
0C0700
0C0780
1FFF80
1FFF80
1803C0
3001C0
3001C0
3000E0
6000E0
6000E0
E00070
ENDCHAR
STARTCHAR uni1EB5
ENCODING 7861
SWIDTH 602 0
DWIDTH 20 0
BBX 17 28 2 0
BITMAP
0F8C00
1FFC00
18F800
000000
180C00
1C1C00
0E3800
07F000
03E000
000000
0FE000
3FF800
303800
201C00
001C00
001C00
001C00
07FC00
1FFC00
7C1C00
701C00
E01C00
E01C00
E01C00
E03C00
707C00
7FEF80
1F8F80
ENDCHAR
STARTCHAR uni1EB6
ENCODING 7862
SWIDTH 602 0
DWIDTH 20 0
BBX 20 35 0 -4
BITMAP
060300
070700
038E00
01FC00
00F800
000000
007000
00F000
00F000
00F800
01B800
01B800
019C00
031C00
031C00
030E00
060E00
060E00
060F00
0C0700
0C0700
0C0780
1FFF80
1FFF80
1803C0
3001C0
3001C0
3000E0
6000E0
6000E0
E00070
000000
007000
007000
007000
ENDCHAR
STARTCHAR uni1EB7
ENCODING 7863
SWIDTH 602 0
DWIDTH 20 0
BBX 17 28 2 -4
BITMAP
180C00
1C1C00
0E3800
07F000
03E000
000000
0FE000
3FF800
303800
201C00
001C00
001C00
001C00
07FC00
1FFC00
7C1C00
701C00
E01C00
E01C00
E01C00
E03C00
707C00
7FEF80
1F8F80
000000
01C000
01C000
01C000
ENDCHAR
STARTCHAR uni1EB8
ENCODING 7864
SWIDTH 602 0
DWIDTH 20 0
BBX 15 29 4 -4
BITMAP
FFFC
FFFC
E000
E000
E000
E000
E000
E000
E000
E000
E000
FFF8
FFF0
E000
E000
E000
E000
E000
E000
E000
E000
E000
E000
FFFE
FFFE
0000
0700
0700
0700
ENDCHAR
STARTCHAR uni1EB9
ENCODING 7865
SWIDTH 602 0
DWIDTH 20 0
BBX 16 22 2 -4
BITMAP
03F0
0FFC
1C1E
380E
700E
7007
E007
E007
FFFF
FFFF
E000
E000
6000
7000
3800
1C03
0FFF
03FC
0000
01C0
01C0
01C0
ENDCHAR
STARTCHAR uni1EBC
ENCODING 7868
SWIDTH 602 0
DWIDTH 20 0
BBX 15 29 4 0
BITMAP
7C60
FFE0
C7C0
0000
FFFC
FFFC
E000
E000
E000
E000
E000
E000
E000
E000
E000
FFF8
FFF0
E000
E000
E000
E000
E000
E000
E000
E000
E000
E000
FFFE
FFFE
ENDCHAR
STARTCHAR uni1EBD
ENCODING 7869
SWIDTH 602 0
DWIDTH 20 0
BBX 16 22 2 0
BITMAP
0F8C
1FFC
18F8
0000
03F0
0FFC
1C1E
380E
700E
7007
E007
E007
FFFF
FFFF
E000
E000
6000
7000
3800
1C03
0FFF
03FC
ENDCHAR
STARTCHAR uni1EBE
ENCODING 7870
SWIDTH 602 0
DWIDTH 20 0
BBX 15 37 4 0
BITMAP
00F0
01E0
01C0
0380
0700
0000
07C0
07C0
0EE0
1C70
3838
0000
FFFC
FFFC
E000
E000
E000
E000
E000
E000
E000
E000
E000
FFF8
FFF0
E000
E000
E000
E000
E000
E000
E000
E000
E000
E000
FFFE
FFFE
ENDCHAR
STARTCHAR uni1EBF
ENCODING 7871
SWIDTH 602 0
DWIDTH 20 0
BBX 16 30 2 0
BITMAP
00F0
01E0
01C0
0380
0700
0000
07C0
07C0
0EE0
1C70
3838
0000
03F0
0FFC
1C1E
380E
700E
7007
E007
E007
FFFF
FFFF
E000
E000
6000
7000
3800
1C03
0FFF
03FC
ENDCHAR
STARTCHAR uni1EC0
ENCODING 7872
SWIDTH 602 0
DWIDTH 20 0
BBX 15 37 4 0
BITMAP
1E00
0F00
0700
0380
01C0
0000
07C0
07C0
0EE0
1C70
3838
0000
FFFC
FFFC
E000
E000
E000
E000
E000
E000
E000
E000
E000
FFF8
FFF0
E000
E000
E000
E000
E000
E000
E000
E000
E000
E000
FFFE
FFFE
ENDCHAR
STARTCHAR uni1EC1
ENCODING 7873
SWIDTH 602 0
DWIDTH 20 0
BBX 16 30 2 0
BITMAP
1E00
0F00
0700
0380
01C0
0000
07C0
07C0
0EE0
1C70
3838
0000
03F0
0FFC
1C1E
380E
700E
7007
E007
E007
FFFF
FFFF
E000
E000
6000
7000
3800
1C03
0FFF
03FC
ENDCHAR
STARTCHAR uni1EC4
ENCODING 7876
SWIDTH 602 0
DWIDTH 20 0
BBX 15 35 4 0
BITMAP
1F18
3FF8
31F0
0000
07C0
07C0
0EE0
1C70
3838
0000
FFFC
FFFC
E000
E000
E000
E000
E000
E000
E000
E000
E000
FFF8
FFF0
E000
E000
E000
E000
E000
E000
E000
E000
E000
E000
FFFE
FFFE
ENDCHAR
STARTCHAR uni1EC5
ENCODING 7877
SWIDTH 602 0
DWIDTH 20 0
BBX 16 28 2 0
BITMAP
1F18
3FF8
31F0
0000
07C0
07C0
0EE0
1C70
3838
0000
03F0
0FFC
1C1E
380E
700E
7007
E007
E007
FFFF
FFFF
E000
E000
6000
7000
3800
1C03
0FFF
03FC
ENDCHAR
STARTCHAR uni1EC6
ENCODING 7878
SWIDTH 602 0
DWIDTH 20 0
BBX 15 35 4 -4
BITMAP
1F00
1F00
3B80
71C0
E0E0
0000
FFFC
FFFC
E000
E000
E000
E000
E000
E000
E000
E000
E000
FFF8
FFF0
E000
E000
E000
E000
E000
E000
E000
E000
E000
E000
FFFE
FFFE
0000
0700
0700
0700
ENDCHAR
STARTCHAR uni1EC7
ENCODING 7879
SWIDTH 602 0
DWIDTH 20 0
BBX 16 28 2 -4
BITMAP
03E0
03E0
0770
0E38
1C1C
0000
03F0
0FFC
1C1E
380E
700E
7007
E007
E007
FFFF
FFFF
E000
E000
6000
7000
3800
1C03
0FFF
03FC
0000
01C0
01C0
01C0
ENDCHAR
STARTCHAR uni1ECA
ENCODING 7882
SWIDTH 602 0
DWIDTH 20 0
BBX 15 29 3 -4
BITMAP
FFFE
FFFE
0380
0380
0380
0380
0380
0380
0380
0380
0380
0380
0380
0380
0380
0380
0380
0380
0380
0380
0380
0380
0380
FFFE
FFFE
0000
0380
0380
0380
ENDCHAR
STARTCHAR uni1ECB
ENCODING 7883
SWIDTH 602 0
DWIDTH 20 0
BBX 10 30 3 -4
BITMAP
01C0
01C0
01C0
01C0
0000
0000
0000
0000
FFC0
FFC0
01C0
01C0
01C0
01C0
01C0
01C0
01C0
01C0
01C0
01C0
01C0
01C0
01C0
01C0
01C0
01C0
0000
0380
0380
0380
ENDCHAR
STARTCHAR uni1ECC
ENCODING 7884
SWIDTH 602 0
DWIDTH 20 0
BBX 18 29 1 -4
BITMAP
03F000
0FFC00
1E1E00
380700
380700
700380
700380
700380
E001C0
E001C0
E001C0
E001C0
E001C0
E001C0
E001C0
E001C0
E001C0
700380
700380
700380
380700
3C0F00
1E1E00
0FFC00
03F000
000000
00E000
00E000
00E000
ENDCHAR
STARTCHAR uni1ECD
ENCODING 7885
SWIDTH 602 0
DWIDTH 20 0
BBX 17 22 2 -4
BITMAP
07F000
1FFC00
3C1E00
780F00
700700
F00780
E00380
E00380
E00380
E00380
E00380
E00380
F00780
700700
780F00
3C1E00
1FFC00
07F000
000000
01C000
01C000
01C000
ENDCHAR
STARTCHAR uni1ED0
ENCODING 7888
SWIDTH 602 0
DWIDTH 20 0
BBX 18 37 1 0
BITMAP
007800
00F000
00E000
01C000
038000
000000
03E000
03E000
077000
0E3800
1C1C00
000000
03F000
0FFC00
1E1E00
380700
380700
700380
700380
700380
E001C0
E001C0
E001C0
E001C0
E001C0
E001C0
E001C0
E001C0
E001C0
700380
700380
700380
380700
3C0F00
1E1E00
0FFC00
03F000
ENDCHAR
STARTCHAR uni1ED1
ENCODING 7889
SWIDTH 602 0
DWIDTH 20 0
BBX 17 30 2 0
BITMAP
007800
00F000
00E000
01C000
038000
000000
03E000
03E000
077000
0E3800
1C1C00
000000
07F000
1FFC00
3C1E00
780F00
700700
F00780
E00380
E00380
E00380
E00380
E00380
E00380
F00780
700700
780F00
3C1E00
1FFC00
07F000
ENDCHAR
STARTCHAR uni1ED2
ENCODING 7890
SWIDTH 602 0
DWIDTH 20 0
BBX 18 37 1 0
BITMAP
0F0000
078000
038000
01C000
00E000
000000
03E000
03E000
077000
0E3800
1C1C00
000000
03F000
0FFC00
1E1E00
380700
380700
700380
700380
700380
E001C0
E001C0
E001C0
E001C0
E001C0
E001C0
E001C0
E001C0
E001C0
700380
700380
700380
380700
3C0F00
1E1E00
0FFC00
03F000
ENDCHAR
STARTCHAR uni1ED3
ENCODING 7891
SWIDTH 602 0
DWIDTH 20 0
BBX 17 30 2 0
BITMAP
0F0000
078000
038000
01C000
00E000
000000
03E000
03E000
077000
0E3800
1C1C00
000000
07F000
1FFC00
3C1E00
780F00
700700
F00780
E00380
E00380
E00380
E00380
E00380
E00380
F00780
700700
780F00
3C1E00
1FFC00
07F000
ENDCHAR
STARTCHAR uni1ED6
ENCODING 7894
SWIDTH 602 0
DWIDTH 20 0
BBX 18 35 1 0
BITMAP
0F8C00
1FFC00
18F800
000000
03E000
03E000
077000
0E3800
1C1C00
000000
03F000
0FFC00
1E1E00
380700
380700
700380
700380
700380
E001C0
E001C0
E001C0
E001C0
E001C0
E001C0
E001C0
E001C0
E001C0
700380
700380
700380
380700
3C0F00
1E1E00
0FFC00
03F000
ENDCHAR
STARTCHAR uni1ED7
ENCODING 7895
SWIDTH 602 0
DWIDTH 20 0
BBX 17 28 2 0
BITMAP
0F8C00
1FFC00
18F800
000000
03E000
03E000
077000
0E3800
1C1C00
000000
07F000
1FFC00
3C1E00
780F00
700700
F00780
E00380
E00380
E00380
E00380
E00380
E00380
F00780
700700
780F00
3C1E00
1FFC00
07F000
ENDCHAR
STARTCHAR uni1ED8
ENCODING 7896
SWIDTH 602 0
DWIDTH 20 0
BBX 18 35 1 -4
BITMAP
01F000
01F000
03B800
071C00
0E0E00
000000
03F000
0FFC00
1E1E00
380700
380700
700380
700380
700380
E001C0
E001C0
E001C0
E001C0
E001C0
E001C0
E001C0
E001C0
E001C0
700380
700380
700380
380700
3C0F00
1E1E00
0FFC00
03F000
000000
00E000
00E000
00E000
ENDCHAR
STARTCHAR uni1ED9
ENCODING 7897
SWIDTH 602 0
DWIDTH 20 0
BBX 17 28 2 -4
BITMAP
03E000
03E000
077000
0E3800
1C1C00
000000
07F000
1FFC00
3C1E00
780F00
700700
F00780
E00380
E00380
E00380
E00380
E00380
E00380
F00780
700700
780F00
3C1E00
1FFC00
07F000
000000
01C000
01C000
01C000
ENDCHAR
STARTCHAR uni1EDA
ENCODING 7898
SWIDTH 602 0
DWIDTH 20 0
BBX 21 31 1 0
BITMAP
000F00
001E00
001C00
003800
007000
000000
03F0F8
0FFCF8
1E1EF8
3807F8
3807F8
700398
7003B0
7003F0
E001E0
E001C0
E001C0
E001C0
E001C0
E001C0
E001C0
E001C0
E001C0
700380
700380
700380
380700
3C0F00
1E1E00
0FFC00
03F000
ENDCHAR
STARTCHAR uni1EDB
ENCODING 7899
SWIDTH 602 0
DWIDTH 20 0
BBX 20 24 2 0
BITMAP
000F00
001E00
001C00
003800
007000
000000
07F1F0
1FFDF0
3C1FF0
780FF0
7007F0
F007B0
E003E0
E003E0
E003C0
E00380
E00380
E00380
F00780
700700
780F00
3C1E00
1FFC00
07F000
ENDCHAR
STARTCHAR uni1EDC
ENCODING 7900
SWIDTH 602 0
DWIDTH 20 0
BBX 21 31 1 0
BITMAP
01E000
00F000
007000
003800
001C00
000000
03F0F8
0FFCF8
1E1EF8
3807F8
3807F8
700398
7003B0
7003F0
E001E0
E001C0
E001C0
E001C0
E001C0
E001C0
E001C0
E001C0
E001C0
700380
700380
700380
380700
3C0F00
1E1E00
0FFC00
03F000
ENDCHAR
STARTCHAR uni1EDD
ENCODING 7901
SWIDTH 602 0
DWIDTH 20 0
BBX 20 24 2 0
BITMAP
01E000
00F000
007000
003800
001C00
000000
07F1F0
1FFDF0
3C1FF0
780FF0
7007F0
F007B0
E003E0
E003E0
E003C0
E00380
E00380
E00380
F00780
700700
780F00
3C1E00
1FFC00
07F000
ENDCHAR
STARTCHAR uni1EE0
ENCODING 7904
SWIDTH 602 0
DWIDTH 20 0
BBX 21 29 1 0
BITMAP
01F180
03FF80
031F00
000000
03F0F8
0FFCF8
1E1EF8
3807F8
3807F8
700398
7003B0
7003F0
E001E0
E001C0
E001C0
E001C0
E001C0
E001C0
E001C0
E001C0
E001C0
700380
700380
700380
380700
3C0F00
1E1E00
0FFC00
03F000
ENDCHAR
STARTCHAR uni1EE1
ENCODING 7905
SWIDTH 602 0
DWIDTH 20 0
BBX 20 22 2 0
BITMAP
01F180
03FF80
031F00
000000
07F1F0
1FFDF0
3C1FF0
780FF0
7007F0
F007B0
E003E0
E003E0
E003C0
E00380
E00380
E00380
F00780
700700
780F00
3C1E00
1FFC00
07F000
ENDCHAR
STARTCHAR uni1EE2
ENCODING 7906
SWIDTH 602 0
DWIDTH 20 0
BBX 21 29 1 -4
BITMAP
03F0F8
0FFCF8
1E1EF8
3807F8
3807F8
700398
7003B0
7003F0
E001E0
E001C0
E001C0
E001C0
E001C0
E001C0
E001C0
E001C0
E001C0
700380
700380
700380
380700
3C0F00
1E1E00
0FFC00
03F000
000000
00E000
00E000
00E000
ENDCHAR
STARTCHAR uni1EE3
ENCODING 7907
SWIDTH 602 0
DWIDTH 20 0
BBX 20 22 2 -4
BITMAP
07F1F0
1FFDF0
3C1FF0
780FF0
7007F0
F007B0
E003E0
E003E0
E003C0
E00380
E00380
E00380
F00780
700700
780F00
3C1E00
1FFC00
07F000
000000
00E000
00E000
00E000
ENDCHAR
STARTCHAR uni1EE4
ENCODING 7908
SWIDTH 602 0
DWIDTH 20 0
BBX 15 29 3 -4
BITMAP
E006
E006
E006
E006
E006
E006
E006
E006
E006
E006
E006
E006
E006
E006
E006
E006
E006
E006
E006
E006
F00C
700C
781C
3FF8
0FE0
0000
0380
0380
0380
ENDCHAR
STARTCHAR uni1EE5
ENCODING 7909
SWIDTH 602 0
DWIDTH 20 0
BBX 15 22 3 -4
BITMAP
E00E
E00E
E00E
E00E
E00E
E00E
E00E
E00E
E00E
E00E
E00E
E00E
E01E
E03E
F07E
7FEE
3FCE
1F0E
0000
0380
0380
0380
ENDCHAR
STARTCHAR uni1EE8
ENCODING 7912
SWIDTH 602 0
DWIDTH 20 0
BBX 19 31 3 0
BITMAP
001E00
003C00
003800
007000
00E000
000000
E007E0
E007E0
E007E0
E007E0
E007E0
E00660
E006C0
E007C0
E00780
E00700
E00600
E00600
E00600
E00600
E00600
E00600
E00600
E00600
E00600
E00600
F00C00
700C00
781C00
3FF800
0FE000
ENDCHAR
STARTCHAR uni1EE9
ENCODING 7913
SWIDTH 602 0
DWIDTH 20 0
BBX 19 24 3 0
BITMAP
001E00
003C00
003800
007000
00E000
000000
E00FE0
E00FE0
E00FE0
E00FE0
E00FE0
E00E60
E00EC0
E00FC0
E00F80
E00F00
E00E00
E00E00
E01E00
E03E00
F07E00
7FEE00
3FCE00
1F0E00
ENDCHAR
STARTCHAR uni1EEA
ENCODING 7914
SWIDTH 602 0
DWIDTH 20 0
BBX 19 31 3 0
BITMAP
03C000
01E000
00E000
007000
003800
000000
E007E0
E007E0
E007E0
E007E0
E007E0
E00660
E006C0
E007C0
E00780
E00700
E00600
E00600
E00600
E00600
E00600
E00600
E00600
E00600
E00600
E00600
F00C00
700C00
781C00
3FF800
0FE000
ENDCHAR
STARTCHAR uni1EEB
ENCODING 7915
SWIDTH 602 0
DWIDTH 20 0
BBX 19 24 3 0
BITMAP
03C000
01E000
00E000
007000
003800
000000
E00FE0
E00FE0
E00FE0
E00FE0
E00FE0
E00E60
E00EC0
E00FC0
E00F80
E00F00
E00E00
E00E00
E01E00
E03E00
F07E00
7FEE00
3FCE00
1F0E00
ENDCHAR
STARTCHAR uni1EEE
ENCODING 7918
SWIDTH 602 0
DWIDTH 20 0
BBX 19 29 3 0
BITMAP
03E300
07FF00
063E00
000000
E007E0
E007E0
E007E0
E007E0
E007E0
E00660
E006C0
E007C0
E00780
E00700
E00600
E00600
E00600
E00600
E00600
E00600
E00600
E00600
E00600
E00600
F00C00
700C00
781C00
3FF800
0FE000
ENDCHAR
STARTCHAR uni1EEF
ENCODING 7919
SWIDTH 602 0
DWIDTH 20 0
BBX 19 22 3 0
BITMAP
03E300
07FF00
063E00
000000
E00FE0
E00FE0
E00FE0
E00FE0
E00FE0
E00E60
E00EC0
E00FC0
E00F80
E00F00
E00E00
E00E00
E01E00
E03E00
F07E00
7FEE00
3FCE00
1F0E00
ENDCHAR
STARTCHAR uni1EF0
ENCODING 7920
SWIDTH 602 0
DWIDTH 20 0
BBX 19 29 3 -4
BITMAP
E007E0
E007E0
E007E0
E007E0
E007E0
E00660
E006C0
E007C0
E00780
E00700
E00600
E00600
E00600
E00600
E00600
E00600
E00600
E00600
E00600
E00600
F00C00
700C00
781C00
3FF800
0FE000
000000
038000
038000
038000
ENDCHAR
STARTCHAR uni1EF1
ENCODING 7921
SWIDTH 602 0
DWIDTH 20 0
BBX 19 22 3 -4
BITMAP
E00FE0
E00FE0
E00FE0
E00FE0
E00FE0
E00E60
E00EC0
E00FC0
E00F80
E00F00
E00E00
E00E00
E01E00
E03E00
F07E00
7FEE00
3FCE00
1F0E00
000000
01C000
01C000
01C000
ENDCHAR
STARTCHAR Ygrave
ENCODING 7922
SWIDTH 602 0
DWIDTH 20 0
BBX 20 31 0 0
BITMAP
078000
03C000
01C000
00E000
007000
000000
F00070
7000E0
3800C0
3C01C0
1C0380
1E0300
0E0700
0F0600
070C00
078C00
03D800
01F800
01F000
00E000
00E000
00E000
00E000
00E000
00E000
00E000
00E000
00E000
00E000
00E000
00E000
ENDCHAR
STARTCHAR ygrave
ENCODING 7923
SWIDTH 602 0
DWIDTH 20 0
BBX 18 31 1 -7
BITMAP
0F0000
078000
038000
01C000
00E000
000000
F001C0
700180
700380
380300
380300
3C0600
1C0600
1C0C00
0E0C00
0E1C00
0F1800
071800
073000
03B000
03E000
01E000
01E000
01C000
01C000
018000
018000
030000
070000
7E0000
780000
ENDCHAR
STARTCHAR uni1EF4
ENCODING 7924
SWIDTH 602 0
DWIDTH 20 0
BBX 20 29 0 -4
BITMAP
F00070
7000E0
3800C0
3C01C0
1C0380
1E0300
0E0700
0F0600
070C00
078C00
03D800
01F800
01F000
00E000
00E000
00E000
00E000
00E000
00E000
00E000
00E000
00E000
00E000
00E000
00E000
000000
00E000
00E000
00E000
ENDCHAR
STARTCHAR uni1EF5
ENCODING 7925
SWIDTH 602 0
DWIDTH 20 0
BBX 18 29 1 -11
BITMAP
F001C0
700180
700380
380300
380300
3C0600
1C0600
1C0C00
0E0C00
0E1C00
0F1800
071800
073000
03B000
03E000
01E000
01E000
01C000
01C000
018000
018000
030000
070000
7E0000
780000
000000
070000
070000
070000
ENDCHAR
STARTCHAR uni1EF8
ENCODING 7928
SWIDTH 602 0
DWIDTH 20 0
BBX 20 29 0 0
BITMAP
07C600
0FFE00
0C7C00
000000
F00070
7000E0
3800C0
3C01C0
1C0380
1E0300
0E0700
0F0600
070C00
078C00
03D800
01F800
01F000
00E000
00E000
00E000
00E000
00E000
00E000
00E000
00E000
00E000
00E000
00E000
00E000
ENDCHAR
STARTCHAR uni1EF9
ENCODING 7929
SWIDTH 602 0
DWIDTH 20 0
BBX 18 29 1 -7
BITMAP
0F8C00
1FFC00
18F800
000000
F001C0
700180
700380
380300
380300
3C0600
1C0600
1C0C00
0E0C00
0E1C00
0F1800
071800
073000
03B000
03E000
01E000
01E000
01C000
01C000
018000
018000
030000
070000
7E0000
780000
ENDCHAR
STARTCHAR uni2000
ENCODING 8192
SWIDTH 602 0
DWIDTH 20 0
BBX 1 1 0 0
BITMAP
00
ENDCHAR
STARTCHAR uni2001
ENCODING 8193
SWIDTH 602 0
DWIDTH 20 0
BBX 1 1 0 0
BITMAP
00
ENDCHAR
STARTCHAR uni2002
ENCODING 8194
SWIDTH 602 0
DWIDTH 20 0
BBX 1 1 0 0
BITMAP
00
ENDCHAR
STARTCHAR uni2003
ENCODING 8195
SWIDTH 602 0
DWIDTH 20 0
BBX 1 1 0 0
BITMAP
00
ENDCHAR
STARTCHAR uni2004
ENCODING 8196
SWIDTH 602 0
DWIDTH 20 0
BBX 1 1 0 0
BITMAP
00
ENDCHAR
STARTCHAR uni2005
ENCODING 8197
SWIDTH 602 0
DWIDTH 20 0
BBX 1 1 0 0
BITMAP
00
ENDCHAR
STARTCHAR uni2006
ENCODING 8198
SWIDTH 602 0
DWIDTH 20 0
BBX 1 1 0 0
BITMAP
00
ENDCHAR
STARTCHAR uni2007
ENCODING 8199
SWIDTH 602 0
DWIDTH 20 0
BBX 1 1 0 0
BITMAP
00
ENDCHAR
STARTCHAR uni2008
ENCODING 8200
SWIDTH 602 0
DWIDTH 20 0
BBX 1 1 0 0
BITMAP
00
ENDCHAR
STARTCHAR uni2009
ENCODING 8201
SWIDTH 602 0
DWIDTH 20 0
BBX 1 1 0 0
BITMAP
00
ENDCHAR
STARTCHAR uni200A
ENCODING 8202
SWIDTH 602 0
DWIDTH 20 0
BBX 1 1 0 0
BITMAP
00
ENDCHAR
STARTCHAR uni2010
ENCODING 8208
SWIDTH 602 0
DWIDTH 20 0
BBX 14 2 3 10
BITMAP
FFFC
FFFC
ENDCHAR
STARTCHAR uni2011
ENCODING 8209
SWIDTH 602 0
DWIDTH 20 0
BBX 14 2 3 10
BITMAP
FFFC
FFFC
ENDCHAR
STARTCHAR figuredash
ENCODING 8210
SWIDTH 602 0
DWIDTH 20 0
BBX 16 2 2 9
BITMAP
FFFF
FFFF
ENDCHAR
STARTCHAR endash
ENCODING 8211
SWIDTH 602 0
DWIDTH 20 0
BBX 16 2 2 9
BITMAP
FFFF
FFFF
ENDCHAR
STARTCHAR emdash
ENCODING 8212
SWIDTH 602 0
DWIDTH 20 0
BBX 18 2 1 9
BITMAP
FFFFC0
FFFFC0
ENDCHAR
STARTCHAR afii00208
ENCODING 8213
SWIDTH 602 0
DWIDTH 20 0
BBX 18 2 1 9
BITMAP
FFFFC0
FFFFC0
ENDCHAR
STARTCHAR quoteleft
ENCODING 8216
SWIDTH 602 0
DWIDTH 20 0
BBX 5 10 8 16
BITMAP
38
70
60
E0
C0
F8
F8
F8
F8
F8
ENDCHAR
STARTCHAR quoteright
ENCODING 8217
SWIDTH 602 0
DWIDTH 20 0
BBX 5 10 8 16
BITMAP
F8
F8
F8
F8
F8
18
30
70
E0
C0
ENDCHAR
STARTCHAR quotesinglbase
ENCODING 8218
SWIDTH 602 0
DWIDTH 20 0
BBX 5 11 8 -6
BITMAP
F8
F8
F8
F8
F8
18
18
38
30
70
C0
ENDCHAR
STARTCHAR quotereversed
ENCODING 8219
SWIDTH 602 0
DWIDTH 20 0
BBX 5 10 8 16
BITMAP
F8
F8
F8
F8
F8
C0
60
70
38
18
ENDCHAR
STARTCHAR quotedblleft
ENCODING 8220
SWIDTH 602 0
DWIDTH 20 0
BBX 12 9 4 17
BITMAP
6030
4060
C0C0
C0C0
C0C0
E0F0
E0F0
E0F0
E0F0
ENDCHAR
STARTCHAR quotedblright
ENCODING 8221
SWIDTH 602 0
DWIDTH 20 0
BBX 12 9 4 17
BITMAP
E0F0
E0F0
E0F0
E0F0
6030
6030
6030
4060
C0C0
ENDCHAR
STARTCHAR quotedblbase
ENCODING 8222
SWIDTH 602 0
DWIDTH 20 0
BBX 12 10 4 -6
BITMAP
E0F0
E0F0
E0F0
6030
6030
6030
6030
6030
4060
C0C0
ENDCHAR
STARTCHAR uni201F
ENCODING 8223
SWIDTH 602 0
DWIDTH 20 0
BBX 12 9 4 17
BITMAP
F070
F070
F070
F070
C060
C060
C060
6020
3030
ENDCHAR
STARTCHAR dagger
ENCODING 8224
SWIDTH 602 0
DWIDTH 20 0
BBX 14 31 3 -6
BITMAP
0300
0300
0300
0300
0300
0300
0300
0300
0300
0300
FFFC
0300
0300
0300
0300
0300
0300
0300
0300
0300
0300
0300
0300
0300
0300
0300
0300
0300
0300
0300
0300
ENDCHAR
STARTCHAR daggerdbl
ENCODING 8225
SWIDTH 602 0
DWIDTH 20 0
BBX 14 31 3 -6
BITMAP
0300
0300
0300
0300
0300
0300
0300
0300
0300
0300
FFFC
0300
0300
0300
0300
0300
0300
0300
0300
0300
FFFC
0300
0300
0300
0300
0300
0300
0300
0300
0300
0300
ENDCHAR
STARTCHAR bullet
ENCODING 8226
SWIDTH 602 0
DWIDTH 20 0
BBX 10 10 5 3
BITMAP
FFC0
FFC0
FFC0
FFC0
FFC0
FFC0
FFC0
FFC0
FFC0
FFC0
ENDCHAR
STARTCHAR ellipsis
ENCODING 8230
SWIDTH 602 0
DWIDTH 20 0
BBX 17 3 2 0
BITMAP
E1C380
E1C380
E1C380
ENDCHAR
STARTCHAR perthousand
ENCODING 8240
SWIDTH 602 0
DWIDTH 20 0
BBX 19 25 1 0
BITMAP
303000
486000
CC6000
CCE000
CCC000
CCC000
CD8000
CD8000
CF8000
4B0000
330000
060000
060000
060000
0C0000
0CC180
192240
1B3660
1B3660
333660
333660
633660
633660
612240
C0C180
ENDCHAR
STARTCHAR guilsinglleft
ENCODING 8249
SWIDTH 602 0
DWIDTH 20 0
BBX 9 16 6 1
BITMAP
0100
0380
0700
0E00
0C00
1800
3800
F000
7000
3800
1800
0C00
0E00
0700
0380
0100
ENDCHAR
STARTCHAR guilsinglright
ENCODING 8250
SWIDTH 602 0
DWIDTH 20 0
BBX 9 16 6 1
BITMAP
4000
E000
7000
3800
1800
0C00
0E00
0700
0780
0E00
0C00
1800
3800
7000
E000
4000
ENDCHAR
STARTCHAR uni203D
ENCODING 8253
SWIDTH 602 0
DWIDTH 20 0
BBX 15 25 3 0
BITMAP
3FE0
FFF8
C1FC
C1DE
C1CE
01CE
01CE
01CC
01DC
01F8
01F0
01E0
01C0
0380
0380
0780
0780
0780
0000
0000
0000
0000
0FC0
0FC0
0FC0
ENDCHAR
STARTCHAR fraction
ENCODING 8260
SWIDTH 602 0
DWIDTH 20 0
BBX 20 25 0 0
BITMAP
000070
0000E0
0000C0
000180
000380
000300
000600
000E00
001C00
001800
003800
007000
006000
00C000
01C000
018000
030000
070000
060000
0C0000
1C0000
180000
300000
700000
E00000
ENDCHAR
STARTCHAR oneinferior
ENCODING 8321
SWIDTH 602 0
DWIDTH 20 0
BBX 7 12 -3 -7
BITMAP
10
F0
10
10
10
10
10
10
10
10
10
FE
ENDCHAR
STARTCHAR twoinferior
ENCODING 8322
SWIDTH 602 0
DWIDTH 20 0
BBX 6 12 -3 -7
BITMAP
78
8C
04
04
04
08
18
30
60
40
C0
FC
ENDCHAR
STARTCHAR threeinferior
ENCODING 8323
SWIDTH 602 0
DWIDTH 20 0
BBX 6 12 -3 -7
BITMAP
F8
8C
04
04
08
70
0C
04
04
04
88
F0
ENDCHAR
STARTCHAR uni20A5
ENCODING 8357
SWIDTH 602 0
DWIDTH 20 0
BBX 18 32 1 -7
BITMAP
0001C0
000180
000380
000300
000700
000600
000E00
C70F80
CF9F80
D8D8C0
F0F8C0
E0F0C0
C0F0C0
C0E0C0
C0E0C0
C0C0C0
C0C0C0
C1C0C0
C1C0C0
C3C0C0
C3C0C0
C6C0C0
C6C0C0
CEC0C0
CCC0C0
1C0000
180000
380000
300000
700000
600000
E00000
ENDCHAR
STARTCHAR uni20A6
ENCODING 8358
SWIDTH 602 0
DWIDTH 20 0
BBX 18 25 1 0
BITMAP
700180
780180
780180
7C0180
7C0180
7E0180
6E0180
670180
FFFFC0
FFFFC0
63C180
61C180
61E180
60E180
FFFFC0
FFFFC0
603980
603D80
601D80
601F80
600F80
600F80
600780
600380
600380
ENDCHAR
STARTCHAR uni20A9
ENCODING 8361
SWIDTH 602 0
DWIDTH 20 0
BBX 20 25 0 0
BITMAP
C00030
C00030
C0E030
C0E060
E1F060
E1F060
61F060
61F060
7FFFE0
7FFFE0
6338C0
6338C0
7338C0
7318C0
7FFFE0
7FFFE0
761D80
761D80
760D80
340D80
340F80
3C0F80
3C0F00
380700
380700
ENDCHAR
STARTCHAR Euro
ENCODING 8364
SWIDTH 602 0
DWIDTH 20 0
BBX 23 25 -4 0
BITMAP
0007F8
001FFE
003C0E
007002
00E000
00E000
01C000
01C000
FFFFC0
FFFFC0
038000
038000
038000
038000
FFFFC0
FFFFC0
038000
01C000
01C000
00E000
00F000
007800
003E06
001FFE
0003F8
ENDCHAR
STARTCHAR uni20AD
ENCODING 8365
SWIDTH 602 0
DWIDTH 20 0
BBX 17 25 3 0
BITMAP
E00E00
E01C00
E01800
E03000
E07000
E0E000
E0C000
E18000
E38000
E70000
E60000
FFFF80
FFFF80
EF0000
E78000
E38000
E3C000
E1E000
E0F000
E07800
E03800
E03C00
E01E00
E00F00
E00780
ENDCHAR
STARTCHAR trademark
ENCODING 8482
SWIDTH 602 0
DWIDTH 20 0
BBX 20 13 0 12
BITMAP
FFF070
FFF8F0
1878F0
1878F0
187DF0
187DF0
186DB0
186FB0
186F30
186730
186730
186030
186030
ENDCHAR
STARTCHAR uni212A
ENCODING 8490
SWIDTH 602 0
DWIDTH 20 0
BBX 17 25 3 0
BITMAP
E00E00
E01C00
E01800
E03000
E07000
E0E000
E0C000
E18000
E38000
E70000
E60000
EE0000
FE0000
EF0000
E78000
E38000
E3C000
E1E000
E0F000
E07800
E03800
E03C00
E01E00
E00F00
E00780
ENDCHAR
STARTCHAR uni212B
ENCODING 8491
SWIDTH 602 0
DWIDTH 20 0
BBX 20 31 0 0
BITMAP
007000
00D800
008800
00D800
007000
000000
007000
00F000
00F000
00F800
01B800
01B800
019C00
031C00
031C00
030E00
060E00
060E00
060F00
0C0700
0C0700
0C0780
1FFF80
1FFF80
1803C0
3001C0
3001C0
3000E0
6000E0
6000E0
E00070
ENDCHAR
STARTCHAR uni2132
ENCODING 8498
SWIDTH 602 0
DWIDTH 20 0
BBX 15 25 4 0
BITMAP
000E
000E
000E
000E
000E
000E
000E
000E
000E
000E
000E
000E
3FFE
3FFE
000E
000E
000E
000E
000E
000E
000E
000E
000E
FFFE
FFFE
ENDCHAR
STARTCHAR universal
ENCODING 8704
SWIDTH 602 0
DWIDTH 20 0
BBX 20 25 0 0
BITMAP
E00070
6000E0
6000E0
3000E0
3001C0
3001C0
1803C0
1FFF80
1FFF80
0C0780
0C0700
0C0700
060F00
060E00
060E00
030E00
031C00
031C00
019C00
01B800
01B800
00F800
00F000
00F000
007000
ENDCHAR
STARTCHAR existential
ENCODING 8707
SWIDTH 602 0
DWIDTH 20 0
BBX 15 25 4 0
BITMAP
7FFE
7FFE
000E
000E
000E
000E
000E
000E
000E
000E
000E
3FFE
1FFE
000E
000E
000E
000E
000E
000E
000E
000E
000E
000E
FFFE
FFFE
ENDCHAR
STARTCHAR uni2204
ENCODING 8708
SWIDTH 602 0
DWIDTH 20 0
BBX 18 32 3 -3
BITMAP
0001C0
000180
000380
000300
3FFF00
3FFF00
000F00
000F00
001F00
001F00
001F00
003700
003700
006700
006700
1FFF00
0FFF00
018700
018700
030700
030700
060700
060700
0E0700
0C0700
1C0700
180700
7FFF00
7FFF00
700000
600000
E00000
ENDCHAR
STARTCHAR minus
ENCODING 8722
SWIDTH 602 0
DWIDTH 20 0
BBX 18 2 1 7
BITMAP
FFFFC0
FFFFC0
ENDCHAR
STARTCHAR fraction
ENCODING 8725
SWIDTH 602 0
DWIDTH 20 0
BBX 20 25 0 0
BITMAP
000070
0000E0
0000C0
000180
000380
000300
000600
000E00
001C00
001800
003800
007000
006000
00C000
01C000
018000
030000
070000
060000
0C0000
1C0000
180000
300000
700000
E00000
ENDCHAR
STARTCHAR periodcentered
ENCODING 8729
SWIDTH 602 0
DWIDTH 20 0
BBX 4 3 8 8
BITMAP
F0
F0
F0
ENDCHAR
STARTCHAR uni2236
ENCODING 8758
SWIDTH 602 0
DWIDTH 20 0
BBX 5 18 8 0
BITMAP
F8
F8
F8
F8
F8
00
00
00
00
00
00
00
00
F8
F8
F8
F8
F8
ENDCHAR
STARTCHAR uni2259
ENCODING 8793
SWIDTH 602 0
DWIDTH 20 0
BBX 18 14 1 5
BITMAP
01F000
01F000
03B800
071C00
0E0E00
000000
FFFFC0
FFFFC0
000000
000000
000000
000000
FFFFC0
FFFFC0
ENDCHAR
STARTCHAR uni225A
ENCODING 8794
SWIDTH 602 0
DWIDTH 20 0
BBX 18 14 1 5
BITMAP
0E0E00
071C00
03B800
01F000
01F000
000000
FFFFC0
FFFFC0
000000
000000
000000
000000
FFFFC0
FFFFC0
ENDCHAR
STARTCHAR notequal
ENCODING 8800
SWIDTH 602 0
DWIDTH 20 0
BBX 18 32 1 -7
BITMAP
0001C0
000180
000380
000300
000700
000600
000E00
000C00
001C00
001800
001800
003000
FFFFC0
FFFFC0
006000
00C000
00C000
018000
FFFFC0
FFFFC0
030000
060000
060000
0E0000
0C0000
1C0000
180000
380000
300000
700000
600000
E00000
ENDCHAR
STARTCHAR equivalence
ENCODING 8801
SWIDTH 602 0
DWIDTH 20 0
BBX 18 8 0 5
BITMAP
FFFFC0
FFFFC0
000000
FFFFC0
FFFFC0
000000
FFFFC0
FFFFC0
ENDCHAR
STARTCHAR uni2262
ENCODING 8802
SWIDTH 602 0
DWIDTH 20 0
BBX 18 32 0 -7
BITMAP
0001C0
000180
000380
000300
000700
000600
000E00
000C00
001C00
001800
001800
003000
FFFFC0
FFFFC0
006000
FFFFC0
FFFFC0
018000
FFFFC0
FFFFC0
030000
060000
060000
0E0000
0C0000
1C0000
180000
380000
300000
700000
600000
E00000
ENDCHAR
STARTCHAR lessequal
ENCODING 8804
SWIDTH 602 0
DWIDTH 20 0
BBX 17 21 0 -3
BITMAP
000080
000180
000780
001E00
007800
01E000
078000
1E0000
F80000
780000
1E0000
078000
01E000
007800
001E00
000780
000180
000080
000000
FFFF80
FFFF80
ENDCHAR
STARTCHAR greaterequal
ENCODING 8805
SWIDTH 602 0
DWIDTH 20 0
BBX 17 21 1 -3
BITMAP
800000
C00000
F00000
3C0000
0F0000
03C000
00F000
003C00
000F00
000F80
003C00
00F000
03C000
0F0000
3C0000
F00000
C00000
800000
000000
FFFF80
FFFF80
ENDCHAR
STARTCHAR uni226E
ENCODING 8814
SWIDTH 602 0
DWIDTH 20 0
BBX 18 32 0 -7
BITMAP
0001C0
000180
000380
000300
000700
000600
000E00
000C80
001D80
001F80
001E00
007800
01F000
07E000
1E6000
F8C000
78C000
1F8000
078000
03E000
037800
061E00
060780
0E0180
0C0080
1C0000
180000
380000
300000
700000
600000
E00000
ENDCHAR
STARTCHAR uni226F
ENCODING 8815
SWIDTH 602 0
DWIDTH 20 0
BBX 18 32 1 -7
BITMAP
0001C0
000180
000380
000300
000700
000600
000E00
800C00
C01C00
F01800
3C1800
0F3000
03F000
00F000
007C00
00CF00
00CF80
01BC00
01F000
03C000
0F0000
3E0000
F60000
CE0000
8C0000
1C0000
180000
380000
300000
700000
600000
E00000
ENDCHAR
STARTCHAR uni2270
ENCODING 8816
SWIDTH 602 0
DWIDTH 20 0
BBX 18 32 0 -8
BITMAP
0001C0
000180
000380
000300
000700
000600
000E80
000D80
001F80
001E00
007800
01F000
07B000
1E6000
F86000
78C000
1EC000
078000
01E000
037800
031E00
060780
060180
0E0080
0C0000
FFFF80
FFFF80
380000
300000
700000
600000
E00000
ENDCHAR
STARTCHAR uni2271
ENCODING 8817
SWIDTH 602 0
DWIDTH 20 0
BBX 18 32 1 -8
BITMAP
0001C0
000180
000380
000300
000700
000600
800E00
C00C00
F01C00
3C1800
0F1800
03F000
00F000
007C00
006F00
00CF80
00FC00
01F000
03C000
0F0000
3F0000
F60000
C60000
8E0000
0C0000
FFFF80
FFFF80
380000
300000
700000
600000
E00000
ENDCHAR
STARTCHAR SF100000
ENCODING 9472
SWIDTH 602 0
DWIDTH 20 0
BBX 20 2 0 11
BITMAP
FFFFF0
FFFFF0
ENDCHAR
STARTCHAR uni2501
ENCODING 9473
SWIDTH 602 0
DWIDTH 20 0
BBX 20 6 0 9
BITMAP
FFFFF0
FFFFF0
FFFFF0
FFFFF0
FFFFF0
FFFFF0
ENDCHAR
STARTCHAR SF110000
ENCODING 9474
SWIDTH 602 0
DWIDTH 20 0
BBX 2 38 9 -7
BITMAP
C0
C0
C0
C0
C0
C0
C0
C0
C0
C0
C0
C0
C0
C0
C0
C0
C0
C0
C0
C0
C0
C0
C0
C0
C0
C0
C0
C0
C0
C0
C0
C0
C0
C0
C0
C0
C0
C0
ENDCHAR
STARTCHAR uni2503
ENCODING 9475
SWIDTH 602 0
DWIDTH 20 0
BBX 6 38 7 -7
BITMAP
FC
FC
FC
FC
FC
FC
FC
FC
FC
FC
FC
FC
FC
FC
FC
FC
FC
FC
FC
FC
FC
FC
FC
FC
FC
FC
FC
FC
FC
FC
FC
FC
FC
FC
FC
FC
FC
FC
ENDCHAR
STARTCHAR SF010000
ENCODING 9484
SWIDTH 602 0
DWIDTH 20 0
BBX 11 20 9 -7
BITMAP
FFE0
FFE0
C000
C000
C000
C000
C000
C000
C000
C000
C000
C000
C000
C000
C000
C000
C000
C000
C000
C000
ENDCHAR
STARTCHAR uni250D
ENCODING 9485
SWIDTH 602 0
DWIDTH 20 0
BBX 13 22 7 -7
BITMAP
FFF8
FFF8
FFF8
FFF8
FFF8
FFF8
3000
3000
3000
3000
3000
3000
3000
3000
3000
3000
3000
3000
3000
3000
3000
3000
ENDCHAR
STARTCHAR uni250E
ENCODING 9486
SWIDTH 602 0
DWIDTH 20 0
BBX 13 22 7 -7
BITMAP
FC00
FC00
FFF8
FFF8
FC00
FC00
FC00
FC00
FC00
FC00
FC00
FC00
FC00
FC00
FC00
FC00
FC00
FC00
FC00
FC00
FC00
FC00
ENDCHAR
STARTCHAR uni250F
ENCODING 9487
SWIDTH 602 0
DWIDTH 20 0
BBX 13 22 7 -7
BITMAP
FFF8
FFF8
FFF8
FFF8
FFF8
FFF8
FC00
FC00
FC00
FC00
FC00
FC00
FC00
FC00
FC00
FC00
FC00
FC00
FC00
FC00
FC00
FC00
ENDCHAR
STARTCHAR SF030000
ENCODING 9488
SWIDTH 602 0
DWIDTH 20 0
BBX 11 20 0 -7
BITMAP
FFE0
FFE0
0060
0060
0060
0060
0060
0060
0060
0060
0060
0060
0060
0060
0060
0060
0060
0060
0060
0060
ENDCHAR
STARTCHAR uni2511
ENCODING 9489
SWIDTH 602 0
DWIDTH 20 0
BBX 13 22 0 -7
BITMAP
FFF8
FFF8
FFF8
FFF8
FFF8
FFF8
0060
0060
0060
0060
0060
0060
0060
0060
0060
0060
0060
0060
0060
0060
0060
0060
ENDCHAR
STARTCHAR uni2512
ENCODING 9490
SWIDTH 602 0
DWIDTH 20 0
BBX 13 22 0 -7
BITMAP
01F8
01F8
FFF8
FFF8
01F8
01F8
01F8
01F8
01F8
01F8
01F8
01F8
01F8
01F8
01F8
01F8
01F8
01F8
01F8
01F8
01F8
01F8
ENDCHAR
STARTCHAR uni2513
ENCODING 9491
SWIDTH 602 0
DWIDTH 20 0
BBX 13 22 0 -7
BITMAP
FFF8
FFF8
FFF8
FFF8
FFF8
FFF8
01F8
01F8
01F8
01F8
01F8
01F8
01F8
01F8
01F8
01F8
01F8
01F8
01F8
01F8
01F8
01F8
ENDCHAR
STARTCHAR SF020000
ENCODING 9492
SWIDTH 602 0
DWIDTH 20 0
BBX 11 20 9 11
BITMAP
C000
C000
C000
C000
C000
C000
C000
C000
C000
C000
C000
C000
C000
C000
C000
C000
C000
C000
FFE0
FFE0
ENDCHAR
STARTCHAR uni2515
ENCODING 9493
SWIDTH 602 0
DWIDTH 20 0
BBX 13 22 7 9
BITMAP
3000
3000
3000
3000
3000
3000
3000
3000
3000
3000
3000
3000
3000
3000
3000
3000
FFF8
FFF8
FFF8
FFF8
FFF8
FFF8
ENDCHAR
STARTCHAR uni2516
ENCODING 9494
SWIDTH 602 0
DWIDTH 20 0
BBX 13 22 7 9
BITMAP
FC00
FC00
FC00
FC00
FC00
FC00
FC00
FC00
FC00
FC00
FC00
FC00
FC00
FC00
FC00
FC00
FC00
FC00
FFF8
FFF8
FC00
FC00
ENDCHAR
STARTCHAR uni2517
ENCODING 9495
SWIDTH 602 0
DWIDTH 20 0
BBX 13 22 7 9
BITMAP
FC00
FC00
FC00
FC00
FC00
FC00
FC00
FC00
FC00
FC00
FC00
FC00
FC00
FC00
FC00
FC00
FFF8
FFF8
FFF8
FFF8
FFF8
FFF8
ENDCHAR
STARTCHAR SF040000
ENCODING 9496
SWIDTH 602 0
DWIDTH 20 0
BBX 11 20 0 11
BITMAP
0060
0060
0060
0060
0060
0060
0060
0060
0060
0060
0060
0060
0060
0060
0060
0060
0060
0060
FFE0
FFE0
ENDCHAR
STARTCHAR uni2519
ENCODING 9497
SWIDTH 602 0
DWIDTH 20 0
BBX 13 22 0 9
BITMAP
0060
0060
0060
0060
0060
0060
0060
0060
0060
0060
0060
0060
0060
0060
0060
0060
FFF8
FFF8
FFF8
FFF8
FFF8
FFF8
ENDCHAR
STARTCHAR uni251A
ENCODING 9498
SWIDTH 602 0
DWIDTH 20 0
BBX 13 22 0 9
BITMAP
01F8
01F8
01F8
01F8
01F8
01F8
01F8
01F8
01F8
01F8
01F8
01F8
01F8
01F8
01F8
01F8
01F8
01F8
FFF8
FFF8
01F8
01F8
ENDCHAR
STARTCHAR uni251B
ENCODING 9499
SWIDTH 602 0
DWIDTH 20 0
BBX 13 22 0 9
BITMAP
01F8
01F8
01F8
01F8
01F8
01F8
01F8
01F8
01F8
01F8
01F8
01F8
01F8
01F8
01F8
01F8
FFF8
FFF8
FFF8
FFF8
FFF8
FFF8
ENDCHAR
STARTCHAR SF080000
ENCODING 9500
SWIDTH 602 0
DWIDTH 20 0
BBX 11 38 9 -7
BITMAP
C000
C000
C000
C000
C000
C000
C000
C000
C000
C000
C000
C000
C000
C000
C000
C000
C000
C000
FFE0
FFE0
C000
C000
C000
C000
C000
C000
C000
C000
C000
C000
C000
C000
C000
C000
C000
C000
C000
C000
ENDCHAR
STARTCHAR uni251D
ENCODING 9501
SWIDTH 602 0
DWIDTH 20 0
BBX 13 38 7 -7
BITMAP
3000
3000
3000
3000
3000
3000
3000
3000
3000
3000
3000
3000
3000
3000
3000
3000
FFF8
FFF8
FFF8
FFF8
FFF8
FFF8
3000
3000
3000
3000
3000
3000
3000
3000
3000
3000
3000
3000
3000
3000
3000
3000
ENDCHAR
STARTCHAR uni251E
ENCODING 9502
SWIDTH 602 0
DWIDTH 20 0
BBX 13 38 7 -7
BITMAP
FC00
FC00
FC00
FC00
FC00
FC00
FC00
FC00
FC00
FC00
FC00
FC00
FC00
FC00
FC00
FC00
FC00
FC00
FFF8
FFF8
FC00
FC00
3000
3000
3000
3000
3000
3000
3000
3000
3000
3000
3000
3000
3000
3000
3000
3000
ENDCHAR
STARTCHAR uni251F
ENCODING 9503
SWIDTH 602 0
DWIDTH 20 0
BBX 13 38 7 -7
BITMAP
3000
3000
3000
3000
3000
3000
3000
3000
3000
3000
3000
3000
3000
3000
3000
3000
FC00
FC00
FFF8
FFF8
FC00
FC00
FC00
FC00
FC00
FC00
FC00
FC00
FC00
FC00
FC00
FC00
FC00
FC00
FC00
FC00
FC00
FC00
ENDCHAR
STARTCHAR uni2520
ENCODING 9504
SWIDTH 602 0
DWIDTH 20 0
BBX 13 38 7 -7
BITMAP
FC00
FC00
FC00
FC00
FC00
FC00
FC00
FC00
FC00
FC00
FC00
FC00
FC00
FC00
FC00
FC00
FC00
FC00
FFF8
FFF8
FC00
FC00
FC00
FC00
FC00
FC00
FC00
FC00
FC00
FC00
FC00
FC00
FC00
FC00
FC00
FC00
FC00
FC00
ENDCHAR
STARTCHAR uni2521
ENCODING 9505
SWIDTH 602 0
DWIDTH 20 0
BBX 13 38 7 -7
BITMAP
FC00
FC00
FC00
FC00
FC00
FC00
FC00
FC00
FC00
FC00
FC00
FC00
FC00
FC00
FC00
FC00
FFF8
FFF8
FFF8
FFF8
FFF8
FFF8
3000
3000
3000
3000
3000
3000
3000
3000
3000
3000
3000
3000
3000
3000
3000
3000
ENDCHAR
STARTCHAR uni2522
ENCODING 9506
SWIDTH 602 0
DWIDTH 20 0
BBX 13 38 7 -7
BITMAP
3000
3000
3000
3000
3000
3000
3000
3000
3000
3000
3000
3000
3000
3000
3000
3000
FFF8
FFF8
FFF8
FFF8
FFF8
FFF8
FC00
FC00
FC00
FC00
FC00
FC00
FC00
FC00
FC00
FC00
FC00
FC00
FC00
FC00
FC00
FC00
ENDCHAR
STARTCHAR uni2523
ENCODING 9507
SWIDTH 602 0
DWIDTH 20 0
BBX 13 38 7 -7
BITMAP
FC00
FC00
FC00
FC00
FC00
FC00
FC00
FC00
FC00
FC00
FC00
FC00
FC00
FC00
FC00
FC00
FFF8
FFF8
FFF8
FFF8
FFF8
FFF8
FC00
FC00
FC00
FC00
FC00
FC00
FC00
FC00
FC00
FC00
FC00
FC00
FC00
FC00
FC00
FC00
ENDCHAR
STARTCHAR SF090000
ENCODING 9508
SWIDTH 602 0
DWIDTH 20 0
BBX 11 38 0 -7
BITMAP
0060
0060
0060
0060
0060
0060
0060
0060
0060
0060
0060
0060
0060
0060
0060
0060
0060
0060
FFE0
FFE0
0060
0060
0060
0060
0060
0060
0060
0060
0060
0060
0060
0060
0060
0060
0060
0060
0060
0060
ENDCHAR
STARTCHAR uni2525
ENCODING 9509
SWIDTH 602 0
DWIDTH 20 0
BBX 13 38 0 -7
BITMAP
0060
0060
0060
0060
0060
0060
0060
0060
0060
0060
0060
0060
0060
0060
0060
0060
FFF8
FFF8
FFF8
FFF8
FFF8
FFF8
0060
0060
0060
0060
0060
0060
0060
0060
0060
0060
0060
0060
0060
0060
0060
0060
ENDCHAR
STARTCHAR uni2526
ENCODING 9510
SWIDTH 602 0
DWIDTH 20 0
BBX 13 38 0 -7
BITMAP
01F8
01F8
01F8
01F8
01F8
01F8
01F8
01F8
01F8
01F8
01F8
01F8
01F8
01F8
01F8
01F8
01F8
01F8
FFF8
FFF8
01F8
01F8
0060
0060
0060
0060
0060
0060
0060
0060
0060
0060
0060
0060
0060
0060
0060
0060
ENDCHAR
STARTCHAR uni2527
ENCODING 9511
SWIDTH 602 0
DWIDTH 20 0
BBX 13 38 0 -7
BITMAP
0060
0060
0060
0060
0060
0060
0060
0060
0060
0060
0060
0060
0060
0060
0060
0060
01F8
01F8
FFF8
FFF8
01F8
01F8
01F8
01F8
01F8
01F8
01F8
01F8
01F8
01F8
01F8
01F8
01F8
01F8
01F8
01F8
01F8
01F8
ENDCHAR
STARTCHAR uni2528
ENCODING 9512
SWIDTH 602 0
DWIDTH 20 0
BBX 13 38 0 -7
BITMAP
01F8
01F8
01F8
01F8
01F8
01F8
01F8
01F8
01F8
01F8
01F8
01F8
01F8
01F8
01F8
01F8
01F8
01F8
FFF8
FFF8
01F8
01F8
01F8
01F8
01F8
01F8
01F8
01F8
01F8
01F8
01F8
01F8
01F8
01F8
01F8
01F8
01F8
01F8
ENDCHAR
STARTCHAR uni2529
ENCODING 9513
SWIDTH 602 0
DWIDTH 20 0
BBX 13 38 0 -7
BITMAP
01F8
01F8
01F8
01F8
01F8
01F8
01F8
01F8
01F8
01F8
01F8
01F8
01F8
01F8
01F8
01F8
FFF8
FFF8
FFF8
FFF8
FFF8
FFF8
0060
0060
0060
0060
0060
0060
0060
0060
0060
0060
0060
0060
0060
0060
0060
0060
ENDCHAR
STARTCHAR uni252A
ENCODING 9514
SWIDTH 602 0
DWIDTH 20 0
BBX 13 38 0 -7
BITMAP
0060
0060
0060
0060
0060
0060
0060
0060
0060
0060
0060
0060
0060
0060
0060
0060
FFF8
FFF8
FFF8
FFF8
FFF8
FFF8
01F8
01F8
01F8
01F8
01F8
01F8
01F8
01F8
01F8
01F8
01F8
01F8
01F8
01F8
01F8
01F8
ENDCHAR
STARTCHAR uni252B
ENCODING 9515
SWIDTH 602 0
DWIDTH 20 0
BBX 13 38 0 -7
BITMAP
01F8
01F8
01F8
01F8
01F8
01F8
01F8
01F8
01F8
01F8
01F8
01F8
01F8
01F8
01F8
01F8
FFF8
FFF8
FFF8
FFF8
FFF8
FFF8
01F8
01F8
01F8
01F8
01F8
01F8
01F8
01F8
01F8
01F8
01F8
01F8
01F8
01F8
01F8
01F8
ENDCHAR
STARTCHAR SF060000
ENCODING 9516
SWIDTH 602 0
DWIDTH 20 0
BBX 20 20 0 -7
BITMAP
FFFFF0
FFFFF0
006000
006000
006000
006000
006000
006000
006000
006000
006000
006000
006000
006000
006000
006000
006000
006000
006000
006000
ENDCHAR
STARTCHAR uni252D
ENCODING 9517
SWIDTH 602 0
DWIDTH 20 0
BBX 20 22 0 -7
BITMAP
FFF800
FFF800
FFFFF0
FFFFF0
FFF800
FFF800
006000
006000
006000
006000
006000
006000
006000
006000
006000
006000
006000
006000
006000
006000
006000
006000
ENDCHAR
STARTCHAR uni252E
ENCODING 9518
SWIDTH 602 0
DWIDTH 20 0
BBX 20 22 0 -7
BITMAP
01FFF0
01FFF0
FFFFF0
FFFFF0
01FFF0
01FFF0
006000
006000
006000
006000
006000
006000
006000
006000
006000
006000
006000
006000
006000
006000
006000
006000
ENDCHAR
STARTCHAR uni252F
ENCODING 9519
SWIDTH 602 0
DWIDTH 20 0
BBX 20 22 0 -7
BITMAP
FFFFF0
FFFFF0
FFFFF0
FFFFF0
FFFFF0
FFFFF0
006000
006000
006000
006000
006000
006000
006000
006000
006000
006000
006000
006000
006000
006000
006000
006000
ENDCHAR
STARTCHAR uni2530
ENCODING 9520
SWIDTH 602 0
DWIDTH 20 0
BBX 20 22 0 -7
BITMAP
01F800
01F800
FFFFF0
FFFFF0
01F800
01F800
01F800
01F800
01F800
01F800
01F800
01F800
01F800
01F800
01F800
01F800
01F800
01F800
01F800
01F800
01F800
01F800
ENDCHAR
STARTCHAR uni2531
ENCODING 9521
SWIDTH 602 0
DWIDTH 20 0
BBX 20 22 0 -7
BITMAP
FFF800
FFF800
FFFFF0
FFFFF0
FFF800
FFF800
01F800
01F800
01F800
01F800
01F800
01F800
01F800
01F800
01F800
01F800
01F800
01F800
01F800
01F800
01F800
01F800
ENDCHAR
STARTCHAR uni2532
ENCODING 9522
SWIDTH 602 0
DWIDTH 20 0
BBX 20 22 0 -7
BITMAP
01FFF0
01FFF0
FFFFF0
FFFFF0
01FFF0
01FFF0
01F800
01F800
01F800
01F800
01F800
01F800
01F800
01F800
01F800
01F800
01F800
01F800
01F800
01F800
01F800
01F800
ENDCHAR
STARTCHAR uni2533
ENCODING 9523
SWIDTH 602 0
DWIDTH 20 0
BBX 20 22 0 -7
BITMAP
FFFFF0
FFFFF0
FFFFF0
FFFFF0
FFFFF0
FFFFF0
01F800
01F800
01F800
01F800
01F800
01F800
01F800
01F800
01F800
01F800
01F800
01F800
01F800
01F800
01F800
01F800
ENDCHAR
STARTCHAR SF070000
ENCODING 9524
SWIDTH 602 0
DWIDTH 20 0
BBX 20 20 0 11
BITMAP
006000
006000
006000
006000
006000
006000
006000
006000
006000
006000
006000
006000
006000
006000
006000
006000
006000
006000
FFFFF0
FFFFF0
ENDCHAR
STARTCHAR uni2535
ENCODING 9525
SWIDTH 602 0
DWIDTH 20 0
BBX 20 22 0 9
BITMAP
006000
006000
006000
006000
006000
006000
006000
006000
006000
006000
006000
006000
006000
006000
006000
006000
FFF800
FFF800
FFFFF0
FFFFF0
FFF800
FFF800
ENDCHAR
STARTCHAR uni2536
ENCODING 9526
SWIDTH 602 0
DWIDTH 20 0
BBX 20 22 0 9
BITMAP
006000
006000
006000
006000
006000
006000
006000
006000
006000
006000
006000
006000
006000
006000
006000
006000
01FFF0
01FFF0
FFFFF0
FFFFF0
01FFF0
01FFF0
ENDCHAR
STARTCHAR uni2537
ENCODING 9527
SWIDTH 602 0
DWIDTH 20 0
BBX 20 22 0 9
BITMAP
006000
006000
006000
006000
006000
006000
006000
006000
006000
006000
006000
006000
006000
006000
006000
006000
FFFFF0
FFFFF0
FFFFF0
FFFFF0
FFFFF0
FFFFF0
ENDCHAR
STARTCHAR uni2538
ENCODING 9528
SWIDTH 602 0
DWIDTH 20 0
BBX 20 22 0 9
BITMAP
01F800
01F800
01F800
01F800
01F800
01F800
01F800
01F800
01F800
01F800
01F800
01F800
01F800
01F800
01F800
01F800
01F800
01F800
FFFFF0
FFFFF0
01F800
01F800
ENDCHAR
STARTCHAR uni2539
ENCODING 9529
SWIDTH 602 0
DWIDTH 20 0
BBX 20 22 0 9
BITMAP
01F800
01F800
01F800
01F800
01F800
01F800
01F800
01F800
01F800
01F800
01F800
01F800
01F800
01F800
01F800
01F800
FFF800
FFF800
FFFFF0
FFFFF0
FFF800
FFF800
ENDCHAR
STARTCHAR uni253A
ENCODING 9530
SWIDTH 602 0
DWIDTH 20 0
BBX 20 22 0 9
BITMAP
01F800
01F800
01F800
01F800
01F800
01F800
01F800
01F800
01F800
01F800
01F800
01F800
01F800
01F800
01F800
01F800
01FFF0
01FFF0
FFFFF0
FFFFF0
01FFF0
01FFF0
ENDCHAR
STARTCHAR uni253B
ENCODING 9531
SWIDTH 602 0
DWIDTH 20 0
BBX 20 22 0 9
BITMAP
01F800
01F800
01F800
01F800
01F800
01F800
01F800
01F800
01F800
01F800
01F800
01F800
01F800
01F800
01F800
01F800
FFFFF0
FFFFF0
FFFFF0
FFFFF0
FFFFF0
FFFFF0
ENDCHAR
STARTCHAR SF050000
ENCODING 9532
SWIDTH 602 0
DWIDTH 20 0
BBX 20 38 0 -7
BITMAP
006000
006000
006000
006000
006000
006000
006000
006000
006000
006000
006000
006000
006000
006000
006000
006000
006000
006000
FFFFF0
FFFFF0
006000
006000
006000
006000
006000
006000
006000
006000
006000
006000
006000
006000
006000
006000
006000
006000
006000
006000
ENDCHAR
STARTCHAR uni253D
ENCODING 9533
SWIDTH 602 0
DWIDTH 20 0
BBX 20 38 0 -7
BITMAP
006000
006000
006000
006000
006000
006000
006000
006000
006000
006000
006000
006000
006000
006000
006000
006000
FFF800
FFF800
FFFFF0
FFFFF0
FFF800
FFF800
006000
006000
006000
006000
006000
006000
006000
006000
006000
006000
006000
006000
006000
006000
006000
006000
ENDCHAR
STARTCHAR uni253E
ENCODING 9534
SWIDTH 602 0
DWIDTH 20 0
BBX 20 38 0 -7
BITMAP
006000
006000
006000
006000
006000
006000
006000
006000
006000
006000
006000
006000
006000
006000
006000
006000
01FFF0
01FFF0
FFFFF0
FFFFF0
01FFF0
01FFF0
006000
006000
006000
006000
006000
006000
006000
006000
006000
006000
006000
006000
006000
006000
006000
006000
ENDCHAR
STARTCHAR uni253F
ENCODING 9535
SWIDTH 602 0
DWIDTH 20 0
BBX 20 38 0 -7
BITMAP
006000
006000
006000
006000
006000
006000
006000
006000
006000
006000
006000
006000
006000
006000
006000
006000
FFFFF0
FFFFF0
FFFFF0
FFFFF0
FFFFF0
FFFFF0
006000
006000
006000
006000
006000
006000
006000
006000
006000
006000
006000
006000
006000
006000
006000
006000
ENDCHAR
STARTCHAR uni2540
ENCODING 9536
SWIDTH 602 0
DWIDTH 20 0
BBX 20 38 0 -7
BITMAP
01F800
01F800
01F800
01F800
01F800
01F800
01F800
01F800
01F800
01F800
01F800
01F800
01F800
01F800
01F800
01F800
01F800
01F800
FFFFF0
FFFFF0
01F800
01F800
006000
006000
006000
006000
006000
006000
006000
006000
006000
006000
006000
006000
006000
006000
006000
006000
ENDCHAR
STARTCHAR uni2541
ENCODING 9537
SWIDTH 602 0
DWIDTH 20 0
BBX 20 38 0 -7
BITMAP
006000
006000
006000
006000
006000
006000
006000
006000
006000
006000
006000
006000
006000
006000
006000
006000
01F800
01F800
FFFFF0
FFFFF0
01F800
01F800
01F800
01F800
01F800
01F800
01F800
01F800
01F800
01F800
01F800
01F800
01F800
01F800
01F800
01F800
01F800
01F800
ENDCHAR
STARTCHAR uni2542
ENCODING 9538
SWIDTH 602 0
DWIDTH 20 0
BBX 20 38 0 -7
BITMAP
01F800
01F800
01F800
01F800
01F800
01F800
01F800
01F800
01F800
01F800
01F800
01F800
01F800
01F800
01F800
01F800
01F800
01F800
FFFFF0
FFFFF0
01F800
01F800
01F800
01F800
01F800
01F800
01F800
01F800
01F800
01F800
01F800
01F800
01F800
01F800
01F800
01F800
01F800
01F800
ENDCHAR
STARTCHAR uni2543
ENCODING 9539
SWIDTH 602 0
DWIDTH 20 0
BBX 20 38 0 -7
BITMAP
01F800
01F800
01F800
01F800
01F800
01F800
01F800
01F800
01F800
01F800
01F800
01F800
01F800
01F800
01F800
01F800
FFF800
FFF800
FFFFF0
FFFFF0
FFF800
FFF800
006000
006000
006000
006000
006000
006000
006000
006000
006000
006000
006000
006000
006000
006000
006000
006000
ENDCHAR
STARTCHAR uni2544
ENCODING 9540
SWIDTH 602 0
DWIDTH 20 0
BBX 20 38 0 -7
BITMAP
01F800
01F800
01F800
01F800
01F800
01F800
01F800
01F800
01F800
01F800
01F800
01F800
01F800
01F800
01F800
01F800
01FFF0
01FFF0
FFFFF0
FFFFF0
01FFF0
01FFF0
006000
006000
006000
006000
006000
006000
006000
006000
006000
006000
006000
006000
006000
006000
006000
006000
ENDCHAR
STARTCHAR uni2545
ENCODING 9541
SWIDTH 602 0
DWIDTH 20 0
BBX 20 38 0 -7
BITMAP
006000
006000
006000
006000
006000
006000
006000
006000
006000
006000
006000
006000
006000
006000
006000
006000
FFF800
FFF800
FFFFF0
FFFFF0
FFF800
FFF800
01F800
01F800
01F800
01F800
01F800
01F800
01F800
01F800
01F800
01F800
01F800
01F800
01F800
01F800
01F800
01F800
ENDCHAR
STARTCHAR uni2546
ENCODING 9542
SWIDTH 602 0
DWIDTH 20 0
BBX 20 38 0 -7
BITMAP
006000
006000
006000
006000
006000
006000
006000
006000
006000
006000
006000
006000
006000
006000
006000
006000
01FFF0
01FFF0
FFFFF0
FFFFF0
01FFF0
01FFF0
01F800
01F800
01F800
01F800
01F800
01F800
01F800
01F800
01F800
01F800
01F800
01F800
01F800
01F800
01F800
01F800
ENDCHAR
STARTCHAR uni2547
ENCODING 9543
SWIDTH 602 0
DWIDTH 20 0
BBX 20 38 0 -7
BITMAP
01F800
01F800
01F800
01F800
01F800
01F800
01F800
01F800
01F800
01F800
01F800
01F800
01F800
01F800
01F800
01F800
FFFFF0
FFFFF0
FFFFF0
FFFFF0
FFFFF0
FFFFF0
006000
006000
006000
006000
006000
006000
006000
006000
006000
006000
006000
006000
006000
006000
006000
006000
ENDCHAR
STARTCHAR uni2548
ENCODING 9544
SWIDTH 602 0
DWIDTH 20 0
BBX 20 38 0 -7
BITMAP
006000
006000
006000
006000
006000
006000
006000
006000
006000
006000
006000
006000
006000
006000
006000
006000
FFFFF0
FFFFF0
FFFFF0
FFFFF0
FFFFF0
FFFFF0
01F800
01F800
01F800
01F800
01F800
01F800
01F800
01F800
01F800
01F800
01F800
01F800
01F800
01F800
01F800
01F800
ENDCHAR
STARTCHAR uni2549
ENCODING 9545
SWIDTH 602 0
DWIDTH 20 0
BBX 20 38 0 -7
BITMAP
01F800
01F800
01F800
01F800
01F800
01F800
01F800
01F800
01F800
01F800
01F800
01F800
01F800
01F800
01F800
01F800
FFF800
FFF800
FFFFF0
FFFFF0
FFF800
FFF800
01F800
01F800
01F800
01F800
01F800
01F800
01F800
01F800
01F800
01F800
01F800
01F800
01F800
01F800
01F800
01F800
ENDCHAR
STARTCHAR uni254A
ENCODING 9546
SWIDTH 602 0
DWIDTH 20 0
BBX 20 38 0 -7
BITMAP
01F800
01F800
01F800
01F800
01F800
01F800
01F800
01F800
01F800
01F800
01F800
01F800
01F800
01F800
01F800
01F800
01FFF0
01FFF0
FFFFF0
FFFFF0
01FFF0
01FFF0
01F800
01F800
01F800
01F800
01F800
01F800
01F800
01F800
01F800
01F800
01F800
01F800
01F800
01F800
01F800
01F800
ENDCHAR
STARTCHAR uni254B
ENCODING 9547
SWIDTH 602 0
DWIDTH 20 0
BBX 20 38 0 -7
BITMAP
01F800
01F800
01F800
01F800
01F800
01F800
01F800
01F800
01F800
01F800
01F800
01F800
01F800
01F800
01F800
01F800
FFFFF0
FFFFF0
FFFFF0
FFFFF0
FFFFF0
FFFFF0
01F800
01F800
01F800
01F800
01F800
01F800
01F800
01F800
01F800
01F800
01F800
01F800
01F800
01F800
01F800
01F800
ENDCHAR
STARTCHAR uni254C
ENCODING 9548
SWIDTH 602 0
DWIDTH 20 0
BBX 20 38 0 -7
BITMAP
000000
000000
000000
000000
000000
000000
000000
000000
000000
000000
000000
000000
000000
000000
000000
000000
000000
000000
FF9FF0
FF9FF0
000000
000000
000000
000000
000000
000000
000000
000000
000000
000000
000000
000000
000000
000000
000000
000000
000000
000000
ENDCHAR
STARTCHAR uni254D
ENCODING 9549
SWIDTH 602 0
DWIDTH 20 0
BBX 20 38 0 -7
BITMAP
000000
000000
000000
000000
000000
000000
000000
000000
000000
000000
000000
000000
000000
000000
000000
000000
FF9FF0
FF9FF0
FF9FF0
FF9FF0
FF9FF0
FF9FF0
000000
000000
000000
000000
000000
000000
000000
000000
000000
000000
000000
000000
000000
000000
000000
000000
ENDCHAR
STARTCHAR uni254E
ENCODING 9550
SWIDTH 602 0
DWIDTH 20 0
BBX 20 38 0 -7
BITMAP
006000
006000
006000
006000
006000
006000
006000
006000
006000
006000
006000
006000
006000
006000
006000
006000
006000
006000
000000
000000
006000
006000
006000
006000
006000
006000
006000
006000
006000
006000
006000
006000
006000
006000
006000
006000
006000
006000
ENDCHAR
STARTCHAR uni254F
ENCODING 9551
SWIDTH 602 0
DWIDTH 20 0
BBX 20 38 0 -7
BITMAP
01F800
01F800
01F800
01F800
01F800
01F800
01F800
01F800
01F800
01F800
01F800
01F800
01F800
01F800
01F800
01F800
01F800
01F800
000000
000000
01F800
01F800
01F800
01F800
01F800
01F800
01F800
01F800
01F800
01F800
01F800
01F800
01F800
01F800
01F800
01F800
01F800
01F800
ENDCHAR
STARTCHAR SF430000
ENCODING 9552
SWIDTH 602 0
DWIDTH 20 0
BBX 20 6 0 9
BITMAP
FFFFF0
FFFFF0
000000
000000
FFFFF0
FFFFF0
ENDCHAR
STARTCHAR SF240000
ENCODING 9553
SWIDTH 602 0
DWIDTH 20 0
BBX 6 38 7 -7
BITMAP
CC
CC
CC
CC
CC
CC
CC
CC
CC
CC
CC
CC
CC
CC
CC
CC
CC
CC
CC
CC
CC
CC
CC
CC
CC
CC
CC
CC
CC
CC
CC
CC
CC
CC
CC
CC
CC
CC
ENDCHAR
STARTCHAR SF390000
ENCODING 9556
SWIDTH 602 0
DWIDTH 20 0
BBX 13 22 7 -7
BITMAP
FFF8
FFF8
C000
C000
CFF8
CFF8
CC00
CC00
CC00
CC00
CC00
CC00
CC00
CC00
CC00
CC00
CC00
CC00
CC00
CC00
CC00
CC00
ENDCHAR
STARTCHAR SF250000
ENCODING 9559
SWIDTH 602 0
DWIDTH 20 0
BBX 13 22 0 -7
BITMAP
FFF8
FFF8
0018
0018
FF98
FF98
0198
0198
0198
0198
0198
0198
0198
0198
0198
0198
0198
0198
0198
0198
0198
0198
ENDCHAR
STARTCHAR SF380000
ENCODING 9562
SWIDTH 602 0
DWIDTH 20 0
BBX 13 22 7 9
BITMAP
CC00
CC00
CC00
CC00
CC00
CC00
CC00
CC00
CC00
CC00
CC00
CC00
CC00
CC00
CC00
CC00
CFF8
CFF8
C000
C000
FFF8
FFF8
ENDCHAR
STARTCHAR SF260000
ENCODING 9565
SWIDTH 602 0
DWIDTH 20 0
BBX 13 22 0 9
BITMAP
0198
0198
0198
0198
0198
0198
0198
0198
0198
0198
0198
0198
0198
0198
0198
0198
FF98
FF98
0018
0018
FFF8
FFF8
ENDCHAR
STARTCHAR SF420000
ENCODING 9568
SWIDTH 602 0
DWIDTH 20 0
BBX 13 38 7 -7
BITMAP
CC00
CC00
CC00
CC00
CC00
CC00
CC00
CC00
CC00
CC00
CC00
CC00
CC00
CC00
CC00
CC00
CFF8
CFF8
C000
C000
CFF8
CFF8
CC00
CC00
CC00
CC00
CC00
CC00
CC00
CC00
CC00
CC00
CC00
CC00
CC00
CC00
CC00
CC00
ENDCHAR
STARTCHAR SF230000
ENCODING 9571
SWIDTH 602 0
DWIDTH 20 0
BBX 13 38 0 -7
BITMAP
0198
0198
0198
0198
0198
0198
0198
0198
0198
0198
0198
0198
0198
0198
0198
0198
FF98
FF98
0018
0018
FF98
FF98
0198
0198
0198
0198
0198
0198
0198
0198
0198
0198
0198
0198
0198
0198
0198
0198
ENDCHAR
STARTCHAR SF410000
ENCODING 9574
SWIDTH 602 0
DWIDTH 20 0
BBX 20 22 0 -7
BITMAP
FFFFF0
FFFFF0
000000
000000
FF9FF0
FF9FF0
019800
019800
019800
019800
019800
019800
019800
019800
019800
019800
019800
019800
019800
019800
019800
019800
ENDCHAR
STARTCHAR SF400000
ENCODING 9577
SWIDTH 602 0
DWIDTH 20 0
BBX 20 22 0 9
BITMAP
019800
019800
019800
019800
019800
019800
019800
019800
019800
019800
019800
019800
019800
019800
019800
019800
FF9FF0
FF9FF0
000000
000000
FFFFF0
FFFFF0
ENDCHAR
STARTCHAR SF540000
ENCODING 9578
SWIDTH 602 0
DWIDTH 20 0
BBX 20 38 0 -7
BITMAP
006000
006000
006000
006000
006000
006000
006000
006000
006000
006000
006000
006000
006000
006000
006000
006000
FFFFF0
FFFFF0
006000
006000
FFFFF0
FFFFF0
006000
006000
006000
006000
006000
006000
006000
006000
006000
006000
006000
006000
006000
006000
006000
006000
ENDCHAR
STARTCHAR SF530000
ENCODING 9579
SWIDTH 602 0
DWIDTH 20 0
BBX 20 38 0 -7
BITMAP
019800
019800
019800
019800
019800
019800
019800
019800
019800
019800
019800
019800
019800
019800
019800
019800
019800
019800
FFFFF0
FFFFF0
019800
019800
019800
019800
019800
019800
019800
019800
019800
019800
019800
019800
019800
019800
019800
019800
019800
019800
ENDCHAR
STARTCHAR SF440000
ENCODING 9580
SWIDTH 602 0
DWIDTH 20 0
BBX 20 38 0 -7
BITMAP
019800
019800
019800
019800
019800
019800
019800
019800
019800
019800
019800
019800
019800
019800
019800
019800
FF9FF0
FF9FF0
000000
000000
FF9FF0
FF9FF0
019800
019800
019800
019800
019800
019800
019800
019800
019800
019800
019800
019800
019800
019800
019800
019800
ENDCHAR
STARTCHAR uni2574
ENCODING 9588
SWIDTH 602 0
DWIDTH 20 0
BBX 11 2 0 11
BITMAP
FFE0
FFE0
ENDCHAR
STARTCHAR uni2575
ENCODING 9589
SWIDTH 602 0
DWIDTH 20 0
BBX 2 20 9 11
BITMAP
C0
C0
C0
C0
C0
C0
C0
C0
C0
C0
C0
C0
C0
C0
C0
C0
C0
C0
C0
C0
ENDCHAR
STARTCHAR uni2576
ENCODING 9590
SWIDTH 602 0
DWIDTH 20 0
BBX 11 2 9 11
BITMAP
FFE0
FFE0
ENDCHAR
STARTCHAR uni2577
ENCODING 9591
SWIDTH 602 0
DWIDTH 20 0
BBX 2 20 9 -7
BITMAP
C0
C0
C0
C0
C0
C0
C0
C0
C0
C0
C0
C0
C0
C0
C0
C0
C0
C0
C0
C0
ENDCHAR
STARTCHAR uni2578
ENCODING 9592
SWIDTH 602 0
DWIDTH 20 0
BBX 13 6 0 9
BITMAP
FFF8
FFF8
FFF8
FFF8
FFF8
FFF8
ENDCHAR
STARTCHAR uni2579
ENCODING 9593
SWIDTH 602 0
DWIDTH 20 0
BBX 6 22 7 9
BITMAP
FC
FC
FC
FC
FC
FC
FC
FC
FC
FC
FC
FC
FC
FC
FC
FC
FC
FC
FC
FC
FC
FC
ENDCHAR
STARTCHAR uni257A
ENCODING 9594
SWIDTH 602 0
DWIDTH 20 0
BBX 13 6 7 9
BITMAP
FFF8
FFF8
FFF8
FFF8
FFF8
FFF8
ENDCHAR
STARTCHAR uni257B
ENCODING 9595
SWIDTH 602 0
DWIDTH 20 0
BBX 6 22 7 -7
BITMAP
FC
FC
FC
FC
FC
FC
FC
FC
FC
FC
FC
FC
FC
FC
FC
FC
FC
FC
FC
FC
FC
FC
ENDCHAR
STARTCHAR uni257C
ENCODING 9596
SWIDTH 602 0
DWIDTH 20 0
BBX 20 6 0 9
BITMAP
01FFF0
01FFF0
FFFFF0
FFFFF0
01FFF0
01FFF0
ENDCHAR
STARTCHAR uni257D
ENCODING 9597
SWIDTH 602 0
DWIDTH 20 0
BBX 6 38 7 -7
BITMAP
30
30
30
30
30
30
30
30
30
30
30
30
30
30
30
30
FC
FC
FC
FC
FC
FC
FC
FC
FC
FC
FC
FC
FC
FC
FC
FC
FC
FC
FC
FC
FC
FC
ENDCHAR
STARTCHAR uni257E
ENCODING 9598
SWIDTH 602 0
DWIDTH 20 0
BBX 20 6 0 9
BITMAP
FFF800
FFF800
FFFFF0
FFFFF0
FFF800
FFF800
ENDCHAR
STARTCHAR uni257F
ENCODING 9599
SWIDTH 602 0
DWIDTH 20 0
BBX 6 38 7 -7
BITMAP
FC
FC
FC
FC
FC
FC
FC
FC
FC
FC
FC
FC
FC
FC
FC
FC
FC
FC
FC
FC
FC
FC
30
30
30
30
30
30
30
30
30
30
30
30
30
30
30
30
ENDCHAR
STARTCHAR upblock
ENCODING 9600
SWIDTH 602 0
DWIDTH 20 0
BBX 20 39 0 -7
BITMAP
FFFFF0
FFFFF0
FFFFF0
FFFFF0
FFFFF0
FFFFF0
FFFFF0
FFFFF0
FFFFF0
FFFFF0
FFFFF0
FFFFF0
FFFFF0
FFFFF0
FFFFF0
FFFFF0
FFFFF0
FFFFF0
FFFFF0
000000
000000
000000
000000
000000
000000
000000
000000
000000
000000
000000
000000
000000
000000
000000
000000
000000
000000
000000
000000
ENDCHAR
STARTCHAR uni2581
ENCODING 9601
SWIDTH 602 0
DWIDTH 20 0
BBX 20 5 0 -7
BITMAP
FFFFF0
FFFFF0
FFFFF0
FFFFF0
FFFFF0
ENDCHAR
STARTCHAR uni2582
ENCODING 9602
SWIDTH 602 0
DWIDTH 20 0
BBX 20 10 0 -7
BITMAP
FFFFF0
FFFFF0
FFFFF0
FFFFF0
FFFFF0
FFFFF0
FFFFF0
FFFFF0
FFFFF0
FFFFF0
ENDCHAR
ENDFONT
